<?xml version="1.0" encoding="utf-8"?>
<!-- Generator: Adobe Illustrator 24.0.1, SVG Export Plug-In . SVG Version: 6.00 Build 0)  -->
<svg version="1.1" id="Слой_1" xmlns="http://www.w3.org/2000/svg" xmlns:xlink="http://www.w3.org/1999/xlink" x="0px" y="0px"
	 viewBox="0 0 71 70" style="enable-background:new 0 0 71 70;" xml:space="preserve">
<style type="text/css">
	.st0{fill:#FFFFFF;}
</style>
<path class="st0" d="M35,61.3c-15.3,0-27.7-12.4-27.7-27.7C7.3,18.3,19.7,5.8,35,5.8c15.3,0,27.7,12.4,27.7,27.7
	C62.7,48.8,50.3,61.3,35,61.3z M35,8.8c-13.7,0-24.8,11.1-24.8,24.8S21.3,58.3,35,58.3s24.8-11.1,24.8-24.8S48.7,8.8,35,8.8z"/>
<path class="st0" d="M15.5,45.3c-1.1,0-2.1,0-3.1-0.1C5,44.8,0.8,43,0.1,39.8c-0.6-3,2-6.2,8-9.4c0.7-0.4,1.6-0.1,2,0.6
	c0.4,0.7,0.1,1.6-0.6,2c-5.2,2.9-6.7,5.1-6.5,6.2c0.3,1.2,2.9,2.7,9.6,3.1c6.4,0.3,14.7-0.5,23.4-2.4c8.6-1.9,16.5-4.5,22.3-7.5
	c5.9-3.1,7.7-5.6,7.5-6.8c-0.2-1-2.3-2.4-7.5-2.9c-0.8-0.1-1.4-0.8-1.3-1.6c0.1-0.8,0.8-1.4,1.6-1.3c6,0.6,9.4,2.4,10,5.2
	c0.7,3.1-2.4,6.6-9,10c-5.9,3.1-14.1,5.8-23,7.7C29,44.4,21.6,45.3,15.5,45.3z"/>
<path class="st0" d="M62.4,70c-0.5,0-1-0.3-1.3-0.8l-2-3.6l-3.6-2c-0.5-0.3-0.8-0.7-0.8-1.3s0.3-1,0.8-1.3l3.6-2l2-3.6
	c0.3-0.5,0.7-0.8,1.3-0.8c0.5,0,1,0.3,1.3,0.8l2,3.6l3.6,2c0.5,0.3,0.8,0.7,0.8,1.3s-0.3,1-0.8,1.3l-3.6,2l-2,3.6
	C63.4,69.7,62.9,70,62.4,70z M59.2,62.4l1.7,0.9c0.2,0.1,0.4,0.3,0.6,0.6l0.9,1.7l0.9-1.7c0.1-0.2,0.3-0.4,0.6-0.6l1.7-0.9l-1.7-0.9
	c-0.2-0.1-0.4-0.3-0.6-0.6l-0.9-1.7l-0.9,1.7c-0.1,0.2-0.3,0.4-0.6,0.6L59.2,62.4z"/>
<path class="st0" d="M7.6,15.3c-0.5,0-1-0.3-1.3-0.8l-2-3.6l-3.6-2C0.3,8.7,0,8.2,0,7.6s0.3-1,0.8-1.3l3.6-2l2-3.6
	C6.6,0.3,7.1,0,7.6,0s1,0.3,1.3,0.8l2,3.6l3.6,2c0.5,0.3,0.8,0.7,0.8,1.3s-0.3,1-0.8,1.3l-3.6,2l-2,3.6C8.7,15,8.2,15.3,7.6,15.3z
	 M4.5,7.6l1.7,0.9c0.2,0.1,0.4,0.3,0.6,0.6l0.9,1.7l0.9-1.7c0.1-0.2,0.3-0.4,0.6-0.6l1.7-0.9L9.1,6.7C8.9,6.6,8.7,6.4,8.5,6.2
	L7.6,4.5L6.7,6.2C6.6,6.4,6.4,6.6,6.2,6.7L4.5,7.6z"/>
<path class="st0" d="M34.3,26.3c-2.8,0-5.1-2.3-5.1-5.1c0-2.8,2.3-5.1,5.1-5.1c2.8,0,5.1,2.3,5.1,5.1C39.4,24,37.1,26.3,34.3,26.3z
	 M34.3,19c-1.2,0-2.2,1-2.2,2.2s1,2.2,2.2,2.2s2.2-1,2.2-2.2S35.5,19,34.3,19z"/>
<path class="st0" d="M43,52.5c-2,0-3.6-1.6-3.6-3.6c0-2,1.6-3.6,3.6-3.6s3.6,1.6,3.6,3.6C46.7,50.9,45,52.5,43,52.5z M43,48.1
	c-0.4,0-0.7,0.3-0.7,0.7c0,0.4,0.3,0.7,0.7,0.7c0.4,0,0.7-0.3,0.7-0.7C43.8,48.5,43.4,48.1,43,48.1z"/>
<path class="st0" d="M22.6,36.5c-2,0-3.6-1.6-3.6-3.6s1.6-3.6,3.6-3.6c2,0,3.6,1.6,3.6,3.6S24.6,36.5,22.6,36.5z M22.6,32.1
	c-0.4,0-0.7,0.3-0.7,0.7s0.3,0.7,0.7,0.7c0.4,0,0.7-0.3,0.7-0.7S23,32.1,22.6,32.1z"/>
<path class="st0" d="M10.2,67.1c-0.8,0-1.5-0.7-1.5-1.5v-4.4c0-0.8,0.7-1.5,1.5-1.5c0.8,0,1.5,0.7,1.5,1.5v4.4
	C11.7,66.4,11,67.1,10.2,67.1z"/>
<path class="st0" d="M12.4,64.9H8c-0.8,0-1.5-0.7-1.5-1.5C6.6,62.6,7.2,62,8,62h4.4c0.8,0,1.5,0.7,1.5,1.5
	C13.9,64.2,13.2,64.9,12.4,64.9z"/>
<path class="st0" d="M60.5,14.6c-0.8,0-1.5-0.7-1.5-1.5V8.8c0-0.8,0.7-1.5,1.5-1.5c0.8,0,1.5,0.7,1.5,1.5v4.4
	C62,13.9,61.3,14.6,60.5,14.6z"/>
<path class="st0" d="M62.7,12.4h-4.4c-0.8,0-1.5-0.7-1.5-1.5s0.7-1.5,1.5-1.5h4.4c0.8,0,1.5,0.7,1.5,1.5S63.5,12.4,62.7,12.4z"/>
</svg>
