<?xml version="1.0" encoding="utf-8"?>
<!-- Generator: Adobe Illustrator 24.0.1, SVG Export Plug-In . SVG Version: 6.00 Build 0)  -->
<svg version="1.1" id="Слой_1" xmlns="http://www.w3.org/2000/svg" xmlns:xlink="http://www.w3.org/1999/xlink" x="0px" y="0px"
	 viewBox="0 0 116 160.1" style="enable-background:new 0 0 116 160.1;" xml:space="preserve">
<style type="text/css">
	.st0{fill:#FFFFFF;}
</style>
<path class="st0" d="M60.7,21.9c0,1.9,1.6,3.5,3.5,3.5s3.5-1.6,3.5-3.5V10.2c0-0.3,0-0.6-0.1-0.8V9c0-1.9-1.6-3.5-3.5-3.5
	S60.6,7.1,60.6,9v11.7c0,0.3,0,0.6,0.1,0.8V21.9z"/>
<path class="st0" d="M90,34.2c0.9,0,1.8-0.3,2.5-1l8.3-8.3c1.4-1.4,1.4-3.6,0-5s-3.6-1.4-4.9,0l-8.3,8.3c-1.4,1.4-1.4,3.6,0,5
	C88.2,33.9,89.1,34.2,90,34.2z"/>
<path class="st0" d="M35.8,33.2c0.7,0.7,1.6,1,2.5,1s1.8-0.3,2.5-1c1.4-1.4,1.4-3.6,0-5L32.5,20c-1.4-1.4-3.6-1.4-5,0s-1.4,3.6,0,5
	L35.8,33.2z"/>
<path class="st0" d="M94.4,48.1c1.1,3.2,1.7,6.6,1.7,10.1c0,0.8,0,1.7-0.1,2.5c4.2,6.5,6.6,14.2,6.6,22.3c0,6.9-1.7,13.6-5,19.6
	c-6.1,11.2-9.4,24.1-9.4,37.4v7.6h-40V134c0-1.9-1.6-3.5-3.5-3.5H30.6c-3.5,0-6.4-3-6.4-6.6v-14.3c0-1.7-1.2-3.1-2.8-3.4l-7.6-1.6
	h-0.1v-0.1l10.6-18.9c0.3-0.5,0.5-1.2,0.4-1.8v-0.4c0-0.1,0-0.2,0-0.3c0-8.7,2.7-17,7.5-23.7c0.8-1.1,1.7-2.2,2.6-3.2
	c-0.1,0.7-0.1,1.4-0.1,2.1c0,6.1,1.8,11.9,5.3,16.8c0.1,0.1,0.1,0.2,0.2,0.3l0.1,0.1c0.2,0.3,0.5,0.6,0.7,0.9l1.5,2
	c3.6,4.8,5.6,10.7,5.6,16.7v1.5c0,0.2,0,0.5,0.1,0.7v6c0,3.1,2,5.8,4.7,6.9v3.9c0,4.1,3.3,7.5,7.5,7.5H68c4.1,0,7.5-3.3,7.5-7.5V110
	c2.8-1.1,4.7-3.8,4.7-6.9v-6.8l0,0V95c0-6,2-11.9,5.6-16.7l1.5-1.9c0.2-0.3,0.5-0.6,0.7-0.9l0.1-0.2c0.1-0.1,0.1-0.2,0.2-0.3
	c3.5-5,5.3-10.8,5.3-16.9c0-16.2-13.2-29.3-29.4-29.3c-10.8,0-20.3,5.9-25.4,14.6c-1.5,1-3,2.1-4.3,3.2C24,55.4,17.9,68.5,17.8,82.7
	l-10,17.9c-1.5,2-1.7,4.6-0.6,6.9c1,2.2,3.2,3.6,5.5,3.8l4.5,0.9v11.4c0,7.5,6,13.6,13.4,13.6h10.6V151c0,1.9,1.6,3.5,3.5,3.5h47
	c1.9,0,3.5-1.6,3.5-3.5v-11.1c0-12.1,2.9-23.9,8.5-34c3.8-7,5.8-14.9,5.8-22.9C109.5,69.5,103.9,56.9,94.4,48.1z M68.4,113.9
	c0,0.3-0.2,0.5-0.5,0.5h-7.6c-0.3,0-0.5-0.2-0.5-0.5v-3.3h8.5L68.4,113.9L68.4,113.9z M73.1,103.1c0,0.3-0.2,0.5-0.5,0.5h-0.7H56.4
	h-0.7c-0.3,0-0.5-0.2-0.5-0.5v-3.3h17.9C73.1,99.7,73.1,103.1,73.1,103.1z M55.4,64.7L55,63.9l3.3,1.2c0.6,0.2,1.2,0.2,1.8,0l4-1.7
	l4.1,1.7c0.6,0.2,1.2,0.3,1.8,0l3.3-1.2L73,64.7c-3.4,7.1-5.3,15.1-5.3,23v5h-7.1v-5C60.7,79.8,58.8,71.8,55.4,64.7z M64.1,35.9
	c12.3,0,22.4,10,22.4,22.3c0,4.7-1.4,9.2-4.2,13c0,0,0,0.1-0.1,0.1l0,0c-0.2,0.2-0.4,0.5-0.6,0.8l-1.5,2c-4.1,5.4-6.5,12-7,18.7
	h-0.5v-5c0-7.2,1.6-14.4,4.8-20.9l3.1-6.4c0.4-0.9,0.3-2-0.4-2.8c-0.7-0.8-1.8-1-2.7-0.7l-8.2,3l-4-1.7c-0.4-0.2-0.9-0.3-1.5-0.3
	c-0.4,0-0.7,0.2-1,0.3L59,59.9l-8.2-3c-1-0.3-2-0.1-2.7,0.7s-0.8,1.8-0.4,2.8l3.1,6.4c3.1,6.5,4.8,13.7,4.8,20.9v5H55
	c-0.4-6.8-2.8-13.3-7-18.7l-1.6-2c-0.2-0.2-0.4-0.5-0.6-0.8c0,0,0-0.1-0.1-0.1c-2.7-3.8-4.2-8.3-4.2-13
	C41.8,45.9,51.8,35.9,64.1,35.9z"/>
</svg>
