<?xml version="1.0" encoding="utf-8"?>
<!-- Generator: Adobe Illustrator 24.0.1, SVG Export Plug-In . SVG Version: 6.00 Build 0)  -->
<svg version="1.1" id="Слой_1" xmlns="http://www.w3.org/2000/svg" xmlns:xlink="http://www.w3.org/1999/xlink" x="0px" y="0px"
	 viewBox="0 0 160 200" style="enable-background:new 0 0 160 200;" xml:space="preserve">
<style type="text/css">
	.st0{fill:#FFFFFF;}
</style>
<path class="st0" d="M100,56.9c1.4,0,2.5-1.1,2.5-2.5v-8.2c0-1.4-1.1-2.5-2.5-2.5s-2.5,1.1-2.5,2.5v8.2
	C97.5,55.8,98.6,56.9,100,56.9z"/>
<path class="st0" d="M108.5,64c0,1.4,1.1,2.5,2.5,2.5h8.2c1.4,0,2.5-1.1,2.5-2.5c0-1.4-1.1-2.5-2.5-2.5H111
	C109.6,61.5,108.5,62.6,108.5,64z"/>
<path class="st0" d="M108.2,59.2c0.6,0,1.3-0.2,1.8-0.7l5.8-5.8c1-1,1-2.6,0-3.5c-1-1-2.6-1-3.5,0l-5.8,5.8c-1,1-1,2.6,0,3.5
	C106.9,59,107.5,59.2,108.2,59.2z"/>
<path class="st0" d="M60,56.9c1.4,0,2.5-1.1,2.5-2.5v-8.2c0-1.4-1.1-2.5-2.5-2.5s-2.5,1.1-2.5,2.5v8.2C57.5,55.8,58.6,56.9,60,56.9z
	"/>
<path class="st0" d="M51.5,64c0-1.4-1.1-2.5-2.5-2.5h-8.2c-1.4,0-2.5,1.1-2.5,2.5c0,1.4,1.1,2.5,2.5,2.5H49
	C50.4,66.5,51.5,65.4,51.5,64z"/>
<path class="st0" d="M50,58.5c0.5,0.5,1.1,0.7,1.8,0.7s1.3-0.2,1.8-0.7c1-1,1-2.6,0-3.5l-5.8-5.8c-1-1-2.6-1-3.5,0c-1,1-1,2.6,0,3.5
	L50,58.5z"/>
<path class="st0" d="M133.3,29.1c-34.1,0-49.8-21.5-50.5-22.4c-0.7-0.9-1.7-1.5-2.9-1.5c0,0,0,0,0,0c-1.1,0-2.2,0.6-2.9,1.5
	c-0.7,0.9-16.4,22.4-50.5,22.4c-1.9,0-3.5,1.6-3.5,3.5v58.6c0,32.4,32.9,57,55.1,63.3c0.6,0.2,1.1,0.2,1.7,0.1
	c0.2,0,0.5,0.1,0.7,0.1c0.3,0,0.6,0,1-0.1c22.2-6.4,55.1-30.9,55.1-63.3V32.6C136.8,30.7,135.2,29.1,133.3,29.1z M129.8,91.2
	c0,29.7-32.3,51.4-49.8,56.5c-17.5-5.1-49.8-26.8-49.8-56.5V36.1C57.7,35,73.9,20.9,80,14.3c6.1,6.7,22.3,20.7,49.8,21.8V91.2z"/>
<path class="st0" d="M100,60.5H80.2c-0.1,0-0.2,0-0.2,0c-0.1,0-0.2,0-0.2,0H60c-1.1,0-2.2,0.6-2.9,1.5L43.5,81.3c0,0,0,0,0,0
	c0,0.1-0.1,0.1-0.1,0.2c-0.1,0.1-0.2,0.3-0.2,0.4c0,0.1-0.1,0.1-0.1,0.2c0,0.1-0.1,0.3-0.1,0.4c0,0.1,0,0.1,0,0.2c0,0.2,0,0.3,0,0.5
	c0,0,0,0.1,0,0.1c0,0,0,0,0,0c0,0.2,0,0.4,0.1,0.6c0,0,0,0.1,0,0.1c0,0.2,0.1,0.3,0.1,0.5c0,0.1,0.1,0.1,0.1,0.2
	c0.1,0.1,0.1,0.2,0.2,0.3c0,0.1,0.1,0.1,0.1,0.2c0,0,0.1,0.1,0.1,0.1L77,127.2c0,0,0,0,0.1,0.1c0.1,0.2,0.3,0.3,0.4,0.4
	c0,0,0.1,0.1,0.1,0.1c0.2,0.1,0.4,0.3,0.6,0.4c0,0,0.1,0,0.1,0.1c0.2,0.1,0.3,0.1,0.5,0.2c0.1,0,0.1,0,0.2,0c0.2,0,0.5,0.1,0.7,0.1
	c0.1,0,0.2,0,0.2,0c0.1,0,0.2,0,0.2,0c0.2,0,0.5,0,0.7-0.1c0.1,0,0.1,0,0.2,0c0.2,0,0.4-0.1,0.5-0.2c0,0,0.1,0,0.1-0.1
	c0.2-0.1,0.4-0.2,0.6-0.4c0,0,0.1-0.1,0.1-0.1c0.2-0.1,0.3-0.3,0.4-0.4c0,0,0,0,0.1-0.1l33.5-41.7c0,0,0.1-0.1,0.1-0.1
	c0-0.1,0.1-0.1,0.1-0.2c0.1-0.1,0.1-0.2,0.2-0.3c0-0.1,0.1-0.1,0.1-0.2c0.1-0.2,0.1-0.3,0.1-0.5c0,0,0-0.1,0-0.1
	c0-0.2,0.1-0.4,0.1-0.6c0,0,0,0,0,0c0,0,0-0.1,0-0.1c0-0.2,0-0.3,0-0.5c0-0.1,0-0.1,0-0.2c0-0.1-0.1-0.3-0.1-0.4
	c0-0.1-0.1-0.1-0.1-0.2c-0.1-0.1-0.1-0.3-0.2-0.4c0-0.1-0.1-0.1-0.1-0.2c0,0,0,0,0,0L102.9,62C102.2,61.1,101.2,60.5,100,60.5z
	 M106.4,86.8l-16.7,20.8l6.9-20.8H106.4z M63.4,86.8l6.9,20.8L53.6,86.8H63.4z M80,114.6l-9.2-27.7H80h9.2L80,114.6z M80,79.8h-9
	l4.5-12.3h4.3c0.1,0,0.2,0,0.2,0c0.1,0,0.2,0,0.2,0h4.3L89,79.8H80z M61.8,67.5H68l-4.5,12.3H53.1L61.8,67.5z M106.9,79.8H96.5
	L92,67.5h6.2L106.9,79.8z"/>
</svg>
