<?xml version="1.0" encoding="utf-8"?>
<!-- Generator: Adobe Illustrator 24.0.1, SVG Export Plug-In . SVG Version: 6.00 Build 0)  -->
<svg version="1.1" id="Слой_1" xmlns="http://www.w3.org/2000/svg" xmlns:xlink="http://www.w3.org/1999/xlink" x="0px" y="0px"
	 viewBox="0 0 55 68" style="enable-background:new 0 0 55 68;" xml:space="preserve">
<style type="text/css">
	.st0{fill:#FFFFFF;}
</style>
<path class="st0" d="M26.7,67.1c0.2,0.1,0.4,0.2,0.6,0.2c0.2,0,0.4-0.1,0.6-0.2l7.9-4.1c11.6-6.1,18.7-17.9,18.7-30.9V10.6
	c0-0.5-0.3-1-0.8-1.1l-26-9.5c-0.2-0.1-0.6-0.1-0.8,0L0.8,9.5C0.3,9.7,0,10.2,0,10.6V32c0,13,7.2,24.9,18.7,30.9L26.7,67.1z
	 M2.5,32.1V11.5l24.8-9l24.8,9v20.5c0,12.1-6.7,23.2-17.4,28.8l-7.4,3.8L20,60.7C9.1,55.2,2.5,44.2,2.5,32.1z"/>
<path class="st0" d="M26.7,61.6c0.2,0.1,0.4,0.2,0.6,0.2s0.4-0.1,0.6-0.2l5.7-3c9.9-5.2,16.2-15.4,16.2-26.7V14c0-0.5-0.3-1-0.8-1.1
	L27.8,5.2c-0.2-0.1-0.6-0.1-0.8,0L5.8,12.9C5.3,13.1,5,13.6,5,14V32c0,11.2,6.2,21.4,16.2,26.7L26.7,61.6z M7.4,32.1V14.9l20-7.3
	l20,7.3v17.1c0,10.3-5.7,19.7-14.9,24.5l-5.1,2.7l-5.2-2.7C13,51.8,7.4,42.3,7.4,32.1z"/>
<path class="st0" d="M25.7,39.6c0.3,0,0.6-0.2,0.9-0.4l14.9-16c0.5-0.5,0.4-1.3-0.1-1.7c-0.5-0.5-1.3-0.4-1.7,0.1L25.6,36.7l-9-8.3
	c-0.5-0.5-1.3-0.4-1.7,0.1c-0.5,0.5-0.4,1.3,0.1,1.7l9.9,9.1C25.1,39.4,25.4,39.6,25.7,39.6z"/>
</svg>
