<?xml version="1.0" encoding="utf-8"?>
<!-- Generator: Adobe Illustrator 24.0.1, SVG Export Plug-In . SVG Version: 6.00 Build 0)  -->
<svg version="1.1" id="Слой_1" xmlns="http://www.w3.org/2000/svg" xmlns:xlink="http://www.w3.org/1999/xlink" x="0px" y="0px"
	 viewBox="0 0 83 70" style="enable-background:new 0 0 83 70;" xml:space="preserve">
<style type="text/css">
	.st0{fill:#FFFFFF;}
</style>
<path class="st0" d="M58.9,32.8c-0.2-0.4-0.6-0.6-1-0.6c-0.4,0-0.8,0.2-1.1,0.5l-3.9,4.9L46,27v-5.8h7.9c0.7,0,1.3-0.6,1.3-1.3v-6.5
	c0-0.7-0.6-1.3-1.3-1.3h-9.3c-0.7,0-1.3,0.6-1.3,1.3v6.5V27L27.5,48.5l-4.9-7.8c-0.2-0.4-0.6-0.6-1.1-0.6c-0.4,0-0.9,0.2-1.1,0.5
	L0.3,67.9c-0.3,0.4-0.3,0.9-0.1,1.4C0.4,69.7,0.8,70,1.3,70h79.4c0,0,0,0,0,0c0.7,0,1.3-0.6,1.3-1.3c0-0.3-0.1-0.6-0.3-0.9
	L58.9,32.8z M44.6,29.7l7.1,10.8l1.4,2.2l-4.7,2.9l-4.6-5.1c-0.3-0.3-0.6-0.5-1-0.4c-0.4,0-0.8,0.2-1,0.5l-4.6,6.1l-2.5-3.5
	L44.6,29.7z M52.6,18.5H46v-3.8h6.6V18.5z M21.4,43.8l2.2,3.5L19,50.6l-1.6-1.3L21.4,43.8z M4,67.4l11.8-16l2.3,1.9
	c0.2,0.2,0.5,0.3,0.8,0.3c0.3,0,0.5-0.1,0.8-0.3l5.2-3.8l0.8,1.3l-5.6,7.4c-0.4,0.6-0.3,1.4,0.3,1.9c0.2,0.2,0.5,0.3,0.8,0.3
	c0.4,0,0.8-0.2,1.1-0.5l6.1-8.1c0,0,0,0,0,0c0,0,0,0,0,0l4.5-6.2l3,4.3c0.2,0.3,0.6,0.6,1.1,0.6c0,0,0,0,0,0c0.4,0,0.8-0.2,1.1-0.5
	l4.8-6.3l4.3,4.7c0.4,0.5,1.1,0.6,1.7,0.2l5.7-3.5l7,10.7c0.3,0.4,0.7,0.6,1.1,0.6c0.2,0,0.5-0.1,0.7-0.2c0.6-0.4,0.8-1.2,0.4-1.8
	l-9.4-14.3l3.3-4.1l20.6,31.6H4z"/>
<path class="st0" d="M12.4,19.5h12.4c2.2,0,4-1.8,4-4s-1.8-4-4-4h-2.4C21.8,9.7,20,8.3,18,8.3s-3.7,1.3-4.3,3.2h-1.4
	c-2.2,0-4,1.8-4,4S10.2,19.5,12.4,19.5z M12.4,14.1h2.5c0.7,0,1.3-0.6,1.3-1.3c0-1,0.8-1.8,1.8-1.8c1,0,1.8,0.8,1.8,1.8
	c0,0.7,0.6,1.3,1.3,1.3h3.6c0.7,0,1.4,0.6,1.4,1.4c0,0.7-0.6,1.4-1.4,1.4H12.4c-0.7,0-1.4-0.6-1.4-1.4C11,14.8,11.6,14.1,12.4,14.1z
	"/>
<path class="st0" d="M62.8,11h11.1c2.2,0,3.9-1.8,3.9-3.9c0-2.2-1.8-3.9-3.9-3.9h-2.8c-0.4-1.8-2-3.2-3.9-3.2
	c-1.9,0-3.5,1.4-3.9,3.2h-0.6c-2.2,0-3.9,1.8-3.9,3.9C58.9,9.2,60.6,11,62.8,11z M62.8,5.8h1.9c0.4,0,0.8-0.2,1-0.5
	C65.9,5,66,4.6,65.9,4.2c0-0.1,0-0.2,0-0.3c0-0.7,0.6-1.3,1.3-1.3c0.7,0,1.3,0.6,1.3,1.3c0,0.1,0,0.2,0,0.3c-0.1,0.4,0,0.8,0.3,1.1
	c0.3,0.3,0.6,0.5,1,0.5h4.1c0.7,0,1.3,0.6,1.3,1.3c0,0.7-0.6,1.3-1.3,1.3H62.8c-0.7,0-1.3-0.6-1.3-1.3C61.5,6.4,62.1,5.8,62.8,5.8z"
	/>
</svg>
