<?xml version="1.0" encoding="utf-8"?>
<!-- Generator: Adobe Illustrator 24.0.1, SVG Export Plug-In . SVG Version: 6.00 Build 0)  -->
<svg version="1.1" id="Слой_1" xmlns="http://www.w3.org/2000/svg" xmlns:xlink="http://www.w3.org/1999/xlink" x="0px" y="0px"
	 viewBox="0 0 125.6 160.8" style="enable-background:new 0 0 125.6 160.8;" xml:space="preserve">
<style type="text/css">
	.st0{fill:#FFFFFF;}
</style>
<path class="st0" d="M83.1,56.8c1.4,0,2.5-1.1,2.5-2.5V46c0-1.4-1.1-2.5-2.5-2.5s-2.5,1.1-2.5,2.5v8.2
	C80.6,55.6,81.7,56.8,83.1,56.8z"/>
<path class="st0" d="M91.6,63.8c0,1.4,1.1,2.5,2.5,2.5h8.2c1.4,0,2.5-1.1,2.5-2.5s-1.1-2.5-2.5-2.5h-8.2
	C92.7,61.3,91.6,62.4,91.6,63.8z"/>
<path class="st0" d="M91.3,59c0.6,0,1.3-0.2,1.8-0.7l5.8-5.8c1-1,1-2.6,0-3.5c-1-1-2.6-1-3.5,0l-5.8,5.8c-1,1-1,2.6,0,3.5
	C90,58.8,90.6,59,91.3,59z"/>
<path class="st0" d="M43.1,56.8c1.4,0,2.5-1.1,2.5-2.5V46c0-1.4-1.1-2.5-2.5-2.5s-2.5,1.1-2.5,2.5v8.2
	C40.6,55.6,41.7,56.8,43.1,56.8z"/>
<path class="st0" d="M34.6,63.8c0-1.4-1.1-2.5-2.5-2.5h-8.2c-1.4,0-2.5,1.1-2.5,2.5s1.1,2.5,2.5,2.5h8.2
	C33.5,66.3,34.6,65.2,34.6,63.8z"/>
<path class="st0" d="M33.1,58.3c0.5,0.5,1.1,0.7,1.8,0.7s1.3-0.2,1.8-0.7c1-1,1-2.6,0-3.5L30.9,49c-1-1-2.6-1-3.5,0
	c-1,1-1,2.6,0,3.5L33.1,58.3z"/>
<path class="st0" d="M116.4,28.9c-34.1,0-49.8-21.5-50.5-22.4S64.2,5,63,5l0,0c-1.1,0-2.2,0.6-2.9,1.5C59.4,7.4,43.7,28.9,9.6,28.9
	c-1.9,0-3.5,1.6-3.5,3.5V91c0,32.4,32.9,57,55.1,63.3c0.6,0.2,1.1,0.2,1.7,0.1c0.2,0,0.5,0.1,0.7,0.1c0.3,0,0.6,0,1-0.1
	c22.2-6.4,55.1-30.9,55.1-63.3V32.4C119.9,30.5,118.3,28.9,116.4,28.9z M112.9,91c0,29.7-32.3,51.4-49.8,56.5
	c-17.5-5.1-49.8-26.8-49.8-56.5V35.9C40.8,34.8,57,20.7,63.1,14.1c6.1,6.7,22.3,20.7,49.8,21.8V91z"/>
<path class="st0" d="M83.1,60.3H63.3c-0.1,0-0.2,0-0.2,0c-0.1,0-0.2,0-0.2,0H43.1c-1.1,0-2.2,0.6-2.9,1.5L26.6,81.2l0,0
	c0,0.1-0.1,0.1-0.1,0.2c-0.1,0.1-0.2,0.3-0.2,0.4s-0.1,0.1-0.1,0.2s-0.1,0.3-0.1,0.4s0,0.1,0,0.2c0,0.2,0,0.3,0,0.5v0.1l0,0
	c0,0.2,0,0.4,0.1,0.6v0.1c0,0.2,0.1,0.3,0.1,0.5c0,0.1,0.1,0.1,0.1,0.2c0.1,0.1,0.1,0.2,0.2,0.3c0,0.1,0.1,0.1,0.1,0.2l0.1,0.1
	L60.1,127c0,0,0,0,0.1,0.1c0.1,0.2,0.3,0.3,0.4,0.4l0.1,0.1c0.2,0.1,0.4,0.3,0.6,0.4c0,0,0.1,0,0.1,0.1c0.2,0.1,0.3,0.1,0.5,0.2
	c0.1,0,0.1,0,0.2,0c0.2,0,0.5,0.1,0.7,0.1c0.1,0,0.2,0,0.2,0c0.1,0,0.2,0,0.2,0c0.2,0,0.5,0,0.7-0.1c0.1,0,0.1,0,0.2,0
	c0.2,0,0.4-0.1,0.5-0.2c0,0,0.1,0,0.1-0.1c0.2-0.1,0.4-0.2,0.6-0.4l0.1-0.1c0.2-0.1,0.3-0.3,0.4-0.4c0,0,0,0,0.1-0.1l33.5-41.7
	l0.1-0.1c0-0.1,0.1-0.1,0.1-0.2c0.1-0.1,0.1-0.2,0.2-0.3c0-0.1,0.1-0.1,0.1-0.2c0.1-0.2,0.1-0.3,0.1-0.5V84c0-0.2,0.1-0.4,0.1-0.6
	l0,0v-0.1c0-0.2,0-0.3,0-0.5c0-0.1,0-0.1,0-0.2s-0.1-0.3-0.1-0.4s-0.1-0.1-0.1-0.2c-0.1-0.1-0.1-0.3-0.2-0.4c0-0.1-0.1-0.1-0.1-0.2
	l0,0L86,61.8C85.3,60.9,84.3,60.3,83.1,60.3z M89.5,86.7l-16.7,20.8l6.9-20.8H89.5z M46.5,86.7l6.9,20.8L36.7,86.7H46.5z
	 M63.1,114.4l-9.2-27.7h9.2h9.2L63.1,114.4z M63.1,79.7h-9l4.5-12.3h4.3c0.1,0,0.2,0,0.2,0c0.1,0,0.2,0,0.2,0h4.3l4.5,12.3H63.1z
	 M44.9,67.3h6.2l-4.5,12.3H36.2L44.9,67.3z M90,79.7H79.6l-4.5-12.3h6.2L90,79.7z"/>
</svg>
