<?xml version="1.0" encoding="utf-8"?>
<!-- Generator: Adobe Illustrator 24.0.1, SVG Export Plug-In . SVG Version: 6.00 Build 0)  -->
<svg version="1.1" id="Слой_1" xmlns="http://www.w3.org/2000/svg" xmlns:xlink="http://www.w3.org/1999/xlink" x="0px" y="0px"
	 viewBox="0 0 56 70" style="enable-background:new 0 0 56 70;" xml:space="preserve">
<style type="text/css">
	.st0{fill:#FFFFFF;}
</style>
<path class="st0" d="M47.7,44.8l-10.9-3.6v-4.3c1.4-1.3,2.4-3,2.9-4.9c0.3-1.1,0.5-1.9,0.6-2.4c1.5,0,2.7-1.1,2.9-2.5l0.7-4.4
	c0.2-1-0.1-2-0.8-2.8c-0.4-0.4-0.9-0.8-1.4-1v-2.6c0.6-0.1,1.1-0.7,1-1.3c-0.1-4.2-2-8.1-5.2-10.8l0-0.3c0-0.4-0.2-0.8-0.5-1
	c-2.5-1.9-5.6-3-8.8-3H27c-2.7,0-5.2,1.3-7.4,2.9c0,0,0,0,0,0c-0.4-0.2-1-0.2-1.3,0.1c-3.3,2.5-5.6,7.4-5.7,12.1
	c0,0.3,0.1,0.7,0.4,0.9c0.2,0.2,0.4,0.3,0.7,0.4v2.6c-0.5,0.2-1,0.5-1.4,1c-0.7,0.8-0.9,1.8-0.8,2.8l0.7,4.4
	c0.2,1.4,1.5,2.5,2.9,2.5c0.1,0.5,0.3,1.3,0.6,2.4c0.5,1.9,1.5,3.6,2.9,4.9v4.3L7.7,44.8c-4.4,1-7.7,5-7.7,9.6v14.4
	C0,69.4,0.6,70,1.3,70l24.1,0c0.7,0,1.3-0.6,1.3-1.3V57.5h2.1v11.2c0,0.7,0.6,1.3,1.3,1.3h17.8c0.7,0,1.3-0.6,1.3-1.3
	c0-0.7-0.6-1.3-1.3-1.3H31.3V57.3l1.3-4.8l3.6,2.5c0.2,0.2,0.5,0.2,0.7,0.2c0.2,0,0.5-0.1,0.7-0.2c0.4-0.3,0.7-0.7,0.6-1.2l-0.7-5.9
	c-0.1-0.7-0.7-1.2-1.4-1.1c-0.7,0.1-1.2,0.7-1.1,1.4l0.4,3.1l-5.4-3.8l5.8-4.1L47,47.2c0,0,0.1,0,0.1,0c3.3,0.7,5.7,3.7,5.7,7.1
	v14.4c0,0.7,0.6,1.3,1.3,1.3c0.7,0,1.3-0.6,1.3-1.3V54.3C55.4,49.7,52.2,45.7,47.7,44.8z M2.5,54.3c0-3.4,2.4-6.4,5.7-7.1
	c0,0,0.1,0,0.1,0l10-3.3l-0.5,4c-0.1,0.7,0.4,1.3,1.1,1.4c0.7,0.1,1.3-0.4,1.4-1.1l0.4-3.8l4.6,3.2l-7.7,5.4c-0.3,0.2-0.5,0.6-0.5,1
	v9.7c0,0.7,0.6,1.3,1.3,1.3c0.7,0,1.3-0.6,1.3-1.3v-9l3-2.1l1.3,4.8v10.1l-21.6,0V54.3z M30.4,51l-1.1,3.9h-3.2L25,51l2.7-1.9
	L30.4,51z M21.1,41.4v-2.8l1.6,0.9c1.5,0.8,3.2,1.2,5,1.2c0.5,0,1,0,1.6-0.1c0.7-0.1,1.2-0.8,1.1-1.4c-0.1-0.7-0.8-1.2-1.4-1.1
	c-1.7,0.3-3.4,0-4.9-0.8l-1.9-1c-1.9-1-3.4-2.8-3.9-5c-0.7-2.7-0.8-3.2-0.8-3.3c-0.1-0.6-0.6-1-1.3-1h-0.9c-0.3,0-0.5-0.2-0.5-0.4
	l-0.7-4.4c-0.1-0.3,0.1-0.6,0.2-0.7c0.1-0.1,0.3-0.3,0.7-0.3c0.7,0,1.3-0.6,1.3-1.3v-4.8c0-0.6-0.4-1.1-1-1.2
	c0.3-2.9,1.6-5.8,3.4-7.8c0.4,0.1,0.8,0.1,1.2-0.2c2.2-1.7,4.7-3.4,7.3-3.4h1.4c2.4,0,4.8,0.7,6.8,2.1l0,0.3c0,0.4,0.2,0.8,0.5,1
	c2.6,2,4.2,4.9,4.6,8.1c-0.6,0.1-1,0.6-1,1.2v4.7c0,0.7,0.6,1.3,1.3,1.3c0.4,0,0.6,0.2,0.7,0.3c0.1,0.1,0.3,0.4,0.2,0.7l-0.7,4.4
	c0,0.2-0.2,0.4-0.5,0.4h-0.9c-0.6,0-1.1,0.4-1.2,1c0,0.1-0.1,0.6-0.8,3.3c-0.6,2.1-2,3.9-3.9,5c-0.6,0.3-0.9,1.1-0.5,1.7
	c0.3,0.5,0.9,0.8,1.4,0.6v2.8L27.7,46L21.1,41.4z"/>
<path class="st0" d="M36.9,57.8c-0.7,0-1.3,0.6-1.3,1.3v4.6c0,0.7,0.6,1.3,1.3,1.3c0.7,0,1.3-0.6,1.3-1.3v-4.6
	C38.2,58.4,37.6,57.8,36.9,57.8z"/>
<path class="st0" d="M29,19.5l-2.1-2.1c-0.3-0.3-0.5-0.8-0.5-1.2c0-0.5,0.2-0.9,0.5-1.2c0.7-0.7,1.8-0.7,2.5,0
	c0.5,0.5,1.3,0.5,1.8,0c0.5-0.5,0.5-1.3,0-1.8c-0.6-0.6-1.4-1-2.2-1.2V9.8c0-0.7-0.6-1.3-1.3-1.3S26.4,9,26.4,9.8v2.5
	c-0.5,0.2-0.9,0.5-1.3,0.9c-0.8,0.8-1.3,1.9-1.3,3s0.4,2.2,1.3,3l2.1,2.1l2.1,2.1c0.3,0.3,0.5,0.8,0.5,1.2c0,0.5-0.2,0.9-0.5,1.2
	c-0.7,0.7-1.8,0.7-2.5,0c0,0,0,0,0,0l-1.1-1.1c-0.5-0.5-1.3-0.5-1.8,0c-0.5,0.5-0.5,1.3,0,1.8l1.1,1.1c0,0,0,0,0,0
	c0.4,0.4,0.8,0.7,1.3,0.9V31c0,0.7,0.6,1.3,1.3,1.3c0.7,0,1.3-0.6,1.3-1.3v-2.2c0.8-0.2,1.6-0.5,2.2-1.2c0.8-0.8,1.3-1.9,1.3-3
	s-0.4-2.2-1.3-3L29,19.5z"/>
</svg>
