<?xml version="1.0" encoding="utf-8"?>
<!-- Generator: Adobe Illustrator 24.0.1, SVG Export Plug-In . SVG Version: 6.00 Build 0)  -->
<svg version="1.1" id="Слой_1" xmlns="http://www.w3.org/2000/svg" xmlns:xlink="http://www.w3.org/1999/xlink" x="0px" y="0px"
	 viewBox="0 0 160 104.5" style="enable-background:new 0 0 160 104.5;" xml:space="preserve">
<style type="text/css">
	.st0{fill:#FFFFFF;}
</style>
<path class="st0" d="M79.3,42.5c9.8,0,17.8-8,17.8-17.8S89.1,7,79.3,7s-17.8,8-17.8,17.8S69.5,42.5,79.3,42.5z M79.3,14
	c5.9,0,10.8,4.8,10.8,10.8c0,5.9-4.8,10.8-10.8,10.8s-10.8-4.8-10.8-10.8C68.5,18.9,73.3,14,79.3,14z"/>
<path class="st0" d="M37.4,42.5c9.8,0,17.8-8,17.8-17.8S47.2,7,37.4,7s-17.8,8-17.8,17.8S27.6,42.5,37.4,42.5z M37.4,14
	c5.9,0,10.8,4.8,10.8,10.8c0,5.9-4.8,10.8-10.8,10.8c-5.9,0-10.8-4.8-10.8-10.8C26.6,18.9,31.5,14,37.4,14z"/>
<path class="st0" d="M121.1,42.5c9.8,0,17.8-8,17.8-17.8S130.9,7,121.1,7s-17.8,8-17.8,17.8S111.3,42.5,121.1,42.5z M121.1,14
	c5.9,0,10.8,4.8,10.8,10.8c0,5.9-4.8,10.8-10.8,10.8s-10.8-4.8-10.8-10.8C110.4,18.9,115.2,14,121.1,14z"/>
<path class="st0" d="M136.6,44.5h-23.2H46.3H23.2c-9.8,0-17.8,8-17.8,17.8v25.5c0,5.5,4.5,10.1,10.1,10.1h128.9
	c5.5,0,10.1-4.5,10.1-10.1V62.2C154.4,52.4,146.4,44.5,136.6,44.5z M12.4,62.2c0-5.9,4.8-10.8,10.8-10.8h23.2h67.1h23.2
	c5.9,0,10.8,4.8,10.8,10.8v25.5c0,1.7-1.4,3.1-3.1,3.1s-3.1-1.4-3.1-3.1V66.1c0-1.9-1.6-3.5-3.5-3.5s-3.5,1.6-3.5,3.5v21.6
	c0,1.1,0.2,2.1,0.5,3.1h-31V66.1c0-1.9-1.6-3.5-3.5-3.5s-3.5,1.6-3.5,3.5v24.6H63V66.1c0-1.9-1.6-3.5-3.5-3.5S56,64.1,56,66.1v24.6
	H25c0.3-1,0.5-2,0.5-3.1V66.1c0-1.9-1.6-3.5-3.5-3.5s-3.5,1.6-3.5,3.5v21.6c0,1.7-1.4,3.1-3.1,3.1s-3.1-1.4-3.1-3.1L12.4,62.2
	L12.4,62.2z"/>
</svg>
