<?xml version="1.0" encoding="utf-8"?>
<!-- Generator: Adobe Illustrator 24.0.1, SVG Export Plug-In . SVG Version: 6.00 Build 0)  -->
<svg version="1.1" id="Слой_1" xmlns="http://www.w3.org/2000/svg" xmlns:xlink="http://www.w3.org/1999/xlink" x="0px" y="0px"
	 viewBox="0 0 160 200" style="enable-background:new 0 0 160 200;" xml:space="preserve">
<style type="text/css">
	.st0{fill:#FFFFFF;}
</style>
<path class="st0" d="M149.6,76.3h-38.4v-9.7c0-10.5-8.6-19.1-19.1-19.1H66.7c-10.5,0-19.1,8.6-19.1,19.1v9.7H9.3
	c-1.9,0-3.5,1.6-3.5,3.5s1.6,3.5,3.5,3.5h5.6v62.6c0,5,4,9,9,9c5,0,9-4,9-9v-43.4H96v48.9c0,1.9,1.6,3.5,3.5,3.5h41
	c1.9,0,3.5-1.6,3.5-3.5V83.3h5.6c1.9,0,3.5-1.6,3.5-3.5S151.5,76.3,149.6,76.3z M54.5,66.7c0-6.7,5.4-12.1,12.1-12.1h25.4
	c6.7,0,12.1,5.5,12.1,12.1v9.7h-4.6v-7.6c0-1.9-1.6-3.5-3.5-3.5c-1.9,0-3.5,1.6-3.5,3.5v7.6H66.1v-7.6c0-1.9-1.6-3.5-3.5-3.5
	c-1.9,0-3.5,1.6-3.5,3.5v7.6h-4.6C54.5,76.3,54.5,66.7,54.5,66.7z M25.9,145.9c0,1.1-0.9,2-2,2c-1.1,0-2-0.9-2-2v-43.4h4V145.9z
	 M137,147.9h-34v-19.2h34V147.9z M137,121.7h-34v-19.2h34V121.7z M137,95.5H21.9V83.3H137V95.5z"/>
<path class="st0" d="M115.2,114.6h9.5c1.4,0,2.5-1.1,2.5-2.5s-1.1-2.5-2.5-2.5h-9.5c-1.4,0-2.5,1.1-2.5,2.5S113.9,114.6,115.2,114.6
	z"/>
<path class="st0" d="M90.6,86.9H68.1c-1.4,0-2.5,1.1-2.5,2.5s1.1,2.5,2.5,2.5h22.5c1.4,0,2.5-1.1,2.5-2.5S92,86.9,90.6,86.9z"/>
<path class="st0" d="M115.2,140.8h9.5c1.4,0,2.5-1.1,2.5-2.5s-1.1-2.5-2.5-2.5h-9.5c-1.4,0-2.5,1.1-2.5,2.5S113.9,140.8,115.2,140.8
	z"/>
<path class="st0" d="M130.9,51.8c12.9,0,23.4-10.5,23.4-23.4S143.8,5.1,130.9,5.1c-12.9,0-23.4,10.5-23.4,23.4
	C107.5,41.3,118,51.8,130.9,51.8z M130.9,12.1c9,0,16.4,7.3,16.4,16.4c0,9-7.3,16.4-16.4,16.4s-16.4-7.3-16.4-16.4
	C114.5,19.4,121.9,12.1,130.9,12.1z"/>
<path class="st0" d="M121.8,30.8l5.8,4.7c0.5,0.4,1,0.6,1.6,0.6c0.7,0,1.4-0.3,1.9-0.8l9.2-10.1c0.9-1,0.8-2.6-0.2-3.5
	c-1-0.9-2.6-0.8-3.5,0.2l-7.6,8.4l-4-3.2c-1.1-0.9-2.7-0.7-3.5,0.4C120.6,28.4,120.8,29.9,121.8,30.8z"/>
<path class="st0" d="M78.7,45.9c10.6,0,19.2-8.6,19.2-19.2S89.2,7.5,78.7,7.5s-19.2,8.6-19.2,19.2S68.1,45.9,78.7,45.9z M78.7,14.5
	c6.7,0,12.2,5.5,12.2,12.2s-5.5,12.2-12.2,12.2c-6.7,0-12.2-5.5-12.2-12.2S72,14.5,78.7,14.5z"/>
</svg>
