<?xml version="1.0" encoding="utf-8"?>
<!-- Generator: Adobe Illustrator 24.0.1, SVG Export Plug-In . SVG Version: 6.00 Build 0)  -->
<svg version="1.1" id="Слой_1" xmlns="http://www.w3.org/2000/svg" xmlns:xlink="http://www.w3.org/1999/xlink" x="0px" y="0px"
	 viewBox="0 0 52 70" style="enable-background:new 0 0 52 70;" xml:space="preserve">
<style type="text/css">
	.st0{fill:#FFFFFF;}
</style>
<path class="st0" d="M9.2,10.2h33.1c0.6,0,1.2-0.5,1.2-1.2c0-0.6-0.5-1.2-1.2-1.2H9.2C8.6,7.9,8.1,8.4,8.1,9
	C8.1,9.7,8.6,10.2,9.2,10.2z"/>
<path class="st0" d="M9.2,17.9h6.1c0.6,0,1.2-0.5,1.2-1.2c0-0.6-0.5-1.2-1.2-1.2H9.2c-0.6,0-1.2,0.5-1.2,1.2
	C8.1,17.4,8.6,17.9,9.2,17.9z"/>
<path class="st0" d="M42.3,15.6H20.1c-0.6,0-1.2,0.5-1.2,1.2c0,0.6,0.5,1.2,1.2,1.2h22.3c0.6,0,1.2-0.5,1.2-1.2
	C43.5,16.1,43,15.6,42.3,15.6z"/>
<path class="st0" d="M9.2,25.7h33.1c0.6,0,1.2-0.5,1.2-1.2s-0.5-1.2-1.2-1.2H9.2c-0.6,0-1.2,0.5-1.2,1.2S8.6,25.7,9.2,25.7z"/>
<path class="st0" d="M28.1,32.2c0-0.6-0.5-1.2-1.2-1.2H9.2c-0.6,0-1.2,0.5-1.2,1.2c0,0.6,0.5,1.2,1.2,1.2H27
	C27.6,33.4,28.1,32.9,28.1,32.2z"/>
<path class="st0" d="M29.7,69.9c0.2,0.1,0.4,0.1,0.5,0.1c0.2,0,0.5-0.1,0.7-0.2l4.7-3.4l4.7,3.4c0.4,0.3,0.8,0.3,1.2,0.1
	c0.4-0.2,0.6-0.6,0.6-1V54.5c0.9-0.8,1.7-1.7,2.4-2.8h5.9c0.6,0,1.2-0.5,1.2-1.2V1.2c0-0.6-0.5-1.2-1.2-1.2H1.2C0.5,0,0,0.5,0,1.2
	v36.3c0,0,0,0,0,0c0,0.2,0,0.3,0.1,0.4c0,0,0,0,0,0c0.1,0.1,0.1,0.3,0.3,0.4c0,0,0,0,0,0l13,13c0.1,0.1,0.2,0.2,0.4,0.3c0,0,0,0,0,0
	c0.1,0.1,0.3,0.1,0.4,0.1h12.5c0.6,1.1,1.4,2,2.4,2.8v14.4C29.1,69.3,29.3,69.7,29.7,69.9z M39.8,66.6L36.3,64c-0.4-0.3-1-0.3-1.4,0
	l-3.5,2.5V55.9c1.3,0.6,2.7,0.9,4.2,0.9c1.5,0,2.9-0.3,4.2-0.9L39.8,66.6L39.8,66.6z M13,47.7l-9-9h9V47.7z M15.3,49.3V37.5
	c0-0.6-0.5-1.2-1.2-1.2H2.3v-34h46.9v47h-3.7c0.2-0.9,0.4-1.8,0.4-2.7c0-5.7-4.6-10.3-10.3-10.3c-2.6,0-5.1,1-7,2.8
	c-0.5,0.4-0.5,1.2-0.1,1.6c0.4,0.5,1.2,0.5,1.6,0.1c1.5-1.4,3.4-2.1,5.4-2.1c4.4,0,7.9,3.6,7.9,7.9s-3.6,7.9-7.9,7.9
	s-7.9-3.6-7.9-7.9c0-1,0.2-1.9,0.5-2.8c0.2-0.6-0.1-1.3-0.7-1.5c-0.6-0.2-1.3,0.1-1.5,0.7c-0.4,1.2-0.7,2.4-0.7,3.6
	c0,1,0.1,1.9,0.4,2.7L15.3,49.3L15.3,49.3z"/>
</svg>
