<?xml version="1.0" encoding="utf-8"?>
<!-- Generator: Adobe Illustrator 24.0.1, SVG Export Plug-In . SVG Version: 6.00 Build 0)  -->
<svg version="1.1" id="Слой_1" xmlns="http://www.w3.org/2000/svg" xmlns:xlink="http://www.w3.org/1999/xlink" x="0px" y="0px"
	 viewBox="0 0 160 200" style="enable-background:new 0 0 160 200;" xml:space="preserve">
<style type="text/css">
	.st0{fill:#FFFFFF;}
</style>
<path class="st0" d="M79.4,70.2c9.8,0,17.8-8,17.8-17.8s-8-17.8-17.8-17.8s-17.8,8-17.8,17.8S69.6,70.2,79.4,70.2z M79.4,41.6
	c5.9,0,10.8,4.8,10.8,10.8c0,5.9-4.8,10.8-10.8,10.8s-10.8-4.8-10.8-10.8C68.6,46.5,73.4,41.6,79.4,41.6z"/>
<path class="st0" d="M37.5,70.2c9.8,0,17.8-8,17.8-17.8s-8-17.8-17.8-17.8s-17.8,8-17.8,17.8S27.7,70.2,37.5,70.2z M37.5,41.6
	c5.9,0,10.8,4.8,10.8,10.8c0,5.9-4.8,10.8-10.8,10.8c-5.9,0-10.8-4.8-10.8-10.8C26.7,46.5,31.6,41.6,37.5,41.6z"/>
<path class="st0" d="M121.2,70.2c9.8,0,17.8-8,17.8-17.8s-8-17.8-17.8-17.8s-17.8,8-17.8,17.8S111.4,70.2,121.2,70.2z M121.2,41.6
	c5.9,0,10.8,4.8,10.8,10.8c0,5.9-4.8,10.8-10.8,10.8s-10.8-4.8-10.8-10.8C110.5,46.5,115.3,41.6,121.2,41.6z"/>
<path class="st0" d="M136.7,72.1h-23.2H46.4H23.3c-9.8,0-17.8,8-17.8,17.8v25.5c0,5.5,4.5,10.1,10.1,10.1h128.9
	c5.5,0,10.1-4.5,10.1-10.1V89.8C154.5,80,146.5,72.1,136.7,72.1z M12.5,89.8c0-5.9,4.8-10.8,10.8-10.8h23.2h67.1h23.2
	c5.9,0,10.8,4.8,10.8,10.8v25.5c0,1.7-1.4,3.1-3.1,3.1s-3.1-1.4-3.1-3.1V93.7c0-1.9-1.6-3.5-3.5-3.5s-3.5,1.6-3.5,3.5v21.6
	c0,1.1,0.2,2.1,0.5,3.1h-31V93.7c0-1.9-1.6-3.5-3.5-3.5s-3.5,1.6-3.5,3.5v24.6H63.1V93.7c0-1.9-1.6-3.5-3.5-3.5s-3.5,1.6-3.5,3.5
	v24.6h-31c0.3-1,0.5-2,0.5-3.1V93.7c0-1.9-1.6-3.5-3.5-3.5s-3.5,1.6-3.5,3.5v21.6c0,1.7-1.4,3.1-3.1,3.1s-3.1-1.4-3.1-3.1L12.5,89.8
	L12.5,89.8z"/>
</svg>
