<?xml version="1.0" encoding="utf-8"?>
<!-- Generator: Adobe Illustrator 24.0.1, SVG Export Plug-In . SVG Version: 6.00 Build 0)  -->
<svg version="1.1" id="Слой_1" xmlns="http://www.w3.org/2000/svg" xmlns:xlink="http://www.w3.org/1999/xlink" x="0px" y="0px"
	 viewBox="0 0 160 200" style="enable-background:new 0 0 160 200;" xml:space="preserve">
<style type="text/css">
	.st0{fill:#FFFFFF;}
</style>
<path class="st0" d="M80.2,36.4c-24.2,0-43.8,19.7-43.8,43.8c0,24.2,19.7,43.8,43.8,43.8c24.2,0,43.8-19.7,43.8-43.8
	C124.1,56.1,104.4,36.4,80.2,36.4z M88.1,49.6l0.3-0.5c0.1-0.2,0.3-0.3,0.6-0.3h2.5c1.2,0,2.4-0.4,3.3-1.1l1.2-0.8
	c2.7,1.3,5.2,2.9,7.6,4.8l-8.2-2.1c-0.9-0.2-2-0.2-2.9,0l-3.5,1c-0.1,0-0.3,0-0.4,0c-0.2-0.1-0.3-0.3-0.4-0.4S88,49.8,88.1,49.6z
	 M68.9,45.2l7.6,3.3l-0.6,1.7h-3.5c-1.9,0-3.7,1.1-4.6,2.9l-0.7,1.4c-1,2.2-2.8,4-5,5.2l-0.4,0.2c-1.2,0.6-2.4,1-3.8,1.2l-4.8,0.6
	c-2.5,0.3-4.4,2.5-4.4,5v0.7c0,1.1,0.3,2.1,1,3l1.3,1.8L50.2,74l-5.1-5C48.8,57.7,57.7,48.8,68.9,45.2z M65.4,107.3v2.5
	c0,0,0,0.1-0.1,0.1c0,0-0.1,0-0.2,0l-2.3-5.2V93.1c0-2.4-1.7-4.5-4.1-5l-3.3-0.7c0,0-0.1,0-0.1-0.1l-2.1-3.9
	c-0.3-0.5-0.4-1.1-0.4-1.7c0-1,0.4-1.9,1.1-2.6l2.5-2.3c0,0,0,0,0,0c0,0,0,0,0.1,0c0,0,0,0,0,0c0.1,0,0.1,0,0.1,0.1l0.8,1.4
	c0.9,1.6,2.6,2.5,4.4,2.5H69c0,0,0.1,0,0.1,0.1l2.3,4.1c0.9,1.6,2.6,2.7,4.5,2.7h1.8c0.1,0,0.1,0.1,0.1,0.1v3.8c0,0,0,0.1-0.1,0.1
	l-3.6,1.9c-1.7,0.9-2.7,2.6-2.7,4.5v2.6c0,0,0,0.1-0.1,0.1l-3.5,2.1C66.3,103.8,65.4,105.5,65.4,107.3z M43.4,80.2
	c0-1.9,0.1-3.8,0.4-5.6l4.5,4.5c-0.3,0.9-0.5,1.8-0.5,2.7c0,1.4,0.4,2.8,1,4l2.1,3.9c0.7,1.3,2,2.3,3.5,2.6l3.3,0.7
	c0.1,0,0.1,0.1,0.1,0.1v11.6c0,0.7,0.1,1.4,0.4,2.1l1.9,4.3C50.1,104.6,43.4,93.2,43.4,80.2z M80.2,117.1c-4.6,0-9.1-0.9-13.2-2.4
	c0.4-0.2,0.8-0.4,1.2-0.6c1.3-1,2.1-2.5,2.1-4.1v-2.5c0,0,0-0.1,0.1-0.1l3.5-2.1c1.5-0.9,2.5-2.6,2.5-4.4v-2.6c0,0,0-0.1,0.1-0.1
	l3.6-1.9c1.7-0.9,2.7-2.6,2.7-4.5v-3.8c0-2.8-2.3-5.1-5.1-5.1h-1.8c0,0-0.1,0-0.1-0.1l-2.3-4.1c-0.9-1.6-2.6-2.7-4.5-2.7h-7.1
	c0,0-0.1,0-0.1-0.1L61,74.5c-0.8-1.3-2.1-2.2-3.7-2.5c-0.5-0.1-0.9-0.1-1.3,0c0-1-0.3-2-0.9-2.8l-1.4-1.9l0-0.7l4.8-0.6
	c1.9-0.2,3.7-0.8,5.4-1.7l0.4-0.2c3.1-1.6,5.7-4.3,7.2-7.5l0.7-1.5h3.5c2.1,0,4-1.3,4.8-3.4l0.6-1.6c0.9-2.5-0.3-5.3-2.8-6.4
	l-0.7-0.3c0.8-0.1,1.6-0.1,2.5-0.1c2.4,0,4.8,0.2,7.1,0.7c-1.3,0.4-2.4,1.2-3.1,2.3l-0.3,0.5c-0.9,1.4-1.2,3.2-0.7,4.8
	c0.5,1.6,1.7,2.9,3.3,3.6c1.2,0.5,2.5,0.6,3.7,0.2l3.5-1c0.1,0,0.2,0,0.3,0l9.1,2.3c0.5,0.1,0.9,0.2,1.4,0.2c1,0,1.9-0.2,2.8-0.7
	l0.6-0.3c1.2,1.4,2.4,2.9,3.4,4.5l-5.7,2.3c-0.5,0.2-1.1,0.3-1.7,0.1l-4.4-0.9c-0.7-0.2-1.4-0.6-1.8-1.2c-1.5-2.2-3.9-3.5-6.5-3.5
	h-2.6c-2.4,0-4.7,0.9-6.4,2.5c-2.4,2.2-3.5,5.4-2.9,8.6l0.5,2.9c0.4,2.5,2,4.6,4.3,5.7l5.1,2.5c1.7,0.8,3.6,1,5.5,0.5l1.8-0.5
	c0.8-0.2,1.6-0.1,2.3,0.4l0.3,0.2c1.1,0.7,1.5,2,1.1,3.2l-0.4,1.2c-0.6,2-0.4,4.1,0.6,5.9l7.5,14.2
	C101.1,112.2,91.2,117.1,80.2,117.1z M111.2,100.2L104.7,88c-0.4-0.7-0.4-1.4-0.2-2.2l0.4-1.2c1-3.3-0.3-6.9-3.2-8.8l-0.3-0.2
	c-1.9-1.2-4.2-1.6-6.4-1.1l-1.8,0.5c-0.7,0.2-1.4,0.1-2-0.2l-5.1-2.5c-0.8-0.4-1.4-1.2-1.6-2.1l-0.5-2.9c-0.3-1.5,0.3-3,1.4-4.1
	c0.8-0.8,1.9-1.2,3-1.2h2.6c1,0,1.8,0.5,2.4,1.3c1.2,1.7,2.9,2.9,4.9,3.3l4.4,0.9c1.5,0.3,3.1,0.2,4.5-0.4l6.3-2.5
	c2.2,4.7,3.4,9.9,3.4,15.5C117.1,87.6,114.9,94.4,111.2,100.2z"/>
<path class="st0" d="M151,62.6h-14.2c-1.1-3.6-2.6-7.1-4.4-10.4l10.1-10.1c0.7-0.7,1-1.5,1-2.5c0-0.9-0.4-1.8-1-2.5l-19.7-19.7
	c-1.4-1.4-3.6-1.4-4.9,0l-10.3,10.3c-3.3-1.7-6.7-3.1-10.2-4.2V9c0-1.9-1.6-3.5-3.5-3.5H66.1c-1.9,0-3.5,1.6-3.5,3.5v14.7
	c-3.5,1.1-6.8,2.5-10.1,4.2L42.1,17.5c-1.3-1.3-3.6-1.3-5,0L17.5,37.2c-1.4,1.4-1.4,3.6,0,4.9l10.4,10.4c-1.7,3.2-3.1,6.6-4.2,10.1
	H9c-1.9,0-3.5,1.6-3.5,3.5v27.8c0,1.9,1.6,3.5,3.5,3.5h14.6c1.1,3.5,2.5,6.9,4.2,10.2l-10.3,10.3c-1.4,1.4-1.4,3.6,0,4.9l19.7,19.7
	c1.3,1.3,3.6,1.3,5,0l10.1-10.1c3.3,1.8,6.8,3.2,10.4,4.4V151c0,1.9,1.6,3.5,3.5,3.5h27.8c1.9,0,3.5-1.6,3.5-3.5v-14.1
	c3.6-1.1,7.2-2.6,10.5-4.3l10,10c1.3,1.3,3.6,1.3,4.9,0l19.7-19.7c0.7-0.7,1-1.5,1-2.5c0-0.9-0.4-1.8-1-2.5l-10-10
	c1.8-3.4,3.2-6.9,4.3-10.5H151c1.9,0,3.5-1.6,3.5-3.5V66.1C154.5,64.2,152.9,62.6,151,62.6z M147.5,90.4h-13.2c-1.6,0-3,1.1-3.4,2.6
	c-1.2,4.8-3.1,9.4-5.7,13.7c-0.8,1.4-0.6,3.1,0.5,4.3l9.4,9.4l-14.7,14.7l-9.4-9.4c-1.1-1.1-2.9-1.4-4.3-0.5
	c-4.3,2.5-8.9,4.4-13.7,5.6c-1.6,0.4-2.6,1.8-2.6,3.4v13.3H69.6v-13.4c0-1.6-1.1-3-2.6-3.4c-4.8-1.2-9.3-3.2-13.5-5.7
	c-1.4-0.8-3.1-0.6-4.3,0.5l-9.5,9.5l-14.7-14.7l9.7-9.7c1.1-1.1,1.3-2.9,0.5-4.2c-2.5-4.2-4.3-8.7-5.5-13.4
	c-0.4-1.6-1.8-2.6-3.4-2.6H12.5V69.6h13.8c1.6,0,3-1.1,3.4-2.6c1.2-4.6,3.1-9.1,5.5-13.3c0.8-1.4,0.6-3.1-0.5-4.3l-9.8-9.8
	l14.7-14.7l9.8,9.8c1.1,1.1,2.9,1.3,4.3,0.5c4.2-2.5,8.6-4.3,13.3-5.5c1.5-0.4,2.6-1.8,2.6-3.4V12.5h20.8v13.7c0,1.6,1.1,3,2.6,3.4
	c4.7,1.2,9.2,3,13.4,5.5c1.4,0.8,3.1,0.6,4.2-0.5l9.6-9.6l14.7,14.7l-9.5,9.5c-1.1,1.1-1.4,2.9-0.5,4.3c2.5,4.2,4.5,8.8,5.7,13.5
	c0.4,1.5,1.8,2.6,3.4,2.6h13.4L147.5,90.4L147.5,90.4z"/>
</svg>
