<?xml version="1.0" encoding="utf-8"?>
<!-- Generator: Adobe Illustrator 24.0.1, SVG Export Plug-In . SVG Version: 6.00 Build 0)  -->
<svg version="1.1" id="Слой_1" xmlns="http://www.w3.org/2000/svg" xmlns:xlink="http://www.w3.org/1999/xlink" x="0px" y="0px"
	 viewBox="0 0 160 200" style="enable-background:new 0 0 160 200;" xml:space="preserve">
<style type="text/css">
	.st0{fill:#FFFFFF;}
</style>
<path class="st0" d="M154,98.6c0-0.1-0.1-0.1-0.1-0.2c0,0,0-0.1-0.1-0.1c-1.1-2.5-3.6-4.2-6.5-4.2h-10.9v-2c0-4-3.2-7.2-7.2-7.2H109
	c-3.9,0-7.2,3.2-7.2,7.2v2H90.9c-1.4,0-2.8,0.4-3.9,1.2c-1.1,0.7-2,1.8-2.6,3c0,0,0,0.1-0.1,0.1c0,0.1-0.1,0.1-0.1,0.2
	c-0.3,0.8-0.5,1.7-0.5,2.6v41.3c0,0,0,0,0,0.1h-7.7c2.3-10.9,4.2-30.2,4.7-40.1v-1.3c0-1.2,0.2-2.3,0.7-3.4c0-0.1,0.1-0.2,0.1-0.3
	l0.1-0.2c0.3-0.7,0.7-1.3,1.1-1.8L79,94.2v-8c3.4-2.9,5.9-6.8,7-11.2c0.5-1.8,0.8-3.1,1.1-4.1c3-0.4,5.4-2.7,5.9-5.8l1.4-8.7
	c0.3-2.3-0.3-4.5-1.8-6.3c-0.4-0.5-0.9-0.9-1.4-1.3c0.7-2.4,1.1-4.9,1.1-7.5v-0.1C92,32.9,88.4,25,82.1,19.5v-0.2
	c0-1.1-0.5-2.1-1.3-2.7c-5.1-4-11.4-6.1-17.7-6.1h-2.7C55,10.5,50.1,13,45.8,16c-1.1-0.3-2.3-0.1-3.2,0.6
	c-6.6,5.2-11.2,15.1-11.4,24.8c0,2.5,0.4,5,1.1,7.5c-0.5,0.4-1,0.8-1.5,1.3c-1.5,1.7-2.1,4-1.8,6.3l1.4,8.7c0.5,3.1,2.9,5.4,5.9,5.8
	c0.2,1,0.6,2.3,1,4.1c1.1,4.4,3.6,8.3,7,11.2v7.9l-23.1,6.6c-9.1,1.9-15.7,10.2-15.7,19.6V146c0,1.9,1.6,3.5,3.5,3.5l81.4,0.1
	c0.2,0,0.3,0,0.5,0h56.5c3.9,0,7.1-3.2,7.1-7.1v-41.3C154.5,100.2,154.3,99.3,154,98.6z M44.3,24.6c0.9,0.1,1.8-0.1,2.6-0.7
	c3.8-3,8.8-6.5,13.4-6.5H63c4.3,0,8.5,1.3,12.1,3.7v0c0,1.1,0.5,2.1,1.3,2.7c5.4,4.2,8.6,10.6,8.7,17.5c0,1-0.1,1.9-0.2,2.8l-2.5-4
	c-0.8-1.3-2.5-2-4-1.5c-5.5,1.7-11.4,0.7-16.1-2.6l-5.1-3.6c-1.4-1-3.3-0.8-4.5,0.4l-1.4,1.4c-1.9,1.9-4.6,2.6-7.1,1.9
	c-1.7-0.5-3.4,0.3-4.2,1.9l-1.8,4.1c0-0.3,0-0.6,0-0.9C38.3,35.3,40.7,28.9,44.3,24.6z M12.5,142.4v-22c0-6.2,4.3-11.6,10.3-12.8
	c0.1,0,0.2,0,0.2-0.1l19.5-5.6c0.5,9.7,2.5,29.4,4.8,40.4L12.5,142.4z M54.8,142.5h-0.4c-1.5-6.6-3-18.1-3.9-27.9L53,113l3.2,5.4
	C55.2,126.3,54.8,134.4,54.8,142.5z M50,109c-0.3-4-0.5-7.4-0.6-9.5c0.1-0.1,0.1-0.2,0.2-0.2l7.6,5.1L50,109z M51.3,94.4v-3.8
	l0.2,0.1c3.2,1.7,6.6,2.6,10.1,2.6c3.5,0,7-0.9,10.1-2.6l0.2-0.1v3.8l-10.3,6.9L51.3,94.4z M59.8,142.5c0-7.4,0.3-14.8,1.2-22.2h1.3
	c0.8,7.4,1.3,14.8,1.2,22.2H59.8z M63.1,115.3h-2.9l-3-5.1l4.5-2.9l4.5,2.9L63.1,115.3z M68.9,142.5h-0.4c0.1-8.1-0.4-16.2-1.4-24.2
	l3.2-5.4l2.5,1.7C71.9,124.4,70.5,135.9,68.9,142.5z M73.4,109l-7.2-4.7l7.6-5.1c0.1,0.1,0.1,0.1,0.2,0.2
	C73.9,101.6,73.7,104.9,73.4,109z M72.1,82.6l-3.7,2c-4.2,2.3-9.3,2.3-13.5,0l-3.7-2c-3.5-1.9-6.1-5.3-7.1-9.2
	c-1.4-5.2-1.6-6.2-1.6-6.4c-0.3-1.7-1.8-2.9-3.5-2.9l-1.7,0.1l-1.3-8.7c0-0.2,0-0.3,0-0.4c0.1,0,0.2,0.1,0.3,0.2
	c0.5,0.2,1,0.3,1.4,0.3c1.3,0,2.6-0.8,3.2-2.1l4.5-9.9c3.7,0.2,7.4-1,10.2-3.5l2.8,1.9c5.8,4,12.7,5.5,19.5,4.2l4.8,7.7
	c1,1.6,3.1,2.1,4.7,1.2c0,0.1,0.1,0.2,0,0.4l-1.3,8.6h-1.7c-1.7,0-3.1,1.2-3.4,2.8c0,0.2-0.3,1.2-1.6,6.4
	C78.2,77.3,75.7,80.7,72.1,82.6z M108.8,92c0-0.1,0.1-0.2,0.2-0.2h20.4c0.1,0,0.2,0.1,0.2,0.2v2h-20.7V92z M147.5,142.4
	C147.5,142.5,147.5,142.5,147.5,142.4l-56.6,0.1c-0.1,0-0.1,0-0.1-0.1v-17.3c2.7,2,6.1,3.1,9.7,3.1c0.1,2.4,2.1,4.4,4.6,4.4h1.7
	c2.5,0,4.5-2,4.6-4.4h15.6c0.1,2.4,2.1,4.4,4.6,4.4h1.7c2.5,0,4.5-2,4.6-4.4c3.6,0,7-1.2,9.7-3.1V142.4z M105.5,127.7v-5.8h0.9v5.8
	H105.5z M131.9,127.7v-5.8h0.9v5.8H131.9z M147.5,111.6c0,5.3-4.4,9.7-9.7,9.7c-0.1-2.4-2.1-4.4-4.6-4.4h-1.7
	c-2.5,0-4.5,1.9-4.6,4.4h-15.6c-0.1-2.4-2.1-4.4-4.6-4.4h-1.7c-2.5,0-4.5,1.9-4.6,4.4c-5.4,0-9.7-4.4-9.7-9.7v-10.4
	c0-0.1,0-0.1,0.1-0.1h56.5c0.1,0,0.1,0,0.1,0.1V111.6z"/>
</svg>
