<?xml version="1.0" encoding="utf-8"?>
<!-- Generator: Adobe Illustrator 24.0.1, SVG Export Plug-In . SVG Version: 6.00 Build 0)  -->
<svg version="1.1" id="Слой_1" xmlns="http://www.w3.org/2000/svg" xmlns:xlink="http://www.w3.org/1999/xlink" x="0px" y="0px"
	 viewBox="0 0 59 70" style="enable-background:new 0 0 59 70;" xml:space="preserve">
<style type="text/css">
	.st0{fill:#FFFFFF;}
</style>
<path class="st0" d="M19.1,14c1.2,0,2.1-0.9,2.1-2.1s-0.9-2.1-2.1-2.1s-2.1,0.9-2.1,2.1S18,14,19.1,14z"/>
<path class="st0" d="M57.1,33.1H43c-0.1-0.4-0.2-0.9-0.3-1.3h7.9c3.8,0,3.8-5,0-5H44l-7-10.9c-1.6-2.4-4.2-2.6-4.2-2.6h-1.1
	c-0.5,0.2-1,0.4-1.5,0.5c0,0-0.1,0-0.1,0c-0.2,0-0.4,0.1-0.7,0.1c-0.1,0-0.1,0-0.2,0c-0.3,0-0.5,0-0.8,0c-0.3,0-0.5,0-0.8,0
	c-0.1,0-0.2,0-0.2,0c-0.2,0-0.4-0.1-0.6-0.1c-0.1,0-0.1,0-0.2,0c-0.5-0.1-1-0.3-1.5-0.5h-0.9c0,0-2.4,0.1-4,2.2
	c-0.3-0.1-0.7-0.2-1.1-0.2c-2.1,0-3.8,2.1-4.1,4.2h-2.3V9.1h8.4c-0.3-0.7-0.5-1.5-0.5-2.3H10.4v15.1h5.7l-3.2,4.9h-2.8
	c-3.8,0-3.8,5,0,5h3.7c-0.1,0.4-0.2,0.9-0.3,1.3H1.2c-0.6,0-1.2,0.5-1.2,1.2c0,0.6,0.5,1.2,1.2,1.2h12.1c-0.2,1.2-0.2,2.4-0.2,3.5
	c0,4.5,0.6,10.1,4.9,13.5l0.3,0.3h9v9.2H20l-0.3,1.9c-1.7,0.1-3,1.5-3,3.1c0,1.7,1.4,3.1,3.1,3.1c1.7,0,3.1-1.4,3.1-3.1
	c0-0.9-0.4-1.8-1.1-2.4l0.1-0.3h4.8c-0.9,0.6-1.5,1.5-1.5,2.7c0,1.7,1.4,3.1,3.1,3.1s3.1-1.4,3.1-3.1c0-1.1-0.6-2.1-1.5-2.7h4.9
	l0,0.2c-0.7,0.6-1.2,1.5-1.2,2.5c0,1.7,1.4,3.1,3.1,3.1c1.7,0,3.1-1.4,3.1-3.1c0-1.6-1.2-2.9-2.8-3.1l-0.3-1.9h-7.3v-9.2h8.6
	l0.3-0.2c4.6-3.5,5.2-9,5.2-13.5c0-1.1-0.1-2.3-0.2-3.5h13.7c0.6,0,1.2-0.5,1.2-1.2C58.3,33.6,57.8,33.1,57.1,33.1z M19.8,67.7
	c-0.4,0-0.8-0.4-0.8-0.8c0-0.4,0.4-0.8,0.8-0.8c0.4,0,0.8,0.4,0.8,0.8C20.6,67.3,20.2,67.7,19.8,67.7z M36.8,66.1
	c0.4,0,0.8,0.4,0.8,0.8c0,0.4-0.4,0.8-0.8,0.8S36,67.3,36,66.9C36,66.4,36.4,66.1,36.8,66.1z M28.3,67.7c-0.4,0-0.8-0.4-0.8-0.8
	c0-0.4,0.4-0.8,0.8-0.8c0.4,0,0.8,0.4,0.8,0.8C29.1,67.3,28.7,67.7,28.3,67.7z M37.3,50.3H19c-2.6-2.2-3.7-5.7-3.7-11.4
	c0-4.5,1.5-10.3,3.7-15c1.5-3.1,4.7-8.3,9.3-8.3c4.5,0,7.8,5.2,9.3,8.3c2.2,4.6,3.7,10.5,3.7,15C41.3,44.6,40.1,48,37.3,50.3z"/>
<path class="st0" d="M28.4,12.5c3.4,0,6.2-2.8,6.2-6.2c0-3.4-2.8-6.2-6.2-6.2s-6.2,2.8-6.2,6.2C22.1,9.7,24.9,12.5,28.4,12.5z"/>
<path class="st0" d="M21.3,47c-0.6,0-1.2-0.5-1.2-1.2V27.1c0-0.6,0.5-1.2,1.2-1.2c0.6,0,1.2,0.5,1.2,1.2v18.7
	C22.5,46.4,21.9,47,21.3,47z"/>
<path class="st0" d="M28.4,47c-0.6,0-1.2-0.5-1.2-1.2V27.1c0-0.6,0.5-1.2,1.2-1.2c0.6,0,1.2,0.5,1.2,1.2v18.7
	C29.5,46.4,29,47,28.4,47z"/>
<path class="st0" d="M35.5,47c-0.6,0-1.2-0.5-1.2-1.2V27.1c0-0.6,0.5-1.2,1.2-1.2c0.6,0,1.2,0.5,1.2,1.2v18.7
	C36.6,46.4,36.1,47,35.5,47z"/>
<path class="st0" d="M31.9,21.9H25c-0.6,0-1.2-0.5-1.2-1.2s0.5-1.2,1.2-1.2h6.8c0.6,0,1.2,0.5,1.2,1.2S32.5,21.9,31.9,21.9z"/>
</svg>
