<?xml version="1.0" encoding="utf-8"?>
<!-- Generator: Adobe Illustrator 24.0.1, SVG Export Plug-In . SVG Version: 6.00 Build 0)  -->
<svg version="1.1" id="Слой_1" xmlns="http://www.w3.org/2000/svg" xmlns:xlink="http://www.w3.org/1999/xlink" x="0px" y="0px"
	 viewBox="0 0 70 70" style="enable-background:new 0 0 70 70;" xml:space="preserve">
<style type="text/css">
	.st0{fill:#FFFFFF;}
</style>
<path class="st0" d="M33.8,4.7h-2.3V7h2.3V4.7z"/>
<path class="st0" d="M38.5,4.7h-2.3V7h2.3V4.7z"/>
<path class="st0" d="M33.8,9.3h-2.3v2.3h2.3V9.3z"/>
<path class="st0" d="M38.5,9.3h-2.3v2.3h2.3V9.3z"/>
<path class="st0" d="M33.8,14h-2.3v2.3h2.3V14z"/>
<path class="st0" d="M38.5,14h-2.3v2.3h2.3V14z"/>
<path class="st0" d="M33.8,18.7h-2.3V21h2.3V18.7z"/>
<path class="st0" d="M38.5,18.7h-2.3V21h2.3V18.7z"/>
<path class="st0" d="M33.8,23.3h-2.3v2.3h2.3V23.3z"/>
<path class="st0" d="M38.5,23.3h-2.3v2.3h2.3V23.3z"/>
<path class="st0" d="M47.8,23.3h-2.3v2.3h2.3V23.3z"/>
<path class="st0" d="M47.8,28h-2.3v2.3h2.3V28z"/>
<path class="st0" d="M47.8,32.7h-2.3V35h2.3V32.7z"/>
<path class="st0" d="M47.8,37.3h-2.3v2.3h2.3V37.3z"/>
<path class="st0" d="M24.5,23.3h-2.3v2.3h2.3V23.3z"/>
<path class="st0" d="M24.5,28h-2.3v2.3h2.3V28z"/>
<path class="st0" d="M24.5,32.7h-2.3V35h2.3V32.7z"/>
<path class="st0" d="M24.5,37.3h-2.3v2.3h2.3V37.3z"/>
<path class="st0" d="M68.8,11.7h-1.2V8.2c0-0.3-0.1-0.6-0.3-0.8C67.1,7.1,66.8,7,66.5,7H53.7c-0.3,0-0.6,0.1-0.8,0.3
	c-0.2,0.2-0.3,0.5-0.3,0.8v3.5h-1.2c-0.3,0-0.6,0.1-0.8,0.3s-0.3,0.5-0.3,0.8v5.8h-2.3V8.2c0-0.3-0.1-0.6-0.3-0.8S47,7,46.7,7h-3.5
	V1.2c0-0.3-0.1-0.6-0.3-0.8C42.6,0.1,42.3,0,42,0H28c-0.3,0-0.6,0.1-0.8,0.3c-0.2,0.2-0.3,0.5-0.3,0.8V7h-3.5
	c-0.3,0-0.6,0.1-0.8,0.3s-0.3,0.5-0.3,0.8v10.5h-2.3v-5.8c0-0.3-0.1-0.6-0.3-0.8s-0.5-0.3-0.8-0.3h-1.2V8.2c0-0.3-0.1-0.6-0.3-0.8
	S16.6,7,16.3,7H3.5C3.2,7,2.9,7.1,2.7,7.3S2.3,7.9,2.3,8.2v3.5H1.2c-0.3,0-0.6,0.1-0.8,0.3C0.1,12.2,0,12.5,0,12.8v25.7h2.3V14h15.2
	v15.2h2.3V21h7v7h2.3V2.3h11.7V28h2.3v-7h7v14h2.3V14h15.2v24.5H70V12.8c0-0.3-0.1-0.6-0.3-0.8C69.4,11.8,69.1,11.7,68.8,11.7z
	 M4.7,11.7V9.3h10.5v2.3H4.7z M24.5,18.7V9.3h2.3v9.3H24.5z M43.2,18.7V9.3h2.3v9.3H43.2z M54.8,11.7V9.3h10.5v2.3H54.8z"/>
<path class="st0" d="M59.5,16.3h-4.7v2.3h4.7V16.3z"/>
<path class="st0" d="M66.5,16.3h-4.7v2.3h4.7V16.3z"/>
<path class="st0" d="M59.5,21h-4.7v2.3h4.7V21z"/>
<path class="st0" d="M66.5,21h-4.7v2.3h4.7V21z"/>
<path class="st0" d="M64.2,39.7L64.2,39.7c0.7-1,1.2-2.2,1.2-3.5v-2.3c0-1.5-0.6-3-1.7-4.1C62.5,28.6,61,28,59.5,28s-3,0.6-4.1,1.7
	c-1.1,1.1-1.7,2.6-1.7,4.1v2.3c0,1.3,0.4,2.5,1.2,3.5h0c-1.3,0-2.5,0.4-3.6,1.1c-1.1,0.7-1.9,1.7-2.4,2.8l-1.6,3.5l-1.6-3.5
	c-0.5-1.2-1.3-2.2-2.4-2.9s-2.3-1.1-3.6-1.1h0c0.8-1,1.2-2.2,1.2-3.5v-2.3c0-1.5-0.6-3-1.7-4.1C38,28.6,36.5,28,35,28
	s-3,0.6-4.1,1.7c-1.1,1.1-1.7,2.6-1.7,4.1v2.3c0,1.3,0.4,2.5,1.2,3.5h0c-1.3,0-2.5,0.4-3.5,1.1c-1.1,0.7-1.9,1.7-2.4,2.8l-1.6,3.5
	l-1.6-3.5c-0.5-1.2-1.3-2.2-2.4-2.9c-1.1-0.7-2.3-1.1-3.6-1.1h0c0.8-1,1.2-2.2,1.2-3.5v-2.3c0-1.5-0.6-3-1.7-4.1
	C13.5,28.6,12,28,10.5,28s-3,0.6-4.1,1.7c-1.1,1.1-1.7,2.6-1.7,4.1v2.3c0,1.3,0.4,2.5,1.2,3.5h0c-1.5,0-3,0.6-4.1,1.7
	C0.6,42.5,0,44,0,45.5V56c0,0.3,0.1,0.6,0.3,0.8c0.2,0.2,0.5,0.3,0.8,0.3h3.5v10.5H0V70h70v-2.3h-4.7V57.2h3.5
	c0.3,0,0.6-0.1,0.8-0.3c0.2-0.2,0.3-0.5,0.3-0.8V45.5c0-1.5-0.6-3-1.7-4.1C67.2,40.3,65.7,39.7,64.2,39.7z M56,36.2v-2.3
	c0-0.9,0.4-1.8,1-2.5c0.7-0.7,1.5-1,2.5-1s1.8,0.4,2.5,1c0.7,0.7,1,1.5,1,2.5v2.3c0,0.9-0.4,1.8-1,2.5c-0.7,0.7-1.5,1-2.5,1
	s-1.8-0.4-2.5-1C56.4,38,56,37.1,56,36.2z M31.5,36.2v-2.3c0-0.9,0.4-1.8,1-2.5c0.7-0.7,1.5-1,2.5-1s1.8,0.4,2.5,1
	c0.7,0.7,1,1.5,1,2.5v2.3c0,0.9-0.4,1.8-1,2.5c-0.7,0.7-1.5,1-2.5,1s-1.8-0.4-2.5-1C31.9,38,31.5,37.1,31.5,36.2z M7,36.2v-2.3
	c0-0.9,0.4-1.8,1-2.5c0.7-0.7,1.5-1,2.5-1c0.9,0,1.8,0.4,2.5,1c0.7,0.7,1,1.5,1,2.5v2.3c0,0.9-0.4,1.8-1,2.5c-0.7,0.7-1.5,1-2.5,1
	c-0.9,0-1.8-0.4-2.5-1C7.4,38,7,37.1,7,36.2z M11.7,67.7V56H9.3v11.7H7V45.5H4.7v9.3H2.3v-9.3c0-0.9,0.4-1.8,1-2.5
	c0.7-0.7,1.5-1,2.5-1h9.3c0.8,0,1.6,0.2,2.3,0.7c0.7,0.5,1.2,1.1,1.5,1.9l4.8,10.3h-3.3l-4.3-8.7c-0.1-0.2-0.3-0.4-0.5-0.5
	c-0.2-0.1-0.5-0.1-0.8-0.1c-0.3,0.1-0.5,0.2-0.7,0.4c-0.2,0.2-0.3,0.5-0.2,0.7v21H11.7z M26,57.1C26,57.1,26,57.1,26,57.1
	c0.2-0.1,0.2-0.1,0.3-0.1c0.1-0.1,0.2-0.1,0.2-0.2c0,0,0.1-0.1,0.1-0.1c0,0,0,0,0.1-0.1c0,0,0-0.1,0-0.1c0,0,0,0,0-0.1l2.4-5.5v16.7
	H16.3V51.6l2.5,4.9c0.1,0.2,0.2,0.4,0.4,0.5c0.2,0.1,0.4,0.2,0.6,0.2h5.8C25.8,57.2,25.9,57.2,26,57.1z M36.2,67.7V57.2h-2.3v10.5
	h-2.3V45.5c0-0.3-0.1-0.5-0.3-0.7c-0.2-0.2-0.4-0.4-0.7-0.4c-0.3-0.1-0.5,0-0.8,0.1c-0.2,0.1-0.4,0.3-0.5,0.6l-3.6,8.2L24,49.8
	l2.5-5.3c0.3-0.7,0.9-1.4,1.5-1.8c0.7-0.4,1.5-0.7,2.3-0.7h9.3c0.8,0,1.6,0.2,2.3,0.7c0.7,0.5,1.2,1.1,1.5,1.9l2.5,5.2l-1.7,3.5
	l-3.6-7.2c-0.1-0.2-0.3-0.4-0.5-0.5c-0.2-0.1-0.5-0.1-0.8-0.1c-0.3,0.1-0.5,0.2-0.7,0.4c-0.2,0.2-0.3,0.5-0.2,0.7v21H36.2z
	 M51.2,56.5l2.4-5.5v16.7H40.8V51.6l2.4,4.9c0,0,0,0,0,0c0,0,0,0,0,0.1c0,0,0.1,0.1,0.1,0.1c0,0,0.1,0.1,0.1,0.1
	c0,0,0.1,0.1,0.1,0.1c0,0,0.1,0,0.1,0.1c0.1,0,0.1,0.1,0.2,0.1c0,0,0.1,0,0.1,0c0.1,0,0.2,0,0.3,0h5.8c0.2,0,0.4-0.1,0.6-0.2
	C51,56.9,51.1,56.7,51.2,56.5z M67.7,54.8h-2.3V44.3H63v23.3h-2.3V56h-2.3v11.7H56V45.5c0-0.3-0.1-0.5-0.3-0.7
	c-0.2-0.2-0.4-0.4-0.7-0.4s-0.5,0-0.8,0.1c-0.2,0.1-0.4,0.3-0.5,0.6l-4.4,9.8h-3.2L51,44.5c0,0,0,0,0,0c0.3-0.7,0.8-1.4,1.5-1.8
	c0.7-0.4,1.5-0.7,2.3-0.7h9.3c0.9,0,1.8,0.4,2.5,1c0.7,0.7,1,1.5,1,2.5V54.8z"/>
<path class="st0" d="M15.2,16.3H4.7v2.3h10.5V16.3z"/>
<path class="st0" d="M15.2,21H4.7v2.3h10.5V21z"/>
</svg>
