<?xml version="1.0" encoding="utf-8"?>
<!-- Generator: Adobe Illustrator 24.0.1, SVG Export Plug-In . SVG Version: 6.00 Build 0)  -->
<svg version="1.1" id="Слой_1" xmlns="http://www.w3.org/2000/svg" xmlns:xlink="http://www.w3.org/1999/xlink" x="0px" y="0px"
	 viewBox="0 0 128.4 161.5" style="enable-background:new 0 0 128.4 161.5;" xml:space="preserve">
<style type="text/css">
	.st0{fill:#FFFFFF;}
</style>
<path class="st0" d="M104.5,50.8c1.4,0,2.5-1.1,2.5-2.5s-1.1-2.5-2.5-2.5h-64c-1.4,0-2.5,1.1-2.5,2.5s1.1,2.5,2.5,2.5H104.5z"/>
<path class="st0" d="M106.7,5.6c-0.2,0-0.5-0.1-0.7-0.1H23.7C14,5.5,6.1,13.4,6.1,23.1v7.7c0,1.9,1.6,3.5,3.5,3.5h81.7
	c1.9,0,3.5-1.6,3.5-3.5v-7.7c0-5.8,4.7-10.6,10.6-10.6S116,17.2,116,23.1v105.8H92v7h27.5c1.9,0,3.5-1.6,3.5-3.5V23.1
	C122.9,13.9,115.8,6.3,106.7,5.6z M87.8,23.1v4.2H13.1v-4.2c0-5.8,4.7-10.6,10.6-10.6h67.7C89.1,15.5,87.8,19.1,87.8,23.1z"/>
<path class="st0" d="M94.9,110.3c-0.2-0.5,0-0.9,0.2-1.1c0.1-0.2,0.5-0.5,1-0.5c3.6,0.1,6.9-2.2,8-5.6c1.1-3.5-0.1-7.2-3.2-9.3
	c-0.4-0.3-0.5-0.7-0.5-1c0-0.2,0.1-0.7,0.5-1c3-2.1,4.3-5.8,3.2-9.3c-1.1-3.5-4.4-5.8-8-5.6c-0.6,0-0.8-0.3-1-0.5
	c-0.1-0.2-0.3-0.6-0.2-1.1c1.2-3.4,0.1-7.2-2.9-9.3s-6.9-2.1-9.8,0.1c-0.4,0.3-0.9,0.3-1.1,0.2c-0.2-0.1-0.6-0.3-0.8-0.8
	c-1-3.5-4.2-5.9-7.8-5.9s-6.8,2.4-7.8,5.9l0,0c-0.2,0.5-0.5,0.7-0.8,0.8c-0.2,0.1-0.6,0.1-1.1-0.2C59.9,63.9,56,63.8,53,66
	c-3,2.1-4.1,5.9-2.9,9.3c0.2,0.5,0,0.9-0.2,1.1c-0.1,0.2-0.4,0.5-1,0.5c-3.7-0.1-6.9,2.2-8,5.6c-1.1,3.5,0.1,7.2,3.2,9.3
	c0.4,0.3,0.5,0.7,0.5,1c0,0.2-0.1,0.7-0.5,1c-3,2.1-4.3,5.8-3.2,9.3s4.3,5.7,8,5.6c0.5,0,0.8,0.3,1,0.5c0.1,0.2,0.3,0.6,0.2,1.1
	c-1.2,3.4-0.1,7.2,2.9,9.3c0.8,0.6,1.7,1,2.6,1.3v8h-26V36.8h-7v95.6c0,1.9,1.6,3.5,3.5,3.5h29.6v15.5c0,1.3,0.8,2.5,1.9,3.1
	c1.2,0.6,2.6,0.5,3.7-0.3l11.2-8.5l11.2,8.5c0.6,0.5,1.4,0.7,2.1,0.7c0.5,0,1.1-0.1,1.6-0.4c1.2-0.6,1.9-1.8,1.9-3.1v-30.5
	c0.9-0.3,1.8-0.7,2.6-1.3C94.9,117.5,96.1,113.7,94.9,110.3z M82.3,144.3l-7.7-5.8c-1.2-0.9-3-0.9-4.2,0l-7.7,5.8v-24.7l0.1-0.1
	c0.4-0.3,0.9-0.3,1.1-0.2c0.2,0.1,0.6,0.3,0.8,0.8c1,3.5,4.2,5.9,7.8,5.9s6.8-2.4,7.8-5.9c0.2-0.5,0.5-0.7,0.8-0.8
	c0.2-0.1,0.6-0.1,1.1,0.2l0.1,0.1L82.3,144.3L82.3,144.3z M89.4,105.1c-1.6,2.2-2,5-1.1,7.5c0.2,0.7-0.1,1.1-0.4,1.3
	c-0.3,0.2-0.8,0.4-1.4,0c-2.1-1.6-4.9-2.1-7.5-1.3c-2.6,0.8-4.5,2.9-5.3,5.5c-0.2,0.7-0.7,0.8-1.1,0.8s-0.9-0.1-1.1-0.8
	c-0.8-2.6-2.7-4.6-5.3-5.5c-0.8-0.3-1.7-0.4-2.5-0.4c-1.8,0-3.5,0.6-5,1.7c-0.6,0.4-1.1,0.3-1.4,0c-0.3-0.2-0.7-0.7-0.4-1.3
	c0.9-2.5,0.5-5.4-1.1-7.5c-1.6-2.2-4.2-3.4-6.8-3.4c-0.7,0.1-1-0.4-1.1-0.8s-0.1-0.9,0.5-1.3c2.2-1.5,3.6-4,3.6-6.7
	s-1.3-5.2-3.6-6.7c-0.6-0.4-0.6-0.9-0.5-1.3s0.4-0.8,1.1-0.8c2.7,0.1,5.2-1.2,6.8-3.4c1.6-2.2,2-5,1.1-7.5c-0.2-0.7,0.1-1.1,0.4-1.3
	c0.3-0.2,0.8-0.4,1.4,0c2.1,1.6,4.9,2.1,7.5,1.3c2.6-0.8,4.6-2.9,5.3-5.5c0.2-0.7,0.7-0.8,1.1-0.8s0.9,0.1,1.1,0.8
	c0.8,2.6,2.7,4.6,5.3,5.5c2.6,0.8,5.4,0.3,7.5-1.3c0.6-0.4,1.1-0.3,1.4,0c0.3,0.2,0.7,0.7,0.4,1.3c-0.9,2.5-0.5,5.4,1.1,7.5
	c1.6,2.2,4.2,3.4,6.8,3.4c0.7,0,1,0.4,1.1,0.8s0.1,0.9-0.5,1.3c-2.2,1.5-3.6,4-3.6,6.7s1.3,5.2,3.6,6.7c0.6,0.4,0.6,0.9,0.5,1.3
	s-0.4,0.8-1.1,0.8C93.5,101.7,90.9,102.9,89.4,105.1z"/>
<path class="st0" d="M72.5,75.9c-9.4,0-17,7.6-17,17s7.6,17,17,17s17-7.6,17-17S81.9,75.9,72.5,75.9z M72.5,102.9
	c-5.5,0-10-4.5-10-10s4.5-10,10-10s10,4.5,10,10S78,102.9,72.5,102.9z"/>
</svg>
