<?xml version="1.0" encoding="utf-8"?>
<!-- Generator: Adobe Illustrator 24.0.1, SVG Export Plug-In . SVG Version: 6.00 Build 0)  -->
<svg version="1.1" id="Слой_1" xmlns="http://www.w3.org/2000/svg" xmlns:xlink="http://www.w3.org/1999/xlink" x="0px" y="0px"
	 viewBox="0 0 54 70" style="enable-background:new 0 0 54 70;" xml:space="preserve">
<style type="text/css">
	.st0{fill:#FFFFFF;}
</style>
<path class="st0" d="M45.5,34.7l-1.7-2.6c0.6-1.1,1.1-2.3,1.4-3.3l3-0.5c0.5-0.1,0.9-0.5,0.9-1.1v-5.7c0-0.5-0.3-1-0.9-1.1l-3-0.5
	c-0.3-1.2-0.8-2.3-1.4-3.4l1.7-2.5c0.3-0.4,0.2-1-0.1-1.4l-4-4.1c-0.2-0.3-0.8-0.3-1.2,0l-2.6,1.7c-1.1-0.6-2.2-1.1-3.3-1.4l-0.5-3
	c-0.1-0.5-0.5-0.9-1.1-0.9H27c-0.5,0-1,0.3-1.1,0.9l-0.5,3C24.2,9,23.1,9.4,22,10.1l-2.5-1.7c-0.4-0.3-1-0.2-1.4,0.1l-4.2,3.9
	c-0.3,0.3-0.4,1-0.1,1.4l1.7,2.6c-0.6,1.1-1.1,2.2-1.4,3.3l-3,0.5c-0.5,0.1-0.9,0.5-0.9,1.1c0.2,4.6-0.6,6.5,0.9,6.8l3,0.5
	c0.3,1.2,0.8,2.3,1.4,3.4l-1.8,2.5c-0.3,0.4-0.2,1,0.1,1.4l4,4.1c0.3,0.3,1,0.4,1.4,0.1l2.6-1.7c1.1,0.6,2.2,1.1,3.3,1.4l0.5,3
	c0.1,0.5,0.5,0.9,1.1,0.9h5.7c0.5,0,1-0.3,1.1-0.9l0.5-3c1.2-0.3,2.3-0.8,3.3-1.4l2.5,1.8c0.4,0.3,1,0.2,1.4-0.1l4.1-4
	C45.8,35.7,45.8,35.1,45.5,34.7z M43.3,27.6c-0.3,1.4-0.9,2.8-1.7,4.1c-0.2,0.3-0.2,0.9,0,1.2l1.6,2.4L40.4,38l-2.4-1.6
	c-0.3-0.2-0.9-0.2-1.2,0c-1.3,0.8-2.6,1.3-4.1,1.6c-0.4,0.1-0.8,0.4-0.9,0.9l-0.5,2.8h-3.9L27,38.9c-0.1-0.4-0.4-0.8-0.9-0.9
	c-1.4-0.3-2.8-0.9-4.1-1.7c-0.3-0.2-0.9-0.2-1.2,0l-2.4,1.6L16,35l1.6-2.4c0.2-0.3,0.2-0.9,0-1.2c-0.8-1.3-1.3-2.7-1.6-4.1
	c-0.1-0.4-0.4-0.8-0.9-0.9l-2.8-0.5v-3.9l2.8-0.5c0.4-0.1,0.8-0.4,0.9-0.8c0.3-1.4,1-2.8,1.7-4.1c0.2-0.3,0.2-0.9,0-1.2l-1.6-2.3
	l2.8-2.8l2.4,1.6c0.3,0.2,0.8,0.2,1.2,0c1.3-0.8,2.7-1.3,4.1-1.6c0.4-0.1,0.8-0.4,0.9-0.9l0.5-2.8h3.9l0.4,2.9
	c0.1,0.4,0.4,0.8,0.9,0.9c1.4,0.3,2.8,0.9,4,1.7c0.3,0.2,0.9,0.2,1.2,0l2.4-1.6l2.8,2.8l-1.6,2.4c-0.2,0.3-0.2,0.9,0,1.2
	c0.8,1.3,1.3,2.7,1.6,4.1c0.1,0.4,0.4,0.8,0.9,0.9l2.8,0.5v3.9l-2.8,0.4C43.8,26.8,43.4,27.1,43.3,27.6z"/>
<path class="st0" d="M37.8,16c-2.2-2-5-3.3-8.2-3.3c-3.1,0-6,1.3-8.1,3.3c-2,2-3.3,5-3.3,8.2c0,3.1,1.3,6,3.3,8.2c2,2,5,3.3,8.2,3.3
	c3.1,0,6-1.3,8.2-3.3c2-2,3.3-5,3.3-8.2C41.3,21,40,18.2,37.8,16z M37.4,25.3H39c-0.2,1.8-0.9,3.4-1.9,4.7l-1.2-1.2
	c-0.4-0.4-1.1-0.4-1.5,0c-0.4,0.4-0.4,1.1,0,1.5l1.2,1.2c-1.3,1.1-3,1.7-4.7,1.9v-1.6c0-0.6-0.4-1.1-1.1-1.1c-0.6,0-1.1,0.4-1.1,1.1
	v1.6c-1.8-0.2-3.4-0.9-4.7-1.9l1.2-1.2c0.4-0.4,0.4-1.1,0-1.5c-0.4-0.4-1.1-0.4-1.5,0L22.4,30c-1.1-1.3-1.7-3-1.9-4.7h1.6
	c0.6,0,1.1-0.4,1.1-1.1c0-0.6-0.4-1.1-1.1-1.1h-1.6c0.2-1.8,0.9-3.4,1.9-4.7l1.2,1.2c0.4,0.4,1.1,0.4,1.5,0c0.4-0.4,0.4-1.1,0-1.5
	l-1.2-1.2c1.3-1.1,3-1.7,4.7-1.9v1.6c0,0.6,0.4,1.1,1.1,1.1c0.6,0,1.1-0.4,1.1-1.1v-1.6c1.8,0.2,3.4,0.9,4.7,1.9L34.4,18
	c-0.4,0.4-0.4,1.1,0,1.5c0.4,0.4,1.1,0.4,1.5,0l1.2-1.2c1.1,1.3,1.7,3,1.9,4.7h-1.6c-0.6,0-1.1,0.4-1.1,1.1
	C36.3,24.7,36.8,25.3,37.4,25.3z"/>
<path class="st0" d="M32.2,20.1l-1.5,1.5c-0.3-0.1-0.8-0.2-1.1-0.2c-1.5,0-2.8,1.3-2.8,2.8c0,1.5,1.3,2.8,2.8,2.8s2.8-1.3,2.8-2.8
	c0-0.3-0.1-0.6-0.2-1l1.5-1.5c0.4-0.4,0.4-1.1,0-1.5C33.4,19.8,32.7,19.8,32.2,20.1z M29.6,24.9c-0.3,0-0.6-0.3-0.6-0.6
	c0-0.3,0.3-0.6,0.6-0.6s0.6,0.3,0.6,0.6C30.3,24.5,30,24.9,29.6,24.9z"/>
<path class="st0" d="M48.9,59.2c-3-9.9-2.6-17.9,1.2-23.9c6.6-10.3,2.9-21.5-3.7-28c-6.4-6.4-18-11-30.3-3.2
	C8.9,8.7,4.9,16.7,5.4,24.4c0,0.5,1.2,1.6-0.9,3.3l-0.1,0.1c-0.8,0.9-4.7,5.3-4.4,8.2c0.2,1,1,2,1.7,2.2c1,0.1,1.9,0.4,2.2,0.8
	c-0.4,1.4-0.3,3.1,0.8,4.1c-0.4,1-0.2,1.9,0.8,2.6c0.3,0.8,1,2.6,0.2,3.3c-0.1,0.1-0.1,0.2-0.2,0.3c0,0.1-1,2.2,0.3,4.1
	c2.2,3.3,8.4,3.1,12.3,3.1c0.2,0.1,0.4,0.2,0.6,0.5c1.6,1.8,1.4,6.7,1.2,9.2c0,0.3,0.1,0.6,0.3,0.9s3.4,2.9,13,2.9
	c4.7,0,11-0.6,19.2-2.7c0.3-0.1,0.6-0.3,0.8-0.8c0.1-0.3,0-0.8-0.2-1.1C50.1,62.4,48.9,59.2,48.9,59.2z M22.1,65.7
	c0-0.4,0-0.6,0-0.6c0.3-4-0.1-6.9-1.3-8.7c3.4-0.3,6-1.4,7.8-3.2c2.4-2.4,2.2-5.2,2.2-5.3c0-0.5-0.5-1.1-1.2-1c-0.5,0-1.1,0.5-1,1.2
	c0,0.1,0.1,2-1.6,3.8c-1.7,1.7-4.7,2.7-8.8,2.7c-0.3,0-0.4,0-0.5,0c-7.3,0.3-9.5-1.2-10.1-2.2c-0.5-0.8-0.3-1.6-0.2-1.9
	c1.7-1.9,0.4-5.8-0.6-6.5c0.2-0.4,0.8-0.6,0.6-1.4c-0.2-1-1.1-0.6-1.4-1.3c-0.2-0.5,0-1.4,0.1-1.6c0.2-0.5,0.1-1.3-0.4-1.9
	c-0.9-1.1-2.5-1.4-3.2-1.4c-0.6-1.2,2.4-5.2,3.8-6.7c2.4-2,2.2-4.2,1.5-5.4c-0.4-7,3.3-14,9.8-18.2c11.1-7.1,21.8-2.8,27.6,2.9
	c5.9,5.9,9.3,16.1,3.3,25.4c-4.1,6.5-4.6,15.1-1.4,25.8c0,0.1,1,2.7,3.3,5.6C31.3,69.9,23.8,66.7,22.1,65.7z"/>
</svg>
