<?xml version="1.0" encoding="utf-8"?>
<!-- Generator: Adobe Illustrator 24.0.1, SVG Export Plug-In . SVG Version: 6.00 Build 0)  -->
<svg version="1.1" id="Слой_1" xmlns="http://www.w3.org/2000/svg" xmlns:xlink="http://www.w3.org/1999/xlink" x="0px" y="0px"
	 viewBox="0 0 66 70" style="enable-background:new 0 0 66 70;" xml:space="preserve">
<style type="text/css">
	.st0{fill:#FFFFFF;}
</style>
<path class="st0" d="M4.8,60.5c-0.7,0-1.1,0.4-1.1,1.1v1.3c0,0.7,0.4,1.1,1.1,1.1c0.7,0,1.1-0.4,1.1-1.1v-1.3
	C5.9,60.9,5.5,60.5,4.8,60.5z"/>
<path class="st0" d="M4.9,57.6H4.7c-2.5,0-4.7,2.1-4.7,4.7v3.1C0,67.8,2.1,70,4.7,70h0.2c2.5,0,4.7-2.1,4.7-4.7v-3.1
	C9.6,59.6,7.5,57.6,4.9,57.6z M7.4,65.3c0,1.3-1.1,2.4-2.5,2.4H4.7c-1.3,0-2.5-1.1-2.5-2.5v-3.1c0-1.3,1.1-2.5,2.5-2.5h0.2
	c1.3,0,2.5,1.1,2.5,2.5V65.3z"/>
<path class="st0" d="M64.9,38.1C58.8,26.8,56.1,25,56.1,20c0-11-9-20-20-20h-4.6c-7.6,0-14.6,4.3-18,11.2c-1.6,3.4-2.3,7.3-1.7,11.4
	l2.6,19c0.1,0.5,0.7,1,1.2,1c0.5-0.1,1-0.7,1-1.2L14,22.3c-0.4-3.6,0-7.1,1.5-10.2c3.1-6.1,9.2-9.9,16.1-9.9h4.6
	c9.8,0,17.8,8,17.8,17.8c0,5.8,3.2,8.4,8.1,17.6h-4.9c-0.7,0-1.1,0.4-1.1,1.1v9.9c0,3.3-2.6,6-6,6h-8.7c-0.7,0-1.1,0.4-1.1,1.1v9.1
	c0,0.7,0.4,1.1,1.1,1.1c0.7,0,1.1-0.4,1.1-1.1v-8H50c4.5,0,8.2-3.6,8.2-8.2v-8.8h5.7c0.4,0,0.8-0.2,1-0.5
	C65.1,38.9,65.1,38.5,64.9,38.1z"/>
<path class="st0" d="M45.6,22.8c0-6.8-5.9-12.2-12.8-11.5c-5,0.5-9.3,4.6-10,9.6c-0.5,3.5,0.5,7,2.9,9.6c3.6,3.9,2.5,7.8,2.7,9.4
	c0,0.4,0.2,1.2,1,1.7c0.1,0.1,0.3,0.2,0.4,0.3c-0.3,2.3,1.1,4.3,3.1,4.8v15.3c0,1.3-1,2.3-2.3,2.3h-9.4c-1.3,0-2.4-1.1-2.4-2.4
	c0-1.3,1.1-2.4,2.4-2.4h2.1c2.5,0,4.5-2,4.5-4.5s-2-4.5-4.5-4.5h-5.2c-0.1,0-0.2-0.1-0.2-0.2v-4.6c0-1.3-1.1-2.4-2.4-2.4H6.9
	c-1.7,0-3.2,1.4-3.2,3.2v9.3c0,0.7,0.4,1.1,1.1,1.1c0.7,0,1.1-0.4,1.1-1.1v-9.3c0-0.5,0.4-1,1-1h8.6c0.1,0,0.2,0.1,0.2,0.2v4.6
	c0,1.3,1.1,2.4,2.4,2.4h5.2c1.3,0,2.3,1,2.3,2.3c0,1.3-1,2.3-2.3,2.3h-2.1c-2.5,0-4.6,2.1-4.6,4.6c0,2.5,2.1,4.6,4.6,4.6h9.4
	c2.5,0,4.5-2,4.5-4.5V46.8c2-0.5,3.5-2.4,3.1-4.8c0.2-0.1,0.3-0.2,0.5-0.3c0.9-0.7,1-1.3,1-1.7c0.2-1.4-0.9-5.6,2.6-9.3
	C44.6,28.5,45.6,25.7,45.6,22.8z M34.2,30c-1.4,0-2.5-1.1-2.5-2.5c0-1.4,1.1-2.5,2.5-2.5c1.4,0,2.5,1.1,2.5,2.5
	C36.7,28.9,35.5,30,34.2,30z M34.2,44.8c-1.1,0-2.1-0.9-2.1-2.1c1.3,0.2,3.1,0.2,4.1,0C36.1,43.9,35.3,44.8,34.2,44.8z M37.7,39.9
	c-0.1,0-0.5,0.7-2.4,0.9v-8.6c2.1-0.5,3.6-2.4,3.6-4.6c0-2.6-2.1-4.7-4.7-4.7s-4.7,2.1-4.7,4.7c0,2.2,1.5,4,3.6,4.6v8.6
	c-2.4-0.2-2.2-0.8-2.4-0.8c-0.2-1.5,1-6.1-3.3-10.8c-2-2.1-2.8-4.9-2.4-7.8c0.7-4,4-7.3,8.1-7.8c5.7-0.7,10.4,3.8,10.4,9.3
	c0,2.4-0.9,4.7-2.5,6.3C36.7,33.6,37.8,38.7,37.7,39.9z"/>
<path class="st0" d="M14.6,23c-0.1,0.5,0.3,1.1,1,1.2l4.1,0.4c0.5,0.1,1.1-0.3,1.2-1c0.1-0.5-0.3-1.1-1-1.2l-4.1-0.4
	C15.3,22.1,14.7,22.5,14.6,23z"/>
<path class="st0" d="M23.3,14.6c0.4-0.4,0.4-1.1,0-1.5l-3.2-3.2c-0.4-0.4-1.1-0.4-1.5,0c-0.4,0.4-0.4,1.1,0,1.5l3.2,3.2
	C22.1,15.1,22.8,15.1,23.3,14.6z"/>
<path class="st0" d="M30.1,9.9c0.5-0.1,1-0.8,0.8-1.3l-1.2-4.5c-0.1-0.5-0.8-1-1.3-0.8c-0.5,0.1-1,0.8-0.8,1.3l1.2,4.5
	C28.9,9.8,29.5,10.2,30.1,9.9z"/>
<path class="st0" d="M39.5,9.2l1.2-4.5c0.1-0.5-0.2-1.2-0.8-1.3c-0.5-0.1-1.2,0.2-1.3,0.8l-1.2,4.5c-0.1,0.5,0.2,1.2,0.8,1.3
	C38.8,10.2,39.3,9.7,39.5,9.2z"/>
<path class="st0" d="M48.2,9.9L45,13.1c-0.4,0.4-0.4,1.1,0,1.5c0.4,0.4,1.1,0.4,1.5,0l3.2-3.2c0.4-0.4,0.4-1.1,0-1.5
	C49.3,9.5,48.6,9.5,48.2,9.9z"/>
<path class="st0" d="M47.3,23.8c0.1,0.5,0.5,1,1.1,1h0.1l4.1-0.4c0.5-0.1,1-0.7,1-1.2c-0.1-0.5-0.7-1-1.2-1l-4.1,0.4
	C47.7,22.7,47.3,23.3,47.3,23.8z"/>
</svg>
