<?xml version="1.0" encoding="utf-8"?>
<!-- Generator: Adobe Illustrator 24.0.1, SVG Export Plug-In . SVG Version: 6.00 Build 0)  -->
<svg version="1.1" id="Слой_1" xmlns="http://www.w3.org/2000/svg" xmlns:xlink="http://www.w3.org/1999/xlink" x="0px" y="0px"
	 viewBox="0 0 160 161" style="enable-background:new 0 0 160 161;" xml:space="preserve">
<style type="text/css">
	.st0{fill:#FFFFFF;}
</style>
<path class="st0" d="M151.3,149.3l-35.1-68.9c-0.6-1.2-1.8-1.9-3.1-1.9s-2.5,0.7-3.1,1.9l-12,23.5l3.9,7.7l11.2-21.9l29.4,57.7
	h-22.3h-2.8L67,48.7v-8.9h42.2c1.9,0,3.5-1.6,3.5-3.5V9.1c0-1.9-1.6-3.5-3.5-3.5H63.5c-1.9,0-3.5,1.6-3.5,3.5v13.8v13.3v12.4
	L8.7,149.3c-0.6,1.1-0.5,2.4,0.1,3.4s1.8,1.7,3,1.7h103.4l0,0h4.9h28.1c1.2,0,2.3-0.6,3-1.7C151.8,151.7,151.9,150.4,151.3,149.3z
	 M67,22.9V12.6h38.8v20.1H67V22.9z M63.5,57.2l10.9,21.3c-5.3-0.7-10.5,2.1-12.7,7.1c-0.8,1.7-2.2,2.8-4.1,3
	c-1.8,0.2-3.5-0.5-4.7-1.9l-2.7-3.5L63.5,57.2z M17.5,147.4l29.2-57.3l0.7,0.9c2.3,3,5.8,4.7,9.5,4.7c0.5,0,1,0,1.5-0.1
	c4.3-0.5,7.9-3.2,9.6-7.1c1.1-2.4,3.7-3.6,6.2-2.8l4.4,1.4l30.8,60.3H17.5L17.5,147.4z"/>
<path class="st0" d="M90,16l-5.2,5.7l-2.4-1.9c-1.1-0.9-2.6-0.7-3.5,0.4s-0.7,2.6,0.4,3.5l4.3,3.4c0.5,0.4,1,0.6,1.6,0.6
	c0.7,0,1.4-0.3,1.9-0.8l6.7-7.5c0.9-1,0.8-2.6-0.2-3.5C92.5,14.9,90.9,14.9,90,16z"/>
</svg>
