<?xml version="1.0" encoding="utf-8"?>
<!-- Generator: Adobe Illustrator 24.0.1, SVG Export Plug-In . SVG Version: 6.00 Build 0)  -->
<svg version="1.1" id="Слой_1" xmlns="http://www.w3.org/2000/svg" xmlns:xlink="http://www.w3.org/1999/xlink" x="0px" y="0px"
	 viewBox="0 0 160 151" style="enable-background:new 0 0 160 151;" xml:space="preserve">
<style type="text/css">
	.st0{fill:#FFFFFF;}
</style>
<path class="st0" d="M154,93.6c0-0.1-0.1-0.1-0.1-0.2c0,0,0-0.1-0.1-0.1c-1.1-2.5-3.6-4.2-6.5-4.2h-10.9v-2c0-4-3.2-7.2-7.2-7.2H109
	c-3.9,0-7.2,3.2-7.2,7.2v2H90.9c-1.4,0-2.8,0.4-3.9,1.2c-1.1,0.7-2,1.8-2.6,3c0,0,0,0.1-0.1,0.1c0,0.1-0.1,0.1-0.1,0.2
	c-0.3,0.8-0.5,1.7-0.5,2.6v41.3c0,0,0,0,0,0.1H76c2.3-10.9,4.2-30.2,4.7-40.1v-1.3c0-1.2,0.2-2.3,0.7-3.4c0-0.1,0.1-0.2,0.1-0.3
	l0.1-0.2c0.3-0.7,0.7-1.3,1.1-1.8L79,89.2v-8c3.4-2.9,5.9-6.8,7-11.2c0.5-1.8,0.8-3.1,1.1-4.1c3-0.4,5.4-2.7,5.9-5.8l1.4-8.7
	c0.3-2.3-0.3-4.5-1.8-6.3c-0.4-0.5-0.9-0.9-1.4-1.3c0.7-2.4,1.1-4.9,1.1-7.5v-0.1C92,27.9,88.4,20,82.1,14.5v-0.2
	c0-1.1-0.5-2.1-1.3-2.7c-5.1-4-11.4-6.1-17.7-6.1h-2.7C55,5.5,50.1,8,45.8,11c-1.1-0.3-2.3-0.1-3.2,0.6C36,16.8,31.4,26.7,31.2,36.4
	c0,2.5,0.4,5,1.1,7.5c-0.5,0.4-1,0.8-1.5,1.3c-1.5,1.7-2.1,4-1.8,6.3l1.4,8.7c0.5,3.1,2.9,5.4,5.9,5.8c0.2,1,0.6,2.3,1,4.1
	c1.1,4.4,3.6,8.3,7,11.2v7.9l-23.1,6.6C12.1,97.7,5.5,106,5.5,115.4V141c0,1.9,1.6,3.5,3.5,3.5l81.4,0.1c0.2,0,0.3,0,0.5,0h56.5
	c3.9,0,7.1-3.2,7.1-7.1V96.2C154.5,95.2,154.3,94.3,154,93.6z M44.3,19.6c0.9,0.1,1.8-0.1,2.6-0.7c3.8-3,8.8-6.5,13.4-6.5H63
	c4.3,0,8.5,1.3,12.1,3.7l0,0c0,1.1,0.5,2.1,1.3,2.7c5.4,4.2,8.6,10.6,8.7,17.5c0,1-0.1,1.9-0.2,2.8l-2.5-4c-0.8-1.3-2.5-2-4-1.5
	C72.9,35.3,67,34.3,62.3,31l-5.1-3.6c-1.4-1-3.3-0.8-4.5,0.4l-1.4,1.4c-1.9,1.9-4.6,2.6-7.1,1.9c-1.7-0.5-3.4,0.3-4.2,1.9l-1.8,4.1
	c0-0.3,0-0.6,0-0.9C38.3,30.3,40.7,23.9,44.3,19.6z M12.5,137.4v-22c0-6.2,4.3-11.6,10.3-12.8c0.1,0,0.2,0,0.2-0.1l19.5-5.6
	c0.5,9.7,2.5,29.4,4.8,40.4L12.5,137.4z M54.8,137.5h-0.4c-1.5-6.6-3-18.1-3.9-27.9L53,108l3.2,5.4
	C55.2,121.3,54.8,129.4,54.8,137.5z M50,104c-0.3-4-0.5-7.4-0.6-9.5c0.1-0.1,0.1-0.2,0.2-0.2l7.6,5.1L50,104z M51.3,89.4v-3.8
	l0.2,0.1c3.2,1.7,6.6,2.6,10.1,2.6s7-0.9,10.1-2.6l0.2-0.1v3.8l-10.3,6.9L51.3,89.4z M59.8,137.5c0-7.4,0.3-14.8,1.2-22.2h1.3
	c0.8,7.4,1.3,14.8,1.2,22.2H59.8z M63.1,110.3h-2.9l-3-5.1l4.5-2.9l4.5,2.9L63.1,110.3z M68.9,137.5h-0.4c0.1-8.1-0.4-16.2-1.4-24.2
	l3.2-5.4l2.5,1.7C71.9,119.4,70.5,130.9,68.9,137.5z M73.4,104l-7.2-4.7l7.6-5.1c0.1,0.1,0.1,0.1,0.2,0.2
	C73.9,96.6,73.7,99.9,73.4,104z M72.1,77.6l-3.7,2c-4.2,2.3-9.3,2.3-13.5,0l-3.7-2c-3.5-1.9-6.1-5.3-7.1-9.2
	c-1.4-5.2-1.6-6.2-1.6-6.4c-0.3-1.7-1.8-2.9-3.5-2.9l-1.7,0.1L36,50.5c0-0.2,0-0.3,0-0.4c0.1,0,0.2,0.1,0.3,0.2
	c0.5,0.2,1,0.3,1.4,0.3c1.3,0,2.6-0.8,3.2-2.1l4.5-9.9c3.7,0.2,7.4-1,10.2-3.5l2.8,1.9c5.8,4,12.7,5.5,19.5,4.2l4.8,7.7
	c1,1.6,3.1,2.1,4.7,1.2c0,0.1,0.1,0.2,0,0.4l-1.3,8.6h-1.7c-1.7,0-3.1,1.2-3.4,2.8c0,0.2-0.3,1.2-1.6,6.4
	C78.2,72.3,75.7,75.7,72.1,77.6z M108.8,87c0-0.1,0.1-0.2,0.2-0.2h20.4c0.1,0,0.2,0.1,0.2,0.2v2h-20.7L108.8,87L108.8,87z
	 M147.5,137.4C147.5,137.5,147.5,137.5,147.5,137.4l-56.6,0.1c-0.1,0-0.1,0-0.1-0.1v-17.3c2.7,2,6.1,3.1,9.7,3.1
	c0.1,2.4,2.1,4.4,4.6,4.4h1.7c2.5,0,4.5-2,4.6-4.4H127c0.1,2.4,2.1,4.4,4.6,4.4h1.7c2.5,0,4.5-2,4.6-4.4c3.6,0,7-1.2,9.7-3.1
	L147.5,137.4L147.5,137.4z M105.5,122.7v-5.8h0.9v5.8H105.5z M131.9,122.7v-5.8h0.9v5.8H131.9z M147.5,106.6c0,5.3-4.4,9.7-9.7,9.7
	c-0.1-2.4-2.1-4.4-4.6-4.4h-1.7c-2.5,0-4.5,1.9-4.6,4.4h-15.6c-0.1-2.4-2.1-4.4-4.6-4.4H105c-2.5,0-4.5,1.9-4.6,4.4
	c-5.4,0-9.7-4.4-9.7-9.7V96.2c0-0.1,0-0.1,0.1-0.1h56.5c0.1,0,0.1,0,0.1,0.1L147.5,106.6L147.5,106.6z"/>
</svg>
