<?xml version="1.0" encoding="utf-8"?>
<!-- Generator: Adobe Illustrator 24.0.1, SVG Export Plug-In . SVG Version: 6.00 Build 0)  -->
<svg version="1.1" id="Слой_1" xmlns="http://www.w3.org/2000/svg" xmlns:xlink="http://www.w3.org/1999/xlink" x="0px" y="0px"
	 viewBox="0 0 160 200" style="enable-background:new 0 0 160 200;" xml:space="preserve">
<style type="text/css">
	.st0{fill:#FFFFFF;}
</style>
<path class="st0" d="M120,50.6c1.4,0,2.5-1.1,2.5-2.5s-1.1-2.5-2.5-2.5H56c-1.4,0-2.5,1.1-2.5,2.5s1.1,2.5,2.5,2.5H120z"/>
<path class="st0" d="M122.2,5.4c-0.2,0-0.5-0.1-0.7-0.1H39.2c-9.7,0-17.6,7.9-17.6,17.6v7.7c0,1.9,1.6,3.5,3.5,3.5h81.7
	c1.9,0,3.5-1.6,3.5-3.5v-7.7c0-5.8,4.7-10.6,10.6-10.6s10.6,4.7,10.6,10.6v105.8h-24v7h27.5c1.9,0,3.5-1.6,3.5-3.5V22.9
	C138.4,13.7,131.3,6.1,122.2,5.4z M103.3,22.9v4.2H28.6v-4.2c0-5.8,4.7-10.6,10.6-10.6h67.7C104.6,15.3,103.3,18.9,103.3,22.9z"/>
<path class="st0" d="M110.4,110.1c-0.2-0.5,0-0.9,0.2-1.1c0.1-0.2,0.5-0.5,1-0.5c3.6,0.1,6.9-2.2,8-5.6c1.1-3.5-0.1-7.2-3.2-9.3
	c-0.4-0.3-0.5-0.7-0.5-1c0-0.2,0.1-0.7,0.5-1c3-2.1,4.3-5.8,3.2-9.3c-1.1-3.5-4.4-5.8-8-5.6c-0.6,0-0.8-0.3-1-0.5
	c-0.1-0.2-0.3-0.6-0.2-1.1c1.2-3.4,0.1-7.2-2.9-9.3s-6.9-2.1-9.8,0.1c-0.4,0.3-0.9,0.3-1.1,0.2c-0.2-0.1-0.6-0.3-0.8-0.8
	c-1-3.5-4.2-5.9-7.8-5.9s-6.8,2.4-7.8,5.9c0,0,0,0,0,0c-0.2,0.5-0.5,0.7-0.8,0.8c-0.2,0.1-0.6,0.1-1.1-0.2c-2.9-2.2-6.8-2.3-9.8-0.1
	c-3,2.1-4.1,5.9-2.9,9.3c0.2,0.5,0,0.9-0.2,1.1c-0.1,0.2-0.4,0.5-1,0.5c-3.7-0.1-6.9,2.2-8,5.6c-1.1,3.5,0.1,7.2,3.2,9.3
	c0.4,0.3,0.5,0.7,0.5,1c0,0.2-0.1,0.7-0.5,1c-3,2.1-4.3,5.8-3.2,9.3s4.3,5.7,8,5.6c0.5,0,0.8,0.3,1,0.5c0.1,0.2,0.3,0.6,0.2,1.1
	c-1.2,3.4-0.1,7.2,2.9,9.3c0.8,0.6,1.7,1,2.6,1.3v8H45.1V36.6h-7v95.6c0,1.9,1.6,3.5,3.5,3.5h29.6v15.5c0,1.3,0.8,2.5,1.9,3.1
	c1.2,0.6,2.6,0.5,3.7-0.3l11.2-8.5l11.2,8.5c0.6,0.5,1.4,0.7,2.1,0.7c0.5,0,1.1-0.1,1.6-0.4c1.2-0.6,1.9-1.8,1.9-3.1v-30.5
	c0.9-0.3,1.8-0.7,2.6-1.3C110.4,117.3,111.6,113.5,110.4,110.1z M97.8,144.1l-7.7-5.8c-1.2-0.9-3-0.9-4.2,0l-7.7,5.8v-24.7
	c0,0,0.1-0.1,0.1-0.1c0.4-0.3,0.9-0.3,1.1-0.2c0.2,0.1,0.6,0.3,0.8,0.8c1,3.5,4.2,5.9,7.8,5.9s6.8-2.4,7.8-5.9
	c0.2-0.5,0.5-0.7,0.8-0.8c0.2-0.1,0.6-0.1,1.1,0.2c0,0,0.1,0.1,0.1,0.1L97.8,144.1L97.8,144.1z M104.9,104.9c-1.6,2.2-2,5-1.1,7.5
	c0.2,0.7-0.1,1.1-0.4,1.3c-0.3,0.2-0.8,0.4-1.4,0c-2.1-1.6-4.9-2.1-7.5-1.3c-2.6,0.8-4.5,2.9-5.3,5.5c-0.2,0.7-0.7,0.8-1.1,0.8
	s-0.9-0.1-1.1-0.8c-0.8-2.6-2.7-4.6-5.3-5.5c-0.8-0.3-1.7-0.4-2.5-0.4c-1.8,0-3.5,0.6-5,1.7c-0.6,0.4-1.1,0.3-1.4,0
	c-0.3-0.2-0.7-0.7-0.4-1.3c0.9-2.5,0.5-5.4-1.1-7.5c-1.6-2.2-4.2-3.4-6.8-3.4c-0.7,0.1-1-0.4-1.1-0.8c-0.1-0.4-0.1-0.9,0.5-1.3
	c2.2-1.5,3.6-4,3.6-6.7s-1.3-5.2-3.6-6.7c-0.6-0.4-0.6-0.9-0.5-1.3c0.1-0.4,0.4-0.8,1.1-0.8c2.7,0.1,5.2-1.2,6.8-3.4
	c1.6-2.2,2-5,1.1-7.5c-0.2-0.7,0.1-1.1,0.4-1.3c0.3-0.2,0.8-0.4,1.4,0c2.1,1.6,4.9,2.1,7.5,1.3c2.6-0.8,4.6-2.9,5.3-5.5
	c0.2-0.7,0.7-0.8,1.1-0.8s0.9,0.1,1.1,0.8c0.8,2.6,2.7,4.6,5.3,5.5c2.6,0.8,5.4,0.3,7.5-1.3c0.6-0.4,1.1-0.3,1.4,0
	c0.3,0.2,0.7,0.7,0.4,1.3c-0.9,2.5-0.5,5.4,1.1,7.5c1.6,2.2,4.2,3.4,6.8,3.4c0.7,0,1,0.4,1.1,0.8c0.1,0.4,0.1,0.9-0.5,1.3
	c-2.2,1.5-3.6,4-3.6,6.7s1.3,5.2,3.6,6.7c0.6,0.4,0.6,0.9,0.5,1.3c-0.1,0.4-0.4,0.8-1.1,0.8C109,101.5,106.4,102.7,104.9,104.9z"/>
<path class="st0" d="M88,75.7c-9.4,0-17,7.6-17,17s7.6,17,17,17s17-7.6,17-17S97.4,75.7,88,75.7z M88,102.7c-5.5,0-10-4.5-10-10
	s4.5-10,10-10s10,4.5,10,10S93.5,102.7,88,102.7z"/>
</svg>
