<?xml version="1.0" encoding="utf-8"?>
<!-- Generator: Adobe Illustrator 24.0.1, SVG Export Plug-In . SVG Version: 6.00 Build 0)  -->
<svg version="1.1" id="Слой_1" xmlns="http://www.w3.org/2000/svg" xmlns:xlink="http://www.w3.org/1999/xlink" x="0px" y="0px"
	 viewBox="0 0 129 166" style="enable-background:new 0 0 129 166;" xml:space="preserve">
<style type="text/css">
	.st0{fill:#FFFFFF;}
</style>
<path class="st0" d="M105.8,43.6v11c4.9,7.2,7.6,15.8,7.6,24.8c0,7.5-1.9,14.8-5.4,21.3c-6.7,12.1-10.2,26.1-10.2,40.4v8.5H53.6
	v-15.1c0-1.9-1.6-3.5-3.5-3.5H34.8c-4,0-7.2-3.3-7.2-7.5v-15.3c0-1.7-1.2-3.1-2.8-3.4l-8.3-1.7c-0.2,0-0.4-0.1-0.6-0.1
	c0.1-0.2,0.2-0.3,0.3-0.5L27.7,82c0.3-0.5,0.5-1.2,0.5-1.8v-0.4c0-0.1,0-0.2,0-0.4c0-10.4,3.5-20.1,9.8-27.8
	c0.7-0.9,1.5-1.8,2.3-2.7v1.3c0,1.8,1.1,3.5,2.8,4.2s3.6,0.3,4.9-0.9c1.3-1.3,3-2,4.9-2c2,0,3.9,0.8,5.2,2.3
	c1.3,1.5,1.9,3.3,1.7,5.3c-0.3,3.1-2.9,5.7-6,6c-2.1,0.3-4.2-0.4-5.7-1.9c-1.3-1.3-3.3-1.6-5-0.9c-1.7,0.7-2.8,2.3-2.8,4.2v19.7
	c0,1.9,1.6,3.5,3.5,3.5h48.8c5.9,0,10.7-4.8,10.7-10.6V30.5c0-1.9-1.6-3.5-3.5-3.5H84.5c0.7-1.7,1.1-3.6,1.1-5.5
	c0-3.9-1.7-7.6-4.6-10.3c-2.9-2.6-6.9-3.9-10.9-3.5c-6.4,0.7-11.5,5.8-12.3,12.1c-0.3,2.5,0.1,4.9,1,7.2H43.7
	c-1.9,0-3.5,1.6-3.5,3.5v9.1c-0.9,0.7-1.7,1.4-2.5,2.1c-10.5,9.5-16.6,23.1-16.6,37.7L10.2,98.9c-1.5,2.1-1.8,4.8-0.7,7.2
	c1.1,2.3,3.3,3.8,5.8,3.9l5.2,1.1v12.6c0,8,6.4,14.5,14.2,14.5h11.9v15c0,1.9,1.6,3.5,3.5,3.5h51.2c1.9,0,3.5-1.6,3.5-3.5v-12
	c0-13.2,3.2-25.9,9.3-37c4.1-7.5,6.3-16.1,6.3-24.7C120.4,65.8,115,53,105.8,43.6z M63.5,34c1.8,0,3.5-1.1,4.2-2.8
	c0.7-1.7,0.3-3.6-1-5c-1.5-1.5-2.2-3.5-1.9-5.6c0.4-3.1,2.9-5.6,6.1-6c2-0.2,4,0.4,5.4,1.7c1.4,1.3,2.3,3.1,2.3,5.1
	c0,1.8-0.7,3.5-2,4.8c-1.3,1.3-1.7,3.2-1,4.9s2.4,2.8,4.2,2.8h16.3v45c0,2-1.6,3.6-3.7,3.6H47.2V71c2.2,1,4.7,1.3,7.2,1.1
	c6.4-0.8,11.5-5.9,12.2-12.2c0.4-3.9-0.8-7.8-3.4-10.7s-6.4-4.6-10.4-4.6c-1.9,0-3.8,0.4-5.6,1.1V34H63.5z"/>
</svg>
