<?xml version="1.0" encoding="utf-8"?>
<!-- Generator: Adobe Illustrator 24.0.1, SVG Export Plug-In . SVG Version: 6.00 Build 0)  -->
<svg version="1.1"
	 id="Слой_1" xmlns:cc="http://creativecommons.org/ns#" xmlns:dc="http://purl.org/dc/elements/1.1/" xmlns:inkscape="http://www.inkscape.org/namespaces/inkscape" xmlns:rdf="http://www.w3.org/1999/02/22-rdf-syntax-ns#" xmlns:sodipodi="http://sodipodi.sourceforge.net/DTD/sodipodi-0.dtd" xmlns:svg="http://www.w3.org/2000/svg"
	 xmlns="http://www.w3.org/2000/svg" xmlns:xlink="http://www.w3.org/1999/xlink" x="0px" y="0px" viewBox="0 0 79.4 100.4"
	 style="enable-background:new 0 0 79.4 100.4;" xml:space="preserve">
<style type="text/css">
	.st0{fill:#FFFFFF;}
</style>
<g transform="translate(0,-952.36218)">
	<path class="st0" d="M8.5,957.4c-1.5,0.2-2.7,1.5-2.7,3v84c0,1.7,1.3,3,3,3h62c1.7,0,3-1.3,3-3v-58c0-1.7-1.3-3-3-3s-3,1.3-3,3v0.1
		v55h-56v-78h40v13c0,1.7,1.3,3,3,3h16c1.7,0,3-1.3,3-3c0-0.8-0.3-1.6-0.9-2.1l-16-16c-0.6-0.6-1.3-0.9-2.1-0.9h-46
		C8.7,957.4,8.6,957.4,8.5,957.4z M57.8,967.6l5.8,5.8h-5.8V967.6z M17.5,980.4c-1.7,0.1-2.9,1.5-2.8,3.2s1.5,2.9,3.2,2.8h22
		c1.7,0,3-1.3,3-3s-1.3-3-3-3h-0.1h-22C17.7,980.4,17.6,980.4,17.5,980.4z M17.5,991.4c-1.7,0.1-2.9,1.5-2.8,3.2s1.5,2.9,3.2,2.8h44
		c1.7,0,3-1.3,3-3s-1.3-3-3-3h-0.1h-44C17.7,991.4,17.6,991.4,17.5,991.4z M17.5,1002.4c-1.7,0.1-2.9,1.5-2.8,3.2s1.5,2.9,3.2,2.8
		l0,0h44c1.7,0,3-1.3,3-3s-1.3-3-3-3h-0.1h-44C17.7,1002.4,17.6,1002.4,17.5,1002.4z M17.5,1013.4c-1.7,0.1-2.9,1.5-2.8,3.2
		s1.5,2.9,3.2,2.8h44c1.7,0,3-1.3,3-3s-1.3-3-3-3h-0.1h-44C17.7,1013.4,17.6,1013.4,17.5,1013.4z M17.5,1024.4
		c-1.7,0.1-2.9,1.5-2.8,3.2s1.5,2.9,3.2,2.8h44c1.7,0,3-1.3,3-3s-1.3-3-3-3h-0.1h-44C17.7,1024.4,17.6,1024.4,17.5,1024.4z"/>
</g>
</svg>
