<?xml version="1.0" encoding="utf-8"?>
<!-- Generator: Adobe Illustrator 24.0.1, SVG Export Plug-In . SVG Version: 6.00 Build 0)  -->
<svg version="1.1" id="Слой_1" xmlns="http://www.w3.org/2000/svg" xmlns:xlink="http://www.w3.org/1999/xlink" x="0px" y="0px"
	 viewBox="0 0 45.7 44.9" style="enable-background:new 0 0 45.7 44.9;" xml:space="preserve">
<style type="text/css">
	.st0{fill:#FFFFFF;}
</style>
<path class="st0" d="M41.1,9.3L24.3,2.5c-1-0.4-2.1-0.4-3,0L4.5,9.3c-1.1,0.5-1.9,1.4-1.9,2.5v21.2c0,1,0.8,2,1.9,2.5l16.8,6.8
	c0.5,0.3,1,0.3,1.5,0.3s1-0.1,1.5-0.3l16.8-6.8c1.1-0.5,1.9-1.4,1.9-2.5V11.8C43,10.7,42.3,9.8,41.1,9.3z M22.2,4.8
	c0.4-0.1,0.9-0.1,1.1,0L38.5,11l-5.9,2.4L17.4,6.8L22.2,4.8z M22.8,17.3L7.1,11l7.2-2.9c0.1,0.1,0.3,0.3,0.5,0.4l14.5,6.2L22.8,17.3
	z M5.4,33.2c-0.1-0.1-0.3-0.1-0.3-0.1l0,0V13l16.4,6.6v20.2L5.4,33.2z M40.2,33.2L40.2,33.2l-16.2,6.6V19.6l7.6-3v3.4
	c0,0.8,0.5,1.3,1.3,1.3c0.8,0,1.3-0.5,1.3-1.3v-4.4l6.3-2.5v20.1C40.5,33,40.4,33.1,40.2,33.2z"/>
</svg>
