<?xml version="1.0" encoding="utf-8"?>
<!-- Generator: Adobe Illustrator 24.0.1, SVG Export Plug-In . SVG Version: 6.00 Build 0)  -->
<svg version="1.1" id="Слой_1" xmlns="http://www.w3.org/2000/svg" xmlns:xlink="http://www.w3.org/1999/xlink" x="0px" y="0px"
	 viewBox="0 0 47.6 44.9" style="enable-background:new 0 0 47.6 44.9;" xml:space="preserve">
<style type="text/css">
	.st0{fill:#FFFFFF;}
</style>
<path class="st0" d="M38.8,10.5L25.5,5.1c-0.8-0.3-1.7-0.3-2.4,0L9.8,10.5c-0.9,0.4-1.5,1.1-1.5,2v16.8c0,0.8,0.6,1.6,1.5,2
	l13.3,5.4c0.4,0.2,0.8,0.2,1.2,0.2s0.8-0.1,1.2-0.2l13.3-5.4c0.9-0.4,1.5-1.1,1.5-2V12.5C40.3,11.6,39.7,10.9,38.8,10.5z M23.8,6.9
	c0.3-0.1,0.7-0.1,0.9,0l12,4.9l-4.7,1.9L20,8.5L23.8,6.9z M24.3,16.8l-12.4-5l5.7-2.3c0.1,0.1,0.2,0.2,0.4,0.3l11.5,4.9L24.3,16.8z
	 M10.5,29.4c-0.1-0.1-0.2-0.1-0.2-0.1c0,0,0,0,0,0l0-15.9l13,5.2v16L10.5,29.4z M38.1,29.4C38.1,29.4,38.1,29.4,38.1,29.4l-12.8,5.2
	v-16l6-2.4v2.7c0,0.6,0.4,1,1,1c0.6,0,1-0.4,1-1v-3.5l5-2l0,15.9C38.3,29.2,38.2,29.3,38.1,29.4z"/>
</svg>
