<?xml version="1.0" encoding="utf-8"?>
<!-- Generator: Adobe Illustrator 24.0.1, SVG Export Plug-In . SVG Version: 6.00 Build 0)  -->
<svg version="1.1"
	 id="Слой_1" xmlns:cc="http://creativecommons.org/ns#" xmlns:dc="http://purl.org/dc/elements/1.1/" xmlns:inkscape="http://www.inkscape.org/namespaces/inkscape" xmlns:rdf="http://www.w3.org/1999/02/22-rdf-syntax-ns#" xmlns:sodipodi="http://sodipodi.sourceforge.net/DTD/sodipodi-0.dtd" xmlns:svg="http://www.w3.org/2000/svg"
	 xmlns="http://www.w3.org/2000/svg" xmlns:xlink="http://www.w3.org/1999/xlink" x="0px" y="0px" viewBox="0 0 100 125"
	 style="enable-background:new 0 0 100 125;" xml:space="preserve">
<style type="text/css">
	.st0{fill:#FFFFFF;}
</style>
<g transform="translate(0,-952.36218)">
	<path class="st0" d="M18.7,957.4c-1.5,0.2-2.7,1.5-2.7,3v84c0,1.7,1.3,3,3,3h62c1.7,0,3-1.3,3-3v-58c0-1.7-1.3-3-3-3s-3,1.3-3,3
		c0,0,0,0.1,0,0.1v55H22v-78h40v13c0,1.7,1.3,3,3,3h16c1.7,0,3-1.3,3-3c0-0.8-0.3-1.6-0.9-2.1l-16-16c-0.6-0.6-1.3-0.9-2.1-0.9H19
		C18.9,957.4,18.8,957.4,18.7,957.4z M68,967.6l5.8,5.8H68V967.6z M27.7,980.4c-1.7,0.1-2.9,1.5-2.8,3.2s1.5,2.9,3.2,2.8h22
		c1.7,0,3-1.3,3-3c0-1.7-1.3-3-3-3c0,0-0.1,0-0.1,0H28C27.9,980.4,27.8,980.4,27.7,980.4z M27.7,991.4c-1.7,0.1-2.9,1.5-2.8,3.2
		s1.5,2.9,3.2,2.8h44c1.7,0,3-1.3,3-3s-1.3-3-3-3c0,0-0.1,0-0.1,0H28C27.9,991.4,27.8,991.4,27.7,991.4z M27.7,1002.4
		c-1.7,0.1-2.9,1.5-2.8,3.2s1.5,2.9,3.2,2.8c0,0,0,0,0,0h44c1.7,0,3-1.3,3-3s-1.3-3-3-3c0,0-0.1,0-0.1,0H28
		C27.9,1002.4,27.8,1002.4,27.7,1002.4z M27.7,1013.4c-1.7,0.1-2.9,1.5-2.8,3.2s1.5,2.9,3.2,2.8h44c1.7,0,3-1.3,3-3s-1.3-3-3-3
		c0,0-0.1,0-0.1,0H28C27.9,1013.4,27.8,1013.4,27.7,1013.4z M27.7,1024.4c-1.7,0.1-2.9,1.5-2.8,3.2s1.5,2.9,3.2,2.8h44
		c1.7,0,3-1.3,3-3c0-1.7-1.3-3-3-3c0,0-0.1,0-0.1,0H28C27.9,1024.4,27.8,1024.4,27.7,1024.4z"/>
</g>
</svg>
