<?xml version="1.0" encoding="utf-8"?>
<!-- Generator: Adobe Illustrator 24.0.1, SVG Export Plug-In . SVG Version: 6.00 Build 0)  -->
<svg version="1.1" id="Слой_1" xmlns="http://www.w3.org/2000/svg" xmlns:xlink="http://www.w3.org/1999/xlink" x="0px" y="0px"
	 viewBox="0 0 96 120" style="enable-background:new 0 0 96 120;" xml:space="preserve">
<style type="text/css">
	.st0{fill:#FFFFFF;}
</style>
<path class="st0" d="M68,22c-9.7,0-26-1.7-26-8s16.3-8,26-8c9.7,0,26,1.7,26,8S77.7,22,68,22z M68,10c-13.4,0-21.3,2.7-22,4.1
	c0.7,1.2,8.7,3.9,22,3.9c13.3,0,21.3-2.7,22-4.1C89.3,12.7,81.4,10,68,10z"/>
<path class="st0" d="M40,74v-4c13.2,0,21.1-2.6,22-4.1l0,0c-0.1,0-0.7-0.6-2.8-1.4l1.4-3.8c3.6,1.3,5.4,3.1,5.4,5.2
	C66,72.3,49.7,74,40,74z"/>
<path class="st0" d="M40,82c-9.7,0-26-1.7-26-8v-4.1h4V74c0.7,1.3,8.7,4,22,4c13.4,0,21.3-2.7,22-4.2l0-7.9h4v8
	C66,80.3,49.6,82,40,82z"/>
<path class="st0" d="M36,66c-9.7,0-26-1.7-26-8h4c0.7,1.3,8.6,4,22,4c13,0,21-2.5,22-4c-0.1,0-0.4-0.3-1-0.6l2-3.5
	C61,55,62,56.4,62,58C62,64.3,45.7,66,36,66z"/>
<path class="st0" d="M36,74c-9.7,0-26-1.7-26-8v-8.1h4V66c0.7,1.3,8.7,4,22,4c13.4,0,21.3-2.7,22-4.2l0-7.9h4v8
	C62,72.3,45.6,74,36,74z"/>
<path class="st0" d="M28,54c-9.7,0-26-1.7-26-8s16.3-8,26-8c9.7,0,26,1.7,26,8S37.7,54,28,54z M28,42c-13.4,0-21.3,2.7-22,4.1
	c0.7,1.2,8.7,3.9,22,3.9c13.3,0,21.3-2.7,22-4.1C49.3,44.7,41.4,42,28,42z"/>
<path class="st0" d="M28,62c-9.7,0-26-1.7-26-8v-8.1h4V54c0.7,1.3,8.7,4,22,4c13.4,0,21.3-2.7,22-4.2l0-7.9h4v8
	C54,60.3,37.6,62,28,62z"/>
<path class="st0" d="M35.4,81.9c-11.2,0-24.7-1.9-28.3-5.4C6.2,75.6,6,74.7,6,74c0-2.7,3.2-4.5,9.6-5.6l0.6,3.9
	c-3.6,0.6-5.3,1.3-6,1.8c1.9,1.3,12.2,3.8,25.8,3.7l0,4C35.8,81.9,35.6,81.9,35.4,81.9z"/>
<path class="st0" d="M32,90c-9.7,0-26-1.7-26-8v-8.1h4V82c0.7,1.3,8.7,4,22,4c13.4,0,21.3-2.7,22-4.2l0-3.9h4v4
	C58,88.3,41.6,90,32,90z"/>
<path class="st0" d="M68,34c-9.7,0-26-1.7-26-8c0-1.1,0.9-2,2-2c1.1,0,2,0.9,2,2c0.7,1.3,8.6,4,22,4c13.3,0,21.3-2.7,22-4.1
	c0-1.1,0.9-1.9,2-1.9c1.1,0,2,1,2,2.1C94,32.3,77.7,34,68,34z"/>
<path class="st0" d="M68,46c-9.7,0-26-1.7-26-8c0-1.1,0.9-2,2-2c1.1,0,2,0.9,2,2c0.7,1.3,8.6,4,22,4c13.3,0,21.3-2.7,22-4.1
	c0-1.1,0.9-1.9,2-1.9c1.1,0,2,1,2,2.1C94,44.3,77.7,46,68,46z"/>
<path class="st0" d="M68,58c-4.4,0-13-0.6-16.7-1.1c-1.1-0.2-1.9-1.2-1.7-2.3c0.2-1.1,1.2-1.8,2.3-1.7C55.4,53.5,63.8,54,68,54
	c13.3,0,21.3-2.7,22-4.1c0-1.1,0.9-1.9,2-1.9c1.1,0,2,1,2,2.1C94,56.3,77.7,58,68,58z"/>
<path class="st0" d="M68,70c-1.4,0-2.8,0-4.1-0.1c-1.1,0-2-1-1.9-2.1c0-1.1,0.9-2,2.1-1.9C65.4,66,66.7,66,68,66
	c13.3,0,21.3-2.7,22-4.1c0-1.1,0.9-1.9,2-1.9c1.1,0,2,1,2,2.1C94,68.3,77.7,70,68,70z"/>
<path class="st0" d="M42,13.9h4v28h-4C42,41.9,42,13.9,42,13.9z"/>
<path class="st0" d="M68,78c-1.4,0-2.7,0-4-0.1c-1.1,0-2-1-1.9-2.1c0-1.1,1-1.9,2.1-1.9C65.4,74,66.7,74,68,74
	c13.3,0,21.3-2.6,22-4.1l0-55.9c0-1.1,0.9-2,2-2c1.1,0,2,0.9,2,2V70C94,76.3,77.6,78,68,78z"/>
</svg>
