<?xml version="1.0" encoding="utf-8"?>
<!-- Generator: Adobe Illustrator 24.0.1, SVG Export Plug-In . SVG Version: 6.00 Build 0)  -->
<svg version="1.1" id="Слой_1" xmlns="http://www.w3.org/2000/svg" xmlns:xlink="http://www.w3.org/1999/xlink" x="0px" y="0px"
	 viewBox="0 0 100 98.5" style="enable-background:new 0 0 100 98.5;" xml:space="preserve">
<style type="text/css">
	.st0{fill:#FFFFFF;}
</style>
<g>
	<path class="st0" d="M79,67.7c-2.3,0-4.2-1.9-4.2-4.2c0-2.2,1.7-4,3.9-4.2c0.1,0,0.2,0,0.3,0c5.6-0.3,11.6-3.4,11.6-9.8
		c0-3.3-1.5-5.8-2.7-7.3c-0.1-0.1-0.2-0.2-0.2-0.3c-2-3-5.6-4.7-9.5-4.7c-0.4,0-0.7,0-1.1,0c-1.3,0.1-2.7-0.4-3.5-1.5
		c-0.9-1-1.2-2.4-0.8-3.7c0.4-1.5,0.6-3.1,0.6-4.7c0-9.9-7.9-18-17.6-18s-17.6,8.1-17.6,18c0,0.4,0,0.8,0,1.1
		c0.1,1.4-0.6,2.8-1.7,3.6c-1.2,0.8-2.7,1-4,0.5c-2.2-0.9-4.5-1.3-6.9-1.3c-9,0-16.3,6.4-16.3,14.2c0,3.8,1.1,12.8,11.3,13.7
		c0.2,0,0.4,0.1,0.6,0.1c2,0.3,3.6,2,3.6,4.1c0,2.3-1.9,4.2-4.2,4.2c-0.4,0-0.8,0-1.3-0.1C8.3,66.4,1,57.8,1,45.6
		c0-12.4,11.1-22.5,24.6-22.5c1.5,0,3,0.1,4.5,0.4c2-12.7,12.8-22.4,25.7-22.4c14.3,0,26,11.8,26,26.3c0,0.6,0,1.2-0.1,1.8
		c5.2,0.9,9.8,3.7,12.8,7.9C97.4,40.7,99,45,99,49.5c0,11.2-9.7,17.5-19.4,18.1C79.4,67.7,79.2,67.7,79,67.7z M21.8,59.6L21.8,59.6
		L21.8,59.6z M20.8,59.4L20.8,59.4L20.8,59.4z"/>
	<path class="st0" d="M22.2,67.7c-2.3,0-4.2-1.9-4.2-4.2c0-2.3,1.9-4.2,4.2-4.2h13.6l0,0c2.3,0,4.2,1.9,4.2,4.2
		c0,2.3-1.9,4.2-4.2,4.2H22.2L22.2,67.7z"/>
	<path class="st0" d="M65.8,68c-2.3,0-4.1-1.8-4.2-4.1c0-2.3,1.8-4.2,4.1-4.2l11.5-0.1c2.3,0,4.2,1.8,4.2,4.1s-1.8,4.2-4.1,4.2
		L65.8,68C65.9,68,65.9,68,65.8,68z"/>
	<path class="st0" d="M50,96.9c-1,0-1.9-0.3-2.7-1l-13.2-11c-1.8-1.5-2-4.1-0.5-5.9s4.1-2,5.9-0.5l6.3,5.3V45.5
		c0-2.3,1.9-4.2,4.2-4.2s4.2,1.9,4.2,4.2v47.1c0,1.6-0.9,3.1-2.4,3.8C51.2,96.7,50.6,96.9,50,96.9z"/>
	<path class="st0" d="M50,96.9c-1.2,0-2.4-0.5-3.2-1.5c-1.5-1.8-1.2-4.4,0.6-5.9l13.2-10.8c1.8-1.5,4.4-1.2,5.9,0.6
		c1.5,1.8,1.2,4.4-0.6,5.9L52.6,95.9C51.9,96.5,50.9,96.9,50,96.9z"/>
</g>
</svg>
