<?xml version="1.0" encoding="utf-8"?>
<!-- Generator: Adobe Illustrator 24.0.1, SVG Export Plug-In . SVG Version: 6.00 Build 0)  -->
<svg version="1.1" id="Слой_1" xmlns="http://www.w3.org/2000/svg" xmlns:xlink="http://www.w3.org/1999/xlink" x="0px" y="0px"
	 viewBox="0 0 96 88.4" style="enable-background:new 0 0 96 88.4;" xml:space="preserve">
<style type="text/css">
	.st0{fill:#FFFFFF;}
</style>
<path class="st0" d="M68,18c-9.7,0-26-1.7-26-8s16.3-8,26-8s26,1.7,26,8S77.7,18,68,18z M68,6c-13.4,0-21.3,2.7-22,4.1
	c0.7,1.2,8.7,3.9,22,3.9s21.3-2.7,22-4.1C89.3,8.7,81.4,6,68,6z"/>
<path class="st0" d="M40,70v-4c13.2,0,21.1-2.6,22-4.1l0,0c-0.1,0-0.7-0.6-2.8-1.4l1.4-3.8c3.6,1.3,5.4,3.1,5.4,5.2
	C66,68.3,49.7,70,40,70z"/>
<path class="st0" d="M40,78c-9.7,0-26-1.7-26-8v-4.1h4V70c0.7,1.3,8.7,4,22,4c13.4,0,21.3-2.7,22-4.2v-7.9h4v8
	C66,76.3,49.6,78,40,78z"/>
<path class="st0" d="M36,62c-9.7,0-26-1.7-26-8h4c0.7,1.3,8.6,4,22,4c13,0,21-2.5,22-4c-0.1,0-0.4-0.3-1-0.6l2-3.5
	c2,1.1,3,2.5,3,4.1C62,60.3,45.7,62,36,62z"/>
<path class="st0" d="M36,70c-9.7,0-26-1.7-26-8v-8.1h4V62c0.7,1.3,8.7,4,22,4c13.4,0,21.3-2.7,22-4.2v-7.9h4v8
	C62,68.3,45.6,70,36,70z"/>
<path class="st0" d="M28,50c-9.7,0-26-1.7-26-8s16.3-8,26-8s26,1.7,26,8S37.7,50,28,50z M28,38c-13.4,0-21.3,2.7-22,4.1
	c0.7,1.2,8.7,3.9,22,3.9s21.3-2.7,22-4.1C49.3,40.7,41.4,38,28,38z"/>
<path class="st0" d="M28,58c-9.7,0-26-1.7-26-8v-8.1h4V50c0.7,1.3,8.7,4,22,4c13.4,0,21.3-2.7,22-4.2v-7.9h4v8
	C54,56.3,37.6,58,28,58z"/>
<path class="st0" d="M35.4,77.9c-11.2,0-24.7-1.9-28.3-5.4C6.2,71.6,6,70.7,6,70c0-2.7,3.2-4.5,9.6-5.6l0.6,3.9
	c-3.6,0.6-5.3,1.3-6,1.8c1.9,1.3,12.2,3.8,25.8,3.7v4C35.8,77.9,35.6,77.9,35.4,77.9z"/>
<path class="st0" d="M32,86c-9.7,0-26-1.7-26-8v-8.1h4V78c0.7,1.3,8.7,4,22,4c13.4,0,21.3-2.7,22-4.2v-3.9h4v4
	C58,84.3,41.6,86,32,86z"/>
<path class="st0" d="M68,30c-9.7,0-26-1.7-26-8c0-1.1,0.9-2,2-2s2,0.9,2,2c0.7,1.3,8.6,4,22,4c13.3,0,21.3-2.7,22-4.1
	c0-1.1,0.9-1.9,2-1.9s2,1,2,2.1C94,28.3,77.7,30,68,30z"/>
<path class="st0" d="M68,42c-9.7,0-26-1.7-26-8c0-1.1,0.9-2,2-2s2,0.9,2,2c0.7,1.3,8.6,4,22,4c13.3,0,21.3-2.7,22-4.1
	c0-1.1,0.9-1.9,2-1.9s2,1,2,2.1C94,40.3,77.7,42,68,42z"/>
<path class="st0" d="M68,54c-4.4,0-13-0.6-16.7-1.1c-1.1-0.2-1.9-1.2-1.7-2.3s1.2-1.8,2.3-1.7C55.4,49.5,63.8,50,68,50
	c13.3,0,21.3-2.7,22-4.1c0-1.1,0.9-1.9,2-1.9s2,1,2,2.1C94,52.3,77.7,54,68,54z"/>
<path class="st0" d="M68,66c-1.4,0-2.8,0-4.1-0.1c-1.1,0-2-1-1.9-2.1c0-1.1,0.9-2,2.1-1.9C65.4,62,66.7,62,68,62
	c13.3,0,21.3-2.7,22-4.1c0-1.1,0.9-1.9,2-1.9s2,1,2,2.1C94,64.3,77.7,66,68,66z"/>
<path class="st0" d="M42,9.9h4v28h-4V9.9z"/>
<path class="st0" d="M68,74c-1.4,0-2.7,0-4-0.1c-1.1,0-2-1-1.9-2.1c0-1.1,1-1.9,2.1-1.9C65.4,70,66.7,70,68,70
	c13.3,0,21.3-2.6,22-4.1V10c0-1.1,0.9-2,2-2s2,0.9,2,2v56C94,72.3,77.6,74,68,74z"/>
</svg>
