<?xml version="1.0" encoding="utf-8"?>
<!-- Generator: Adobe Illustrator 24.0.1, SVG Export Plug-In . SVG Version: 6.00 Build 0)  -->
<svg version="1.1" id="Layer_1" xmlns="http://www.w3.org/2000/svg" xmlns:xlink="http://www.w3.org/1999/xlink" x="0px" y="0px"
	 viewBox="0 0 450 450" style="enable-background:new 0 0 450 450;" xml:space="preserve">
<style type="text/css">
	.st0{fill:url(#SVGID_1_);}
	.st1{fill:url(#SVGID_2_);}
	.st2{fill:url(#SVGID_3_);}
	.st3{fill:url(#SVGID_4_);}
	.st4{fill:url(#SVGID_5_);}
	.st5{fill:url(#SVGID_6_);}
	.st6{fill:url(#SVGID_7_);}
	.st7{fill:url(#SVGID_8_);}
	.st8{fill:url(#SVGID_9_);}
	.st9{fill:url(#SVGID_10_);}
	.st10{fill:#6A6A6A;}
	.st11{fill:url(#SVGID_11_);}
	.st12{fill:url(#SVGID_12_);}
	.st13{fill:url(#SVGID_13_);}
	.st14{fill:url(#SVGID_14_);}
	.st15{fill:url(#SVGID_15_);}
	.st16{fill:url(#SVGID_16_);}
	.st17{fill:url(#SVGID_17_);}
	.st18{fill:url(#SVGID_18_);}
	.st19{fill:url(#SVGID_19_);}
	.st20{fill:#BFAB8C;}
	.st21{fill:#FFE4BB;}
	.st22{fill:#B6B6B6;}
	.st23{fill:#F2F2F2;}
	.st24{fill:#C9AA7B;}
	.st25{fill:#97805C;}
</style>
<g id="XMLID_1_">
	<g id="XMLID_7_">
	</g>
</g>
<g>
	<g>
		
			<linearGradient id="SVGID_1_" gradientUnits="userSpaceOnUse" x1="237.9" y1="362.6831" x2="314.7568" y2="362.6831" gradientTransform="matrix(1 0 0 -1 0 450)">
			<stop  offset="0" style="stop-color:#D7D7D7"/>
			<stop  offset="0.0726" style="stop-color:#DBDBDB"/>
			<stop  offset="0.6449" style="stop-color:#F2F2F2"/>
			<stop  offset="1" style="stop-color:#FBFBFB"/>
		</linearGradient>
		<path class="st0" d="M312.47,110.87c1.68,9.51,2.41,18.83,2.27,27.74c-0.02,1.13-0.06,2.24-0.1,3.34
			c-0.06,1.39-0.14,2.73-0.24,4.1c-7.04-14.52-24.99-24.8-46.04-24.8c-0.85,0-1.8,0.01-2.64,0.05c0.09-0.4,0.15-0.55,0.31-1.12
			c0.05-0.23,0.18-0.56,0.22-0.79c0.01-0.03,0.02-0.05,0.02-0.08c0.03-0.11,0.05-0.23,0.08-0.36c0.13-0.63,0.25-1.26,0.36-1.89
			c0.35-1.9,0.64-3.84,0.88-5.81c0.05-0.37,0.1-0.75,0.14-1.13c0.04-0.28,0.07-0.56,0.09-0.85c0.08-0.74,0.16-1.49,0.22-2.24
			c0.29-3.24,0.43-6.57,0.43-9.94c0-0.79-0.01-1.58-0.02-2.36c-0.01-0.24-0.01-0.47-0.02-0.71c-0.01-0.46-0.02-0.93-0.05-1.39
			c-0.01-0.45-0.04-0.9-0.06-1.35c0-0.22-0.02-0.44-0.03-0.66c-0.01-0.16-0.01-0.31-0.03-0.46c-0.02-0.31-0.04-0.62-0.06-0.93
			c0-0.13-0.01-0.24-0.02-0.35c-0.05-0.67-0.1-1.34-0.16-1.99c-0.08-0.9-0.17-1.78-0.27-2.66c-0.02-0.29-0.07-0.59-0.11-0.88
			c-0.08-0.72-0.17-1.44-0.27-2.15c0-0.03-0.01-0.05-0.01-0.08c-0.12-0.82-0.25-1.64-0.38-2.46c-0.1-0.61-0.21-1.22-0.33-1.83
			c-0.04-0.26-0.09-0.51-0.14-0.76c-0.03-0.19-0.07-0.39-0.11-0.58c-0.11-0.55-0.22-1.1-0.33-1.64c-0.03-0.12-0.05-0.25-0.08-0.37
			c-0.08-0.37-0.17-0.74-0.25-1.1c-0.09-0.37-0.17-0.74-0.26-1.1c-0.01-0.04-0.01-0.07-0.02-0.11c-0.17-0.71-0.35-1.41-0.54-2.1
			c-0.23-0.88-0.48-1.76-0.74-2.63c-0.18-0.62-0.36-1.23-0.56-1.83c-0.01-0.02-0.01-0.03-0.02-0.05c-0.02-0.09-0.05-0.18-0.08-0.27
			c-0.08-0.24-0.16-0.49-0.25-0.73c-0.16-0.51-0.33-1.01-0.51-1.51c-0.13-0.37-0.26-0.74-0.4-1.1c-0.07-0.22-0.15-0.44-0.23-0.65
			c-0.05-0.14-0.11-0.29-0.17-0.43c-0.27-0.73-0.56-1.44-0.85-2.14c-0.14-0.35-0.29-0.7-0.44-1.05s-0.3-0.69-0.45-1.03
			c-0.08-0.17-0.16-0.35-0.23-0.51c-0.23-0.51-0.47-1.02-0.71-1.52c-0.16-0.33-0.32-0.67-0.48-0.99c-0.18-0.35-0.35-0.7-0.53-1.04
			c-0.03-0.06-0.06-0.12-0.09-0.18c-0.1-0.19-0.21-0.39-0.31-0.59c-0.14-0.26-0.27-0.51-0.42-0.76c-0.06-0.11-0.11-0.22-0.17-0.32
			c-0.04-0.07-0.08-0.15-0.12-0.22c-0.31-0.55-0.62-1.1-0.95-1.63c-0.36-0.6-0.72-1.2-1.1-1.79c-0.19-0.29-0.38-0.58-0.57-0.87
			c-0.01-0.02-0.02-0.03-0.04-0.05c-0.08-0.14-0.18-0.28-0.27-0.42c-0.22-0.34-0.45-0.67-0.7-1.01c-0.31-0.44-0.63-0.87-0.95-1.3
			c-0.16-0.21-0.32-0.43-0.49-0.64c-0.23-0.31-0.47-0.61-0.7-0.9c-0.08-0.11-0.17-0.21-0.25-0.31c-0.27-0.33-0.54-0.65-0.82-0.97
			c-0.15-0.17-0.29-0.34-0.44-0.51c-0.5-0.57-1.01-1.13-1.55-1.68c-0.26-0.27-0.52-0.54-0.79-0.8c-0.23-0.22-0.45-0.45-0.68-0.66
			c-0.06-0.07-0.13-0.14-0.2-0.2c-0.16-0.15-0.33-0.3-0.49-0.44c-0.75-0.69-1.51-1.33-2.28-1.93c-0.02-0.01-0.03-0.03-0.05-0.04
			c-0.32-0.25-0.65-0.5-0.97-0.74c-0.08-0.06-0.15-0.11-0.23-0.16c-0.16-0.13-0.32-0.24-0.49-0.36c-0.15-0.1-0.29-0.2-0.44-0.3
			c-0.04-0.02-0.07-0.04-0.1-0.06c-1.21-0.83-2.45-1.55-3.71-2.19c0.68-0.16,1.35-0.31,2.03-0.43c11.84-2.09,23.85,1.91,34.7,10.43
			c-0.01,0-0.01,0-0.02,0c0.12,0.1,0.24,0.18,0.36,0.28c0.11,0.08,0.23,0.18,0.35,0.27h0.01c0.61,0.5,1.21,1,1.81,1.52
			c0.47,0.4,0.94,0.82,1.4,1.25c0.53,0.48,1.06,0.97,1.58,1.48c0.03,0.02,0.05,0.04,0.06,0.04c0.5,0.5,1,0.99,1.51,1.51
			c0.51,0.52,1.02,1.06,1.54,1.61c0.5,0.55,1.01,1.11,1.5,1.67c0.59,0.68,1.18,1.35,1.76,2.05c0.4,0.49,0.8,0.98,1.2,1.48
			c0.92,1.16,1.82,2.35,2.71,3.57c0.04,0.07,0.09,0.14,0.15,0.21c0.45,0.64,0.92,1.3,1.38,1.97c0.44,0.66,0.91,1.34,1.34,2.02
			c0.43,0.64,0.84,1.3,1.26,1.96c0.09,0.16,0.19,0.31,0.27,0.46c0.37,0.59,0.73,1.19,1.08,1.8c0.43,0.71,0.85,1.44,1.27,2.18
			c0.4,0.73,0.81,1.47,1.21,2.22c0.81,1.52,1.59,3.07,2.35,4.64c0.75,1.57,1.49,3.18,2.18,4.81c0.36,0.82,0.71,1.64,1.04,2.48
			c0.32,0.78,0.63,1.56,0.94,2.35c0.06,0.13,0.1,0.26,0.15,0.39c0.29,0.77,0.58,1.55,0.87,2.33c0.31,0.86,0.62,1.73,0.91,2.6
			c0.27,0.77,0.51,1.53,0.76,2.3c0.08,0.23,0.16,0.48,0.23,0.72c0.24,0.77,0.47,1.53,0.71,2.31c0.24,0.83,0.49,1.68,0.73,2.52
			c0.04,0.14,0.08,0.28,0.11,0.43c0.17,0.58,0.33,1.17,0.47,1.75c0.12,0.43,0.23,0.86,0.34,1.29c0.46,1.81,0.89,3.64,1.28,5.5
			c0.14,0.65,0.27,1.3,0.41,1.97C312.06,108.61,312.27,109.73,312.47,110.87z"/>
		
			<linearGradient id="SVGID_2_" gradientUnits="userSpaceOnUse" x1="274.63" y1="348.6" x2="345.9947" y2="348.6" gradientTransform="matrix(1 0 0 -1 0 450)">
			<stop  offset="0" style="stop-color:#3491E3"/>
			<stop  offset="1" style="stop-color:#54B6FF"/>
		</linearGradient>
		<path class="st1" d="M274.63,39.56c24.05,2.69,50.06,28.05,63.33,64.47c7.64,21.01,9.65,41.91,6.8,59.21
			c-2.56-9.89-13.75-17.34-27.17-17.34c-1.08,0-2.14,0.05-3.19,0.15c0.1-1.36,0.19-2.72,0.24-4.1c0.04-1.1,0.08-2.21,0.1-3.34
			c0.14-8.91-0.59-18.23-2.27-27.74c-0.2-1.14-0.41-2.26-0.63-3.37c-0.14-0.67-0.27-1.32-0.41-1.97c-0.39-1.86-0.82-3.69-1.28-5.5
			c-0.11-0.43-0.22-0.86-0.34-1.29c-0.14-0.58-0.3-1.17-0.47-1.75c-0.03-0.15-0.07-0.29-0.11-0.43c-0.24-0.84-0.49-1.69-0.73-2.52
			c-0.24-0.78-0.47-1.54-0.71-2.31c-0.07-0.24-0.15-0.49-0.23-0.72c-0.25-0.77-0.49-1.53-0.76-2.3c-0.29-0.87-0.6-1.74-0.91-2.6
			c-0.29-0.78-0.58-1.56-0.87-2.33c-0.05-0.13-0.09-0.26-0.15-0.39c-0.31-0.79-0.62-1.57-0.94-2.35c-0.33-0.84-0.68-1.66-1.04-2.48
			c-0.69-1.63-1.43-3.24-2.18-4.81c-0.76-1.57-1.54-3.12-2.35-4.64c-0.4-0.75-0.81-1.49-1.21-2.22c-0.42-0.74-0.84-1.47-1.27-2.18
			c-0.35-0.61-0.71-1.21-1.08-1.8c-0.08-0.15-0.18-0.3-0.27-0.46c-0.42-0.66-0.83-1.32-1.26-1.96c-0.43-0.68-0.9-1.36-1.34-2.02
			c-0.46-0.67-0.93-1.33-1.38-1.97c-0.06-0.07-0.11-0.14-0.15-0.21c-0.89-1.22-1.79-2.41-2.71-3.57c-0.4-0.5-0.8-0.99-1.2-1.48
			c-0.58-0.7-1.17-1.37-1.76-2.05c-0.49-0.56-1-1.12-1.5-1.67c-0.52-0.55-1.03-1.09-1.54-1.61s-1.01-1.01-1.51-1.51
			c-0.01,0-0.03-0.02-0.06-0.04c-0.52-0.51-1.05-1-1.58-1.48c-0.46-0.43-0.93-0.85-1.4-1.25c-0.6-0.52-1.2-1.02-1.81-1.52h-0.01
			c-0.12-0.09-0.24-0.19-0.35-0.27C274.86,39.74,274.74,39.65,274.63,39.56z"/>
		
			<linearGradient id="SVGID_3_" gradientUnits="userSpaceOnUse" x1="181.53" y1="376.15" x2="268.47" y2="376.15" gradientTransform="matrix(1 0 0 -1 0 450)">
			<stop  offset="0" style="stop-color:#3491E3"/>
			<stop  offset="1" style="stop-color:#54B6FF"/>
		</linearGradient>
		<path class="st2" d="M183.66,118.95c-0.51-2.51-0.93-5.07-1.25-7.7c-0.05-0.37-0.1-0.75-0.14-1.13c-0.03-0.28-0.07-0.56-0.09-0.85
			c-0.08-0.74-0.16-1.49-0.22-2.24c-0.29-3.24-0.43-6.57-0.43-9.94c0-0.79,0.01-1.58,0.02-2.36c0.01-0.24,0.01-0.47,0.02-0.71
			c0.01-0.46,0.03-0.93,0.05-1.39c0.02-0.67,0.05-1.34,0.1-2.01c0.01-0.47,0.05-0.93,0.08-1.39c0.01-0.13,0.01-0.24,0.02-0.35
			c0.05-0.67,0.1-1.34,0.16-1.99c0.08-0.9,0.17-1.78,0.27-2.66c0.03-0.29,0.07-0.59,0.11-0.88c0.08-0.72,0.17-1.44,0.28-2.15
			c0-0.03,0-0.05,0-0.08c0.12-0.82,0.25-1.64,0.38-2.46c0.1-0.61,0.21-1.22,0.33-1.83c0.04-0.26,0.09-0.51,0.14-0.76
			c0.03-0.19,0.07-0.39,0.11-0.58c0.11-0.55,0.22-1.1,0.33-1.64c0.03-0.12,0.06-0.25,0.09-0.37c0.16-0.74,0.32-1.47,0.5-2.2
			c0.01-0.04,0.02-0.07,0.02-0.11c0.17-0.71,0.35-1.41,0.54-2.1c0.24-0.88,0.48-1.76,0.74-2.63c0.21-0.72,0.44-1.44,0.67-2.15
			c0.24-0.75,0.49-1.5,0.75-2.24s0.53-1.47,0.81-2.18c0.26-0.73,0.55-1.44,0.84-2.14c0.14-0.35,0.29-0.7,0.44-1.05
			c0.15-0.35,0.3-0.69,0.45-1.03c0.16-0.35,0.31-0.68,0.47-1.02c0.15-0.34,0.32-0.68,0.47-1.01c0.16-0.33,0.32-0.67,0.49-0.99
			c0.17-0.35,0.35-0.7,0.52-1.04c0.17-0.3,0.32-0.6,0.48-0.9c0.17-0.32,0.35-0.64,0.52-0.95c0.18-0.31,0.35-0.62,0.52-0.93
			c0.18-0.31,0.36-0.62,0.54-0.92c0.36-0.6,0.72-1.2,1.1-1.79c0.19-0.29,0.38-0.58,0.57-0.87c1.33-2,2.74-3.88,4.22-5.6
			c0.15-0.17,0.29-0.34,0.44-0.51c0.5-0.57,1.02-1.13,1.55-1.68c0.26-0.27,0.52-0.54,0.79-0.8c0.9-0.9,1.83-1.74,2.78-2.52
			c0.3-0.26,0.61-0.51,0.92-0.75c0.32-0.25,0.65-0.5,0.97-0.74c0.45-0.33,0.9-0.64,1.35-0.94c1.2-0.8,2.41-1.5,3.66-2.12
			c-0.01,0-0.02,0-0.03-0.01c4.07-2.05,8.4-3.16,12.89-3.16s8.82,1.1,12.9,3.16c-0.01,0-0.03,0.01-0.04,0.01
			c1.28,0.64,2.52,1.36,3.75,2.18c0.03,0.02,0.06,0.04,0.1,0.06c0.31,0.21,0.62,0.43,0.93,0.66c0.08,0.05,0.15,0.1,0.23,0.16
			c0.32,0.24,0.65,0.49,0.97,0.74c0.02,0.01,0.03,0.03,0.05,0.04c0.29,0.23,0.59,0.46,0.87,0.71c0.47,0.39,0.95,0.8,1.41,1.22
			c0.23,0.2,0.46,0.42,0.69,0.64c0.23,0.21,0.45,0.44,0.68,0.66c0.27,0.26,0.53,0.53,0.79,0.8c0.54,0.55,1.05,1.11,1.55,1.68
			c0.15,0.17,0.29,0.34,0.44,0.51c0.36,0.42,0.71,0.84,1.07,1.28c0.23,0.29,0.47,0.59,0.7,0.9c0.16,0.21,0.33,0.42,0.49,0.64
			c0.32,0.43,0.64,0.86,0.95,1.3c0.33,0.47,0.65,0.95,0.97,1.43c0.02,0.02,0.03,0.03,0.04,0.05c0.19,0.29,0.38,0.58,0.57,0.87
			c0.38,0.59,0.74,1.19,1.1,1.79c0.18,0.3,0.36,0.61,0.54,0.92c0.14,0.24,0.27,0.47,0.41,0.71c0.04,0.07,0.08,0.15,0.12,0.22
			c0.06,0.1,0.11,0.21,0.17,0.32c0.11,0.21,0.23,0.42,0.34,0.63c0.13,0.24,0.26,0.48,0.39,0.72c0.03,0.06,0.06,0.12,0.09,0.18
			c0.18,0.34,0.35,0.69,0.53,1.04c0.16,0.32,0.32,0.66,0.48,0.99s0.32,0.67,0.47,1.01c0.08,0.17,0.16,0.34,0.24,0.51
			c0.07,0.16,0.15,0.34,0.23,0.51c0.15,0.34,0.3,0.68,0.45,1.03c0.15,0.35,0.3,0.7,0.44,1.05c0.29,0.7,0.58,1.41,0.85,2.14
			c0.13,0.35,0.27,0.71,0.4,1.08c0.14,0.36,0.27,0.73,0.4,1.1c0.18,0.5,0.35,1,0.51,1.51c0.11,0.33,0.23,0.67,0.33,1
			c0.01,0.02,0.01,0.03,0.02,0.05c0.19,0.61,0.38,1.22,0.56,1.83c0.26,0.87,0.51,1.75,0.74,2.63c0.19,0.69,0.37,1.39,0.54,2.1
			c0.01,0.04,0.01,0.07,0.02,0.11c0.09,0.36,0.17,0.73,0.26,1.1c0.08,0.36,0.16,0.73,0.24,1.1c0.03,0.12,0.06,0.25,0.09,0.37
			c0.11,0.54,0.22,1.09,0.33,1.64c0.04,0.19,0.08,0.39,0.11,0.58c0.05,0.25,0.1,0.5,0.14,0.76c0.12,0.61,0.23,1.22,0.33,1.83
			c0.13,0.82,0.26,1.64,0.38,2.46c0,0.03,0.01,0.05,0.01,0.08c0.1,0.71,0.19,1.43,0.27,2.15c0.04,0.29,0.09,0.59,0.11,0.88
			c0.1,0.88,0.19,1.76,0.27,2.66c0.06,0.65,0.11,1.32,0.16,1.99c0.01,0.11,0.02,0.22,0.02,0.35c0.03,0.31,0.05,0.62,0.06,0.93
			c0.01,0.15,0.02,0.31,0.02,0.46c0.01,0.22,0.03,0.44,0.04,0.66c0.03,0.45,0.05,0.9,0.06,1.35c0.03,0.46,0.04,0.93,0.05,1.39
			c0.01,0.24,0.01,0.47,0.02,0.71c0.01,0.78,0.02,1.57,0.02,2.36c0,3.37-0.14,6.7-0.43,9.94c-0.06,0.75-0.14,1.5-0.22,2.24
			c-0.02,0.29-0.05,0.57-0.09,0.85c-0.04,0.38-0.09,0.76-0.14,1.13c-0.24,1.97-0.53,3.91-0.88,5.81c-0.12,0.63-0.24,1.26-0.37,1.89
			c-0.02,0.12-0.05,0.24-0.07,0.36c0,0.03-0.01,0.05-0.02,0.08c-0.17,0.71-0.32,1.03-0.53,1.91c-10.97-7.26-25.22-10.82-40.72-10.82
			s-30.43,2.36-41.4,9.6h-0.01C183.51,119.7,183.73,119.33,183.66,118.95z"/>
		
			<linearGradient id="SVGID_4_" gradientUnits="userSpaceOnUse" x1="135.2431" y1="362.6831" x2="212.11" y2="362.6831" gradientTransform="matrix(1 0 0 -1 0 450)">
			<stop  offset="0" style="stop-color:#D7D7D7"/>
			<stop  offset="0.0726" style="stop-color:#DBDBDB"/>
			<stop  offset="0.6449" style="stop-color:#F2F2F2"/>
			<stop  offset="1" style="stop-color:#FBFBFB"/>
		</linearGradient>
		<path class="st3" d="M183.58,120.09c-21.05,0-40.94,11.44-47.98,25.96c-0.1-1.36-0.18-2.72-0.24-4.1c-0.04-1.1-0.07-2.21-0.1-3.34
			c-0.14-8.91,0.59-18.23,2.27-27.74c0.21-1.14,0.41-2.26,0.63-3.37c0.14-0.67,0.27-1.32,0.41-1.97c0.4-1.86,0.82-3.69,1.28-5.5
			c0.11-0.43,0.22-0.86,0.34-1.29c0.15-0.58,0.31-1.17,0.47-1.75c0.03-0.15,0.07-0.29,0.11-0.43c0.24-0.84,0.49-1.69,0.73-2.52
			c0.24-0.78,0.47-1.54,0.71-2.31c0.07-0.24,0.15-0.49,0.23-0.72c0.25-0.77,0.5-1.53,0.76-2.3c0.29-0.87,0.6-1.74,0.91-2.6
			c0.29-0.78,0.58-1.56,0.87-2.33c0.05-0.13,0.1-0.26,0.15-0.39c0.31-0.79,0.62-1.57,0.94-2.35c0.33-0.84,0.69-1.66,1.04-2.48
			c0.69-1.63,1.43-3.24,2.18-4.81c0.76-1.57,1.54-3.12,2.36-4.64c0.39-0.75,0.8-1.49,1.21-2.22c0.41-0.74,0.83-1.47,1.26-2.18
			c0.35-0.61,0.71-1.21,1.08-1.8c0.08-0.15,0.18-0.3,0.28-0.46c0.41-0.66,0.82-1.32,1.25-1.96c0.44-0.68,0.9-1.36,1.35-2.02
			c0.46-0.67,0.92-1.33,1.38-1.97c0.05-0.07,0.1-0.14,0.15-0.21c0.88-1.22,1.78-2.41,2.7-3.57c0.4-0.5,0.81-0.99,1.2-1.48
			c0.58-0.7,1.17-1.37,1.76-2.05c0.49-0.56,1-1.12,1.5-1.67c0.52-0.55,1.03-1.09,1.55-1.61c0.5-0.52,1-1.01,1.5-1.51
			c0.02,0,0.04-0.02,0.06-0.04c0.52-0.51,1.05-1,1.58-1.48c0.46-0.43,0.93-0.85,1.4-1.25c0.6-0.52,1.2-1.02,1.81-1.52h0.01
			c0.12-0.09,0.24-0.19,0.35-0.27c0.12-0.1,0.24-0.18,0.36-0.28c-0.01,0-0.01,0-0.02,0c10.85-8.52,22.87-12.52,34.7-10.43
			c0.69,0.12,1.36,0.28,2.04,0.43c-1.24,0.62-2.45,1.33-3.63,2.13c-0.45,0.3-0.9,0.61-1.35,0.94c-0.32,0.24-0.65,0.49-0.97,0.74
			c-0.31,0.24-0.62,0.49-0.92,0.75c-0.95,0.78-1.88,1.62-2.78,2.52c-0.27,0.26-0.53,0.53-0.79,0.8c-0.53,0.55-1.05,1.11-1.55,1.68
			c-0.15,0.17-0.29,0.34-0.44,0.51c-1.48,1.72-2.89,3.6-4.22,5.6c-0.19,0.29-0.38,0.58-0.57,0.87c-0.38,0.59-0.74,1.19-1.1,1.79
			c-0.18,0.3-0.36,0.61-0.54,0.92c-0.17,0.31-0.34,0.62-0.52,0.93c-0.17,0.31-0.35,0.63-0.52,0.95c-0.16,0.3-0.31,0.6-0.48,0.9
			c-0.17,0.34-0.35,0.69-0.52,1.04c-0.17,0.32-0.33,0.66-0.49,0.99c-0.15,0.33-0.32,0.67-0.47,1.01c-0.16,0.34-0.31,0.67-0.47,1.02
			c-0.15,0.34-0.3,0.68-0.45,1.03s-0.3,0.7-0.44,1.05c-0.29,0.7-0.58,1.41-0.84,2.14c-0.28,0.71-0.55,1.44-0.81,2.18
			s-0.51,1.49-0.75,2.24c-0.23,0.71-0.46,1.43-0.67,2.15c-0.26,0.87-0.5,1.75-0.74,2.63c-0.19,0.69-0.37,1.39-0.54,2.1
			c0,0.04-0.01,0.07-0.02,0.11c-0.18,0.73-0.34,1.46-0.5,2.2c-0.03,0.12-0.06,0.25-0.09,0.37c-0.11,0.54-0.22,1.09-0.33,1.64
			c-0.04,0.19-0.08,0.39-0.11,0.58c-0.05,0.25-0.1,0.5-0.14,0.76c-0.12,0.61-0.23,1.22-0.33,1.83c-0.13,0.82-0.26,1.64-0.38,2.46
			c0,0.03,0,0.05,0,0.08c-0.11,0.71-0.2,1.43-0.28,2.15c-0.04,0.29-0.08,0.59-0.11,0.88c-0.1,0.88-0.19,1.76-0.27,2.66
			c-0.06,0.65-0.11,1.32-0.16,1.99c-0.01,0.11-0.01,0.22-0.02,0.35c-0.03,0.46-0.07,0.92-0.08,1.39c-0.05,0.67-0.08,1.34-0.1,2.01
			c-0.02,0.46-0.04,0.93-0.05,1.39c-0.01,0.24-0.01,0.47-0.02,0.71c-0.01,0.78-0.02,1.57-0.02,2.36c0,3.37,0.14,6.7,0.43,9.94
			c0.06,0.75,0.14,1.5,0.22,2.24c0.02,0.29,0.06,0.57,0.09,0.85c0.04,0.38,0.09,0.76,0.14,1.13c0.32,2.63,0.74,5.19,1.25,7.7
			C183.73,119.33,183.51,119.7,183.58,120.09c0-0.05-0.01-0.07-0.01-0.09c-0.01-0.01-0.01-0.02-0.01-0.02c0-0.02,0-0.03-0.01-0.04
			c0,0.02,0.01,0.05,0.02,0.09L183.58,120.09c-0.07-0.01-0.13-0.01-0.18-0.01C183.44,120.08,183.5,120.08,183.58,120.09z"/>
		
			<linearGradient id="SVGID_5_" gradientUnits="userSpaceOnUse" x1="104.0073" y1="348.6" x2="175.37" y2="348.6" gradientTransform="matrix(1 0 0 -1 0 450)">
			<stop  offset="0" style="stop-color:#3491E3"/>
			<stop  offset="1" style="stop-color:#54B6FF"/>
		</linearGradient>
		<path class="st4" d="M135.36,141.95c0.06,1.38,0.14,2.74,0.24,4.1c-1.05-0.1-2.11-0.15-3.19-0.15c-13.42,0-24.61,7.45-27.17,17.34
			c-2.85-17.3-0.83-38.2,6.81-59.21c13.26-36.42,39.27-61.78,63.32-64.47c-0.11,0.09-0.23,0.18-0.34,0.28
			c-0.11,0.08-0.23,0.18-0.35,0.27h-0.01c-0.61,0.5-1.21,1-1.81,1.52c-0.47,0.4-0.94,0.82-1.4,1.25c-0.53,0.48-1.06,0.97-1.58,1.48
			c-0.02,0.02-0.04,0.04-0.06,0.04c-0.5,0.5-1,0.99-1.5,1.51c-0.52,0.52-1.03,1.06-1.55,1.61c-0.5,0.55-1.01,1.11-1.5,1.67
			c-0.59,0.68-1.18,1.35-1.76,2.05c-0.39,0.49-0.8,0.98-1.2,1.48c-0.92,1.16-1.82,2.35-2.7,3.57c-0.05,0.07-0.1,0.14-0.15,0.21
			c-0.46,0.64-0.92,1.3-1.38,1.97c-0.45,0.66-0.91,1.34-1.35,2.02c-0.43,0.64-0.84,1.3-1.25,1.96c-0.1,0.16-0.2,0.31-0.28,0.46
			c-0.37,0.59-0.73,1.19-1.08,1.8c-0.43,0.71-0.85,1.44-1.26,2.18c-0.41,0.73-0.82,1.47-1.21,2.22c-0.82,1.52-1.6,3.07-2.36,4.64
			c-0.75,1.57-1.49,3.18-2.18,4.81c-0.35,0.82-0.71,1.64-1.04,2.48c-0.32,0.78-0.63,1.56-0.94,2.35c-0.05,0.13-0.1,0.26-0.15,0.39
			c-0.29,0.77-0.58,1.55-0.87,2.33c-0.31,0.86-0.62,1.73-0.91,2.6c-0.26,0.77-0.51,1.53-0.76,2.3c-0.08,0.23-0.16,0.48-0.23,0.72
			c-0.24,0.77-0.47,1.53-0.71,2.31c-0.24,0.83-0.49,1.68-0.73,2.52c-0.04,0.14-0.08,0.28-0.11,0.43c-0.16,0.58-0.32,1.17-0.47,1.75
			c-0.12,0.43-0.23,0.86-0.34,1.29c-0.46,1.81-0.88,3.64-1.28,5.5c-0.14,0.65-0.27,1.3-0.41,1.97c-0.22,1.11-0.42,2.23-0.63,3.37
			c-1.68,9.51-2.41,18.83-2.27,27.74C135.29,139.74,135.32,140.85,135.36,141.95z"/>
		
			<linearGradient id="SVGID_6_" gradientUnits="userSpaceOnUse" x1="105.24" y1="291.49" x2="142.54" y2="291.49" gradientTransform="matrix(1 0 0 -1 0 450)">
			<stop  offset="0" style="stop-color:#2978C9"/>
			<stop  offset="1" style="stop-color:#2266A9"/>
		</linearGradient>
		<path class="st5" d="M142.54,136.44c-2.92,2.96-5.29,6.2-6.94,9.6c-1.05-0.1-2.11-0.15-3.19-0.15c-13.42,0-24.61,7.45-27.17,17.34
			c2.56,9.9,13.75,17.35,27.17,17.35c1.02,0,2.02-0.06,3.01-0.14C135.24,176.19,135.04,158.55,142.54,136.44z"/>
		
			<linearGradient id="SVGID_7_" gradientUnits="userSpaceOnUse" x1="307.4" y1="291.575" x2="344.76" y2="291.575" gradientTransform="matrix(1 0 0 -1 0 450)">
			<stop  offset="0" style="stop-color:#2978C9"/>
			<stop  offset="1" style="stop-color:#2266A9"/>
		</linearGradient>
		<path class="st6" d="M317.59,145.9c-1.08,0-2.14,0.05-3.19,0.15c-1.72-3.55-4.09-6.84-7-9.79c7.56,22.19,7.36,39.92,7.18,44.19
			c0.99,0.08,1.99,0.14,3.01,0.14c13.42,0,24.61-7.45,27.17-17.35C342.2,153.35,331.01,145.9,317.59,145.9z"/>
		
			<linearGradient id="SVGID_8_" gradientUnits="userSpaceOnUse" x1="180.2343" y1="286.755" x2="269.7613" y2="286.755" gradientTransform="matrix(1 0 0 -1 0 450)">
			<stop  offset="0" style="stop-color:#2978C9"/>
			<stop  offset="1" style="stop-color:#2266A9"/>
		</linearGradient>
		<path class="st7" d="M260.22,118.12c-10.06-5.11-22.19-7.64-35.22-7.64c-12.49,0-24.61,1.54-34.59,5.92
			c-15.15,40.4-9.85,75.54-6.36,90.27c10.93,7.02,25.66,9.34,40.95,9.34c15.5,0,29.75-3.57,40.72-10.82
			c0.18,0.01,0.38,0.01,0.57,0.02C269.7,189.93,274.12,156.51,260.22,118.12z"/>
		
			<linearGradient id="SVGID_9_" gradientUnits="userSpaceOnUse" x1="303.9634" y1="259.7854" x2="245.9628" y2="325.7861" gradientTransform="matrix(1 0 0 -1 0 450)">
			<stop  offset="0.1989" style="stop-color:#B4B4B4"/>
			<stop  offset="0.3404" style="stop-color:#AFAFAF"/>
			<stop  offset="0.5111" style="stop-color:#A0A0A0"/>
			<stop  offset="0.6968" style="stop-color:#888888"/>
			<stop  offset="0.892" style="stop-color:#666666"/>
			<stop  offset="1" style="stop-color:#505050"/>
		</linearGradient>
		<path class="st8" d="M307.4,136.26c-9-9.14-23.13-15.01-39.04-15.01c-0.85,0-1.8,0.01-2.64,0.05c-1.75-1.16-3.59-2.21-5.5-3.18
			c13.91,38.4,9.49,71.81,6.07,87.09c0.69,0.02,1.41,0.03,2.07,0.03c21.05,0,39-10.28,46.04-24.8c0.06,0,0.12,0.01,0.18,0.01
			C314.76,176.18,314.96,158.45,307.4,136.26z"/>
		
			<linearGradient id="SVGID_10_" gradientUnits="userSpaceOnUse" x1="120.28" y1="225.7717" x2="227.2796" y2="356.7714" gradientTransform="matrix(1 0 0 -1 0 450)">
			<stop  offset="0.1989" style="stop-color:#B4B4B4"/>
			<stop  offset="0.3404" style="stop-color:#AFAFAF"/>
			<stop  offset="0.5111" style="stop-color:#A0A0A0"/>
			<stop  offset="0.6968" style="stop-color:#888888"/>
			<stop  offset="0.892" style="stop-color:#666666"/>
			<stop  offset="1" style="stop-color:#505050"/>
		</linearGradient>
		<path class="st9" d="M190.41,116.4c-2.4,1.06-4.68,2.27-6.81,3.68c0.21,0,0.4,0.01-0.01,0.01c0.01,0.02,0.01,0.04,0.01,0.06
			c0,0-0.01-0.03-0.02-0.06c-16.11,0-31.53,6.7-41.04,16.36c-7.49,22.11-7.3,39.75-7.12,44.01c0.06,0,0.12-0.01,0.18-0.01
			c7.04,14.52,26.93,25.95,47.98,25.95c0-0.01,0.01-0.03,0.01-0.04c0.01-0.01,0.01-0.02,0.01-0.03c0.01-0.02,0-0.03,0-0.03
			c0.01-0.01,0.01-0.02,0.01-0.02c0.02-0.06,0.02-0.08,0.02-0.08s0,0.02-0.02,0.08c0,0.01,0,0.03-0.01,0.05c0,0.02,0,0.04-0.01,0.07
			c0.41,0,0.22,0.01,0.02,0.01c0.14,0.09,0.3,0.18,0.44,0.27C180.56,191.94,175.26,156.8,190.41,116.4z M183.61,120.21
			c0.01,0.03,0.01,0.05,0.01,0.06C183.62,120.26,183.62,120.24,183.61,120.21c0-0.01,0-0.03-0.01-0.05
			C183.61,120.18,183.61,120.2,183.61,120.21z"/>
	</g>
	<path class="st10" d="M314.4,148.05c-1.1,0-2-0.9-2-2s0.9-2,2-2s2,0.9,2,2C316.4,147.15,315.5,148.05,314.4,148.05z M314.4,145.05
		c-0.55,0-1,0.45-1,1s0.45,1,1,1s1-0.45,1-1S314.95,145.05,314.4,145.05z"/>
	<path class="st10" d="M265.72,123.3c-1.1,0-2-0.9-2-2s0.9-2,2-2s2,0.9,2,2S266.82,123.3,265.72,123.3z M265.72,120.3
		c-0.55,0-1,0.45-1,1s0.45,1,1,1s1-0.45,1-1S266.27,120.3,265.72,120.3z"/>
	<path class="st10" d="M183.59,122.08c-1.1,0-2-0.9-2-2s0.9-2,2-2s2,0.9,2,2S184.69,122.08,183.59,122.08z M183.59,119.08
		c-0.55,0-1,0.45-1,1s0.45,1,1,1s1-0.45,1-1S184.14,119.08,183.59,119.08z"/>
	<path class="st10" d="M135.6,148.05c-1.1,0-2-0.9-2-2s0.9-2,2-2s2,0.9,2,2C137.6,147.15,136.7,148.05,135.6,148.05z M135.6,145.05
		c-0.55,0-1,0.45-1,1s0.45,1,1,1s1-0.45,1-1S136.15,145.05,135.6,145.05z"/>
	<path class="st10" d="M135.42,182.45c-1.1,0-2-0.9-2-2s0.9-2,2-2s2,0.9,2,2S136.53,182.45,135.42,182.45z M135.42,179.45
		c-0.55,0-1,0.45-1,1s0.45,1,1,1s1-0.45,1-1S135.97,179.45,135.42,179.45z"/>
	<path class="st10" d="M183.59,208.35c-1.1,0-2-0.9-2-2s0.9-2,2-2s2,0.9,2,2C185.59,207.45,184.69,208.35,183.59,208.35z
		 M183.59,205.35c-0.55,0-1,0.45-1,1s0.45,1,1,1s1-0.45,1-1S184.14,205.35,183.59,205.35z"/>
	<path class="st10" d="M266.29,207.24c-1.1,0-2-0.9-2-2s0.9-2,2-2s2,0.9,2,2C268.29,206.34,267.39,207.24,266.29,207.24z
		 M266.29,204.24c-0.55,0-1,0.45-1,1s0.45,1,1,1s1-0.45,1-1S266.84,204.24,266.29,204.24z"/>
	<path class="st10" d="M314.58,182.45c-1.1,0-2-0.9-2-2s0.9-2,2-2s2,0.9,2,2S315.68,182.45,314.58,182.45z M314.58,179.45
		c-0.55,0-1,0.45-1,1s0.45,1,1,1s1-0.45,1-1S315.13,179.45,314.58,179.45z"/>
	
		<linearGradient id="SVGID_11_" gradientUnits="userSpaceOnUse" x1="270.015" y1="140.98" x2="270.015" y2="304.4496" gradientTransform="matrix(1 0 0 -1 0 450)">
		<stop  offset="0" style="stop-color:#808080"/>
		<stop  offset="1" style="stop-color:#CCCCCC"/>
	</linearGradient>
	<path class="st11" d="M225.63,309.02c-0.08,0-0.16-0.02-0.24-0.06c-0.24-0.13-0.33-0.44-0.2-0.68l88.77-162.47
		c0.13-0.24,0.44-0.33,0.68-0.2s0.33,0.44,0.2,0.68l-88.77,162.47C225.98,308.93,225.81,309.02,225.63,309.02z"/>
	
		<linearGradient id="SVGID_12_" gradientUnits="userSpaceOnUse" x1="180.6152" y1="140.98" x2="180.6152" y2="304.4516" gradientTransform="matrix(1 0 0 -1 0 450)">
		<stop  offset="0" style="stop-color:#808080"/>
		<stop  offset="1" style="stop-color:#CCCCCC"/>
	</linearGradient>
	<path class="st12" d="M225.63,309.02c-0.18,0-0.35-0.09-0.44-0.26l-90.03-162.47c-0.13-0.24-0.05-0.55,0.2-0.68
		c0.24-0.13,0.55-0.05,0.68,0.2l90.03,162.47c0.13,0.24,0.05,0.54-0.19,0.68C225.8,309,225.71,309.02,225.63,309.02z"/>
	
		<linearGradient id="SVGID_13_" gradientUnits="userSpaceOnUse" x1="245.67" y1="140.98" x2="245.67" y2="328.9921" gradientTransform="matrix(1 0 0 -1 0 450)">
		<stop  offset="0" style="stop-color:#808080"/>
		<stop  offset="1" style="stop-color:#CCCCCC"/>
	</linearGradient>
	<path class="st13" d="M225.63,309.02c-0.03,0-0.07,0-0.11-0.01c-0.27-0.06-0.44-0.32-0.38-0.59l40.09-187.02
		c0.06-0.27,0.33-0.44,0.59-0.38c0.27,0.06,0.44,0.32,0.38,0.59l-40.09,187.02C226.07,308.86,225.86,309.02,225.63,309.02z"/>
	
		<linearGradient id="SVGID_14_" gradientUnits="userSpaceOnUse" x1="204.615" y1="140.98" x2="204.615" y2="330.4221" gradientTransform="matrix(1 0 0 -1 0 450)">
		<stop  offset="0" style="stop-color:#808080"/>
		<stop  offset="1" style="stop-color:#CCCCCC"/>
	</linearGradient>
	<path class="st14" d="M225.63,309.02c-0.23,0-0.44-0.16-0.49-0.39l-42.03-188.44c-0.06-0.27,0.11-0.54,0.38-0.6s0.54,0.11,0.6,0.38
		l42.03,188.44c0.06,0.27-0.11,0.54-0.38,0.6C225.71,309.02,225.67,309.02,225.63,309.02z"/>
	
		<linearGradient id="SVGID_15_" gradientUnits="userSpaceOnUse" x1="270.105" y1="140.98" x2="270.105" y2="270.0555" gradientTransform="matrix(1 0 0 -1 0 450)">
		<stop  offset="0" style="stop-color:#808080"/>
		<stop  offset="1" style="stop-color:#CCCCCC"/>
	</linearGradient>
	<path class="st15" d="M225.63,309.02c-0.1,0-0.2-0.03-0.28-0.09c-0.23-0.16-0.28-0.47-0.13-0.7l88.94-128.07
		c0.16-0.23,0.47-0.28,0.7-0.13c0.23,0.16,0.28,0.47,0.13,0.7L226.04,308.8C225.95,308.94,225.79,309.02,225.63,309.02z"/>
	
		<linearGradient id="SVGID_16_" gradientUnits="userSpaceOnUse" x1="245.965" y1="140.98" x2="245.965" y2="245.2951" gradientTransform="matrix(1 0 0 -1 0 450)">
		<stop  offset="0" style="stop-color:#808080"/>
		<stop  offset="1" style="stop-color:#CCCCCC"/>
	</linearGradient>
	<path class="st16" d="M225.63,309.02c-0.06,0-0.12-0.01-0.18-0.04c-0.26-0.1-0.38-0.39-0.28-0.65l40.66-103.31
		c0.1-0.26,0.4-0.38,0.65-0.28c0.26,0.1,0.38,0.39,0.28,0.65L226.1,308.7C226.02,308.9,225.83,309.02,225.63,309.02z"/>
	
		<linearGradient id="SVGID_17_" gradientUnits="userSpaceOnUse" x1="204.6129" y1="140.98" x2="204.6129" y2="244.1752" gradientTransform="matrix(1 0 0 -1 0 450)">
		<stop  offset="0" style="stop-color:#808080"/>
		<stop  offset="1" style="stop-color:#CCCCCC"/>
	</linearGradient>
	<path class="st17" d="M225.63,309.02c-0.2,0-0.38-0.12-0.46-0.31l-42.03-102.2c-0.11-0.26,0.02-0.55,0.27-0.65
		c0.26-0.1,0.55,0.02,0.65,0.27l42.03,102.2c0.1,0.26-0.02,0.55-0.27,0.65C225.76,309.01,225.7,309.02,225.63,309.02z"/>
	
		<linearGradient id="SVGID_18_" gradientUnits="userSpaceOnUse" x1="180.525" y1="140.98" x2="180.525" y2="270.0504" gradientTransform="matrix(1 0 0 -1 0 450)">
		<stop  offset="0" style="stop-color:#808080"/>
		<stop  offset="1" style="stop-color:#CCCCCC"/>
	</linearGradient>
	<path class="st18" d="M225.63,309.02c-0.16,0-0.31-0.07-0.41-0.21l-90.21-128.07c-0.16-0.23-0.1-0.54,0.12-0.7
		c0.23-0.16,0.54-0.1,0.7,0.12l90.21,128.07c0.16,0.23,0.1,0.54-0.12,0.7C225.83,308.99,225.73,309.02,225.63,309.02z"/>
</g>
<g>
	<g>
		
			<linearGradient id="SVGID_19_" gradientUnits="userSpaceOnUse" x1="542.8945" y1="-281.8906" x2="508.2613" y2="-316.5238" gradientTransform="matrix(-0.9997 -0.0245 -0.0245 0.9997 775.2026 645.6919)">
			<stop  offset="0" style="stop-color:#E6CDA8"/>
			<stop  offset="1" style="stop-color:#C9AA7B"/>
		</linearGradient>
		<polygon class="st19" points="246.92,288.17 272.84,307.41 272.29,374.48 245.56,360.1 		"/>
	</g>
	<g>
		<polygon class="st20" points="272.29,374.48 244.32,376.45 244.23,376.46 232.56,377.28 209.88,378.88 179.61,366.55 
			215.82,363.01 219.65,362.63 219.66,362.63 245.56,360.1 		"/>
	</g>
	<g>
		<polygon class="st21" points="179.61,366.55 182.74,297.59 246.92,288.17 245.56,360.1 		"/>
	</g>
	<path class="st22" d="M245.56,360.1c0,0,1.68,0.88,4.21,2.19c2.51,1.33,5.86,3.11,9.21,4.89c3.33,1.81,6.66,3.63,9.16,4.99
		c2.49,1.38,4.15,2.31,4.15,2.31s-1.68-0.88-4.21-2.19c-2.51-1.34-5.86-3.12-9.21-4.89c-3.33-1.82-6.66-3.63-9.16-4.99
		C247.22,361.02,245.56,360.1,245.56,360.1z"/>
	<path class="st23" d="M245.56,360.1c0,0,0.06-4.49,0.14-11.24c0.11-6.75,0.26-15.74,0.41-24.73c0.19-8.99,0.38-17.98,0.53-24.72
		c0.17-6.75,0.28-11.24,0.28-11.24s-0.06,4.49-0.15,11.24c-0.11,6.74-0.26,15.74-0.41,24.73c-0.19,8.99-0.38,17.98-0.53,24.72
		C245.68,355.61,245.56,360.1,245.56,360.1z"/>
	<path class="st23" d="M245.56,360.1c0,0-4.12,0.43-10.3,1.07c-6.18,0.62-14.42,1.45-22.67,2.28c-8.25,0.79-16.49,1.57-22.68,2.16
		c-6.19,0.57-10.31,0.94-10.31,0.94s4.12-0.43,10.3-1.07c6.18-0.62,14.42-1.45,22.67-2.27c8.25-0.79,16.49-1.57,22.68-2.16
		C241.44,360.48,245.56,360.1,245.56,360.1z"/>
	<g>
		<polygon class="st24" points="205.69,364.01 206.24,294.22 219.94,292.21 219.65,362.63 		"/>
	</g>
	<polygon class="st25" points="244.32,376.45 244.23,376.46 232.56,377.28 205.69,364.01 215.82,363.01 219.65,362.63 
		219.66,362.63 	"/>
</g>
</svg>
