<?xml version="1.0" encoding="utf-8"?>
<!-- Generator: Adobe Illustrator 24.0.1, SVG Export Plug-In . SVG Version: 6.00 Build 0)  -->
<svg version="1.1" id="Layer_1" xmlns="http://www.w3.org/2000/svg" xmlns:xlink="http://www.w3.org/1999/xlink" x="0px" y="0px"
	 viewBox="0 0 450 450" style="enable-background:new 0 0 450 450;" xml:space="preserve">
<style type="text/css">
	.st0{fill:#FFFFFF;}
</style>
<g id="XMLID_1_">
	<g id="XMLID_7_">
	</g>
</g>
<path class="st0" d="M338.43,103.86c-13.08-35.89-38.62-61.89-63.6-64.78c-11.34-8.87-23.44-12.48-34.98-10.45
	c-0.63,0.11-1.25,0.25-1.88,0.4c-8.33-4.15-17.52-4.16-25.91,0l-0.25-0.06c-0.55-0.12-1.09-0.24-1.65-0.34
	c-11.54-2.04-23.64,1.57-34.98,10.45c-24.98,2.88-50.53,28.89-63.59,64.78c-7.37,20.25-9.79,41.33-6.85,59.35l-0.01,0.03l0.03,0.1
	l0.38,2.31l0.16-0.61c3.43,9.39,14.49,16.05,27.12,16.05c0.2,0,0.4,0,0.6-0.01c0.28,1.07,1.25,1.87,2.41,1.87
	c0.31,0,0.6-0.06,0.87-0.16c1.32,2.27,2.93,4.44,4.79,6.48l72.77,103.26l-31.18,4.58l-0.41,0.06l-3.13,68.94l-0.04,0.79l0.44,0.18
	l30.26,12.33l29.92-2.11l4.57-0.32l0.02,0l27.88-1.96l0.6-0.04l0.01-0.76l0.54-67.02l-25.91-19.24l-0.37-0.28l-0.62,0.09l-6.33,0.93
	l69.04-99.59c1.76-1.96,3.3-4.07,4.58-6.29c0.27,0.1,0.56,0.16,0.86,0.16c1.16,0,2.13-0.8,2.41-1.87c0.2,0,0.41,0.01,0.6,0.01
	c12.62,0,23.69-6.65,27.12-16.04l0.16,0.61l0.38-2.29c0,0,0,0,0,0l0.03-0.12l-0.01-0.03C348.22,145.17,345.79,124.1,338.43,103.86z
	 M337.49,104.2c7.04,19.35,9.53,39.45,7.09,56.87c-0.14-0.37-0.32-0.72-0.48-1.08c-0.12-0.25-0.23-0.51-0.36-0.76
	c-0.26-0.51-0.55-1.01-0.85-1.5c-0.14-0.23-0.31-0.44-0.46-0.66c-0.22-0.32-0.43-0.63-0.66-0.94c-0.18-0.24-0.38-0.46-0.57-0.69
	c-0.23-0.28-0.46-0.56-0.71-0.82c-0.21-0.23-0.44-0.45-0.66-0.67c-0.25-0.25-0.5-0.51-0.77-0.75c-0.24-0.22-0.48-0.42-0.73-0.63
	c-0.28-0.23-0.55-0.47-0.84-0.69c-0.26-0.2-0.53-0.39-0.79-0.59c-0.3-0.21-0.6-0.43-0.9-0.63c-0.28-0.18-0.56-0.36-0.85-0.54
	c-0.32-0.19-0.64-0.38-0.97-0.57c-0.3-0.17-0.6-0.33-0.9-0.48c-0.34-0.17-0.68-0.34-1.03-0.51c-0.31-0.15-0.62-0.29-0.94-0.43
	c-0.36-0.15-0.73-0.3-1.09-0.44c-0.32-0.12-0.64-0.25-0.97-0.36c-0.38-0.13-0.77-0.26-1.16-0.38c-0.33-0.1-0.66-0.21-0.99-0.3
	c-0.41-0.11-0.82-0.21-1.24-0.31c-0.33-0.08-0.66-0.16-0.99-0.23c-0.44-0.09-0.89-0.16-1.34-0.23c-0.32-0.05-0.63-0.11-0.95-0.16
	c-0.51-0.07-1.02-0.11-1.53-0.16c-0.27-0.02-0.55-0.06-0.82-0.08c-0.78-0.05-1.58-0.08-2.37-0.08c-0.01,0-0.02,0-0.03,0c0,0,0,0,0,0
	c0,0,0,0,0,0c0,0,0,0,0,0c-0.26,0-0.52,0.01-0.78,0.02c-0.23-0.86-0.89-1.53-1.75-1.77c0.03-0.55,0.06-1.11,0.08-1.68
	c0.04-1.1,0.08-2.22,0.1-3.35c0.14-9.1-0.62-18.47-2.28-27.83c-0.2-1.14-0.41-2.27-0.63-3.39l-0.17-0.8
	c-0.08-0.39-0.16-0.78-0.24-1.17c-0.38-1.8-0.8-3.6-1.31-5.62c-0.1-0.4-0.21-0.8-0.31-1.19c-0.14-0.59-0.3-1.19-0.47-1.73
	c-0.03-0.16-0.08-0.32-0.12-0.47l-1.44-4.83c-0.07-0.25-0.16-0.51-0.23-0.74l-0.15-0.46c-0.2-0.62-0.4-1.23-0.61-1.85
	c-0.29-0.87-0.6-1.75-0.92-2.62l-0.92-2.45c-0.04-0.1-0.07-0.2-0.11-0.28c-0.31-0.79-0.62-1.57-0.94-2.35
	c-0.33-0.85-0.69-1.67-1.05-2.49c-0.62-1.46-1.33-3.04-2.19-4.83c-0.83-1.7-1.6-3.23-2.36-4.66c-0.33-0.62-0.66-1.22-0.99-1.83
	l-0.22-0.41c-0.42-0.74-0.84-1.48-1.27-2.18c-0.35-0.62-0.72-1.22-1.07-1.79c-0.05-0.09-0.1-0.18-0.16-0.27l-0.43-0.69
	c-0.32-0.51-0.64-1.01-0.96-1.49c-0.3-0.48-0.62-0.96-0.94-1.43l-0.41-0.61c-0.33-0.48-0.67-0.96-1-1.42l-0.42-0.59
	c-0.04-0.04-0.07-0.09-0.12-0.18c-0.93-1.28-1.83-2.45-2.72-3.59c-0.4-0.5-0.8-0.99-1.21-1.49c-0.47-0.57-0.96-1.12-1.44-1.68
	l-0.33-0.38c-0.48-0.55-0.98-1.1-1.51-1.68l-0.08-0.09c-0.49-0.52-0.98-1.04-1.46-1.53c-0.34-0.35-0.68-0.68-1.02-1.02l-0.64-0.64
	h-0.02c-0.49-0.48-0.99-0.94-1.48-1.39c-0.47-0.44-0.94-0.86-1.41-1.26c-0.38-0.33-0.75-0.64-1.13-0.96
	C300.43,44.05,324.82,69.44,337.49,104.2z M311.69,154.16c0.06,0.32,0.13,0.64,0.19,0.96c0.05,0.25,0.09,0.49,0.14,0.74
	c0.06,0.31,0.11,0.62,0.17,0.92c0.04,0.25,0.09,0.5,0.13,0.74c0.05,0.3,0.1,0.59,0.15,0.89c0.04,0.25,0.08,0.49,0.12,0.73
	c0.05,0.29,0.09,0.57,0.13,0.85c0.04,0.24,0.07,0.48,0.11,0.72c0.04,0.27,0.08,0.55,0.12,0.82c0.03,0.24,0.07,0.47,0.1,0.71
	c0.04,0.27,0.07,0.53,0.11,0.79c0.03,0.23,0.06,0.46,0.09,0.69c0.03,0.26,0.06,0.51,0.09,0.76c0.03,0.23,0.05,0.45,0.08,0.68
	c0.03,0.24,0.05,0.48,0.08,0.72c0.02,0.22,0.05,0.45,0.07,0.67c0.02,0.23,0.05,0.46,0.07,0.69c0.02,0.21,0.04,0.43,0.06,0.64
	c0.02,0.22,0.04,0.44,0.06,0.66c0.02,0.21,0.03,0.41,0.05,0.61c0.02,0.21,0.03,0.42,0.05,0.63c0.01,0.2,0.03,0.4,0.04,0.6
	c0.01,0.2,0.03,0.39,0.04,0.59c0.01,0.2,0.03,0.39,0.04,0.59c0.01,0.19,0.02,0.37,0.03,0.55c0.01,0.19,0.02,0.38,0.03,0.57
	c0.01,0.18,0.02,0.35,0.02,0.53c0.01,0.18,0.02,0.35,0.02,0.52c0.01,0.17,0.01,0.34,0.02,0.51c0.01,0.16,0.01,0.33,0.02,0.49
	c0,0.16,0.01,0.31,0.01,0.46c0,0.16,0.01,0.33,0.01,0.48c0,0.14,0,0.27,0.01,0.41c0,0.16,0.01,0.31,0.01,0.46c0,0.13,0,0.26,0,0.39
	c0,0.14,0,0.29,0,0.43c0,0.12,0,0.24,0,0.36c0,0.1,0,0.2,0,0.3c-1.17,0.21-2.06,1.23-2.06,2.46c0,0.7,0.29,1.34,0.76,1.79
	l-3.59,5.17c-5.98,7.15-14.93,12.53-25.23,15.28l27.34-50.12c0.06,0.28,0.12,0.56,0.17,0.83
	C311.59,153.66,311.64,153.91,311.69,154.16z M235.78,289.3l-2.13,0.31l32.16-81.93c0.16,0.03,0.32,0.05,0.48,0.05
	c1.21,0,2.22-0.86,2.45-2.01c4.63-0.03,9.15-0.57,13.47-1.56l-46.42,85.09C235.78,289.28,235.78,289.29,235.78,289.3z
	 M216.89,292.07c-0.01-0.03-0.01-0.06-0.03-0.09l-48.13-86.96c4.03,1.01,8.2,1.64,12.41,1.81c0.23,1.15,1.24,2.01,2.45,2.01
	c0.18,0,0.35-0.02,0.52-0.06l34.1,83.09L216.89,292.07z M141.19,187.9l-4-5.68c0.45-0.45,0.74-1.08,0.74-1.77
	c0-1.23-0.89-2.24-2.06-2.46c0-0.06,0-0.11,0-0.17c0-0.12,0-0.24,0-0.36c0-0.13,0-0.27,0-0.41c0-0.13,0-0.26,0-0.4
	c0-0.14,0-0.29,0.01-0.44c0-0.14,0-0.29,0.01-0.44c0-0.15,0.01-0.29,0.01-0.44c0-0.16,0.01-0.33,0.01-0.49
	c0-0.15,0.01-0.31,0.01-0.46c0.01-0.18,0.01-0.36,0.02-0.54c0.01-0.16,0.01-0.32,0.02-0.48c0.01-0.19,0.02-0.39,0.03-0.58
	c0.01-0.16,0.02-0.32,0.02-0.49c0.01-0.21,0.02-0.41,0.03-0.63c0.01-0.17,0.02-0.34,0.03-0.51c0.01-0.22,0.03-0.44,0.04-0.66
	c0.01-0.18,0.02-0.35,0.04-0.53c0.02-0.23,0.03-0.46,0.05-0.69c0.01-0.18,0.03-0.36,0.04-0.55c0.02-0.24,0.04-0.48,0.06-0.73
	c0.02-0.19,0.03-0.37,0.05-0.56c0.02-0.25,0.05-0.51,0.08-0.77c0.02-0.19,0.04-0.38,0.06-0.58c0.03-0.27,0.06-0.54,0.09-0.81
	c0.02-0.19,0.04-0.39,0.07-0.59c0.03-0.28,0.07-0.57,0.1-0.85c0.02-0.2,0.05-0.39,0.07-0.59c0.04-0.29,0.08-0.59,0.12-0.9
	c0.03-0.2,0.05-0.4,0.08-0.6c0.04-0.31,0.09-0.62,0.14-0.94c0.03-0.2,0.06-0.4,0.09-0.6c0.05-0.32,0.1-0.65,0.15-0.97
	c0.03-0.2,0.06-0.41,0.1-0.61c0.05-0.33,0.11-0.67,0.17-1.01c0.04-0.21,0.07-0.41,0.11-0.62c0.06-0.34,0.13-0.69,0.19-1.04
	c0.04-0.21,0.08-0.42,0.12-0.63c0.07-0.35,0.14-0.71,0.21-1.07c0.04-0.22,0.08-0.43,0.13-0.65c0.07-0.36,0.15-0.73,0.23-1.1
	l28.21,50.97C156.55,200.53,147.35,194.98,141.19,187.9z M137.19,144.14c0,0,0-0.01,0.01-0.01c1.14-1.95,2.53-3.85,4.15-5.68
	c-0.16,0.51-0.32,1.01-0.47,1.51c-0.1,0.31-0.19,0.62-0.28,0.93c-0.14,0.46-0.27,0.91-0.41,1.36c-0.08,0.27-0.15,0.54-0.23,0.81
	c-0.1,0.36-0.21,0.73-0.31,1.09c-0.08,0.29-0.15,0.57-0.23,0.86c-0.09,0.34-0.18,0.67-0.27,1.01c-0.08,0.29-0.15,0.58-0.22,0.87
	c-0.08,0.32-0.16,0.64-0.24,0.96c-0.07,0.29-0.14,0.59-0.21,0.88c-0.07,0.31-0.15,0.62-0.22,0.92c-0.02,0.08-0.04,0.15-0.05,0.23
	l-1.04-1.89c0.57-0.46,0.94-1.15,0.94-1.94C138.1,145.28,137.74,144.6,137.19,144.14z M138.93,151.19c0.04-0.17,0.07-0.33,0.11-0.5
	c0.04-0.2,0.09-0.4,0.13-0.6c0.1-0.42,0.2-0.84,0.3-1.26c0.04-0.19,0.09-0.37,0.13-0.56c0.11-0.45,0.23-0.91,0.34-1.36
	c0.04-0.17,0.08-0.33,0.13-0.49c0.14-0.52,0.28-1.05,0.42-1.58c0.03-0.1,0.05-0.2,0.08-0.3c0.17-0.64,0.36-1.28,0.54-1.92
	c0,0,0,0,0,0c0.38-1.3,0.78-2.62,1.21-3.96c0.03-0.09,0.06-0.19,0.09-0.28c0.18-0.55,0.36-1.1,0.55-1.65
	c9.13-9.22,23.14-15.19,37.24-16.02c0.15-0.01,0.3-0.01,0.46-0.02c0.16-0.01,0.32-0.01,0.49-0.02c0.26,1.1,1.25,1.92,2.43,1.92
	c0.02,0,0.05-0.01,0.07-0.01l1.74,7.77c-0.12,0.44-0.25,0.89-0.36,1.33c-0.17,0.65-0.33,1.3-0.49,1.95
	c-0.14,0.56-0.28,1.12-0.42,1.67c-0.16,0.66-0.3,1.31-0.45,1.96c-0.12,0.54-0.25,1.08-0.36,1.62c-0.14,0.67-0.27,1.33-0.4,1.99
	c-0.1,0.51-0.21,1.03-0.31,1.54c-0.13,0.7-0.25,1.39-0.37,2.08c-0.08,0.47-0.17,0.94-0.25,1.4c-0.13,0.79-0.25,1.56-0.37,2.34
	c-0.05,0.36-0.12,0.73-0.17,1.09c-0.16,1.13-0.31,2.25-0.45,3.36c-0.04,0.3-0.07,0.6-0.1,0.9c-0.1,0.81-0.19,1.61-0.27,2.41
	c-0.04,0.43-0.08,0.85-0.12,1.28c-0.06,0.66-0.13,1.32-0.18,1.98c-0.04,0.45-0.07,0.9-0.1,1.35c-0.05,0.61-0.09,1.23-0.13,1.84
	c-0.03,0.46-0.05,0.92-0.07,1.38c-0.03,0.58-0.07,1.16-0.09,1.73c-0.02,0.47-0.03,0.92-0.05,1.39c-0.02,0.55-0.04,1.11-0.05,1.66
	c-0.01,0.46-0.02,0.91-0.02,1.37c-0.01,0.53-0.02,1.07-0.02,1.59c0,0.46,0,0.91,0,1.37c0,0.51,0,1.02,0.01,1.52
	c0.01,0.45,0.02,0.9,0.02,1.34c0.01,0.49,0.02,0.98,0.03,1.47c0.01,0.44,0.03,0.87,0.05,1.3c0.02,0.48,0.03,0.95,0.06,1.42
	c0.02,0.43,0.04,0.85,0.07,1.27c0.02,0.46,0.05,0.92,0.08,1.37c0.03,0.41,0.05,0.82,0.08,1.23c0.03,0.45,0.06,0.89,0.1,1.33
	c0.03,0.4,0.06,0.79,0.1,1.18c0.04,0.43,0.07,0.85,0.11,1.27c0.04,0.39,0.07,0.76,0.11,1.14c0.04,0.41,0.08,0.82,0.13,1.22
	c0.04,0.37,0.08,0.73,0.12,1.09c0.05,0.4,0.09,0.79,0.14,1.18c0.04,0.35,0.09,0.69,0.13,1.03c0.05,0.38,0.1,0.76,0.15,1.13
	c0.05,0.33,0.09,0.66,0.14,0.98c0.05,0.36,0.11,0.72,0.16,1.08c0.05,0.31,0.1,0.62,0.14,0.92c0.06,0.35,0.11,0.69,0.17,1.03
	c0.05,0.29,0.1,0.58,0.15,0.86c0.06,0.33,0.12,0.66,0.17,0.98c0.05,0.27,0.1,0.54,0.15,0.8c0.06,0.32,0.12,0.63,0.18,0.93
	c0.05,0.25,0.1,0.49,0.14,0.73c0.06,0.3,0.12,0.59,0.18,0.88c0.03,0.12,0.05,0.26,0.08,0.38c-0.89,0.25-1.59,0.97-1.78,1.88
	c-4.44-0.19-8.84-0.88-13.07-2L138.93,151.19z M186.99,118.64c0.82-0.45,1.66-0.88,2.54-1.29c-0.17,0.47-0.33,0.93-0.49,1.39
	c-0.22,0.61-0.44,1.22-0.64,1.82c-0.22,0.65-0.43,1.29-0.64,1.94c-0.2,0.6-0.4,1.2-0.58,1.8c-0.2,0.65-0.4,1.29-0.59,1.94
	c-0.18,0.59-0.36,1.17-0.53,1.76c-0.04,0.15-0.09,0.3-0.13,0.46l-1.36-6.08c0.9-0.38,1.54-1.27,1.54-2.31
	c0-0.29-0.06-0.57-0.15-0.83c0.23-0.13,0.44-0.27,0.67-0.4C186.74,118.78,186.86,118.71,186.99,118.64z M217.5,111.18
	c0.65-0.04,1.31-0.07,1.98-0.09c0.41-0.02,0.82-0.03,1.23-0.04c0.46-0.01,0.93-0.03,1.39-0.04c0.95-0.02,1.92-0.03,2.9-0.03
	c0,0,0,0,0,0c0.9,0,1.79,0.02,2.68,0.04c0.38,0.01,0.75,0.03,1.13,0.04c0.48,0.02,0.96,0.04,1.44,0.06c0.5,0.03,1,0.06,1.5,0.1
	c0.3,0.02,0.6,0.04,0.9,0.07c0.62,0.05,1.24,0.1,1.85,0.17c0.08,0.01,0.15,0.02,0.23,0.02c9.29,0.97,17.82,3.34,25.08,6.99
	c0.24,0.66,0.46,1.32,0.69,1.98c0.17,0.48,0.34,0.96,0.5,1.43c0.24,0.71,0.46,1.41,0.69,2.12c0.15,0.46,0.3,0.91,0.44,1.37
	c0.23,0.73,0.44,1.46,0.65,2.18c0.12,0.42,0.26,0.85,0.38,1.27c0.11,0.38,0.21,0.76,0.31,1.13l-17.93,83.23
	c-6.36,1.53-13.25,2.33-20.54,2.33c-7.32,0-13.97-0.56-19.94-1.65l-18.68-83.32c0.24-0.86,0.47-1.73,0.72-2.6
	c0.12-0.43,0.26-0.86,0.39-1.28c0.24-0.81,0.48-1.62,0.74-2.44c0.15-0.49,0.33-0.98,0.49-1.47c0.25-0.76,0.5-1.52,0.76-2.29
	c0.18-0.53,0.39-1.07,0.58-1.6c0.25-0.69,0.49-1.39,0.75-2.09c7.18-3.12,16.1-4.99,26.6-5.59
	C217.44,111.19,217.47,111.18,217.5,111.18z M264.8,135.06c0.04,0.18,0.09,0.36,0.14,0.55c0.27,1.12,0.52,2.23,0.76,3.34
	c0.05,0.24,0.1,0.48,0.15,0.72c0.18,0.86,0.36,1.72,0.53,2.57c0.08,0.4,0.14,0.79,0.22,1.18c0.13,0.69,0.26,1.39,0.38,2.07
	c0.08,0.43,0.14,0.86,0.21,1.29c0.1,0.64,0.21,1.28,0.31,1.91c0.07,0.45,0.13,0.9,0.19,1.35c0.09,0.6,0.18,1.21,0.25,1.8
	c0.06,0.47,0.11,0.93,0.17,1.4c0.07,0.57,0.14,1.14,0.21,1.7c0.05,0.48,0.1,0.96,0.15,1.43c0.06,0.54,0.11,1.08,0.16,1.62
	c0.04,0.47,0.08,0.94,0.12,1.41c0.04,0.53,0.09,1.06,0.13,1.59c0.03,0.47,0.06,0.93,0.09,1.4c0.03,0.52,0.07,1.04,0.1,1.55
	c0.02,0.46,0.04,0.91,0.06,1.37c0.02,0.51,0.05,1.02,0.07,1.52c0.02,0.45,0.02,0.89,0.04,1.34c0.01,0.5,0.03,1,0.04,1.49
	c0.01,0.45,0.01,0.88,0.01,1.32c0,0.48,0.01,0.96,0.01,1.44c0,0.43-0.01,0.86-0.01,1.29c0,0.47-0.01,0.94-0.01,1.41
	c-0.01,0.42-0.02,0.83-0.03,1.24c-0.01,0.46-0.02,0.93-0.04,1.39c-0.01,0.41-0.03,0.8-0.05,1.21c-0.02,0.45-0.04,0.91-0.06,1.36
	c-0.02,0.4-0.04,0.78-0.07,1.17c-0.03,0.44-0.05,0.88-0.08,1.32c-0.03,0.38-0.05,0.76-0.08,1.13c-0.03,0.43-0.06,0.86-0.1,1.28
	c-0.03,0.37-0.06,0.73-0.1,1.1c-0.04,0.42-0.07,0.84-0.11,1.24c-0.03,0.35-0.07,0.7-0.11,1.05c-0.04,0.41-0.08,0.82-0.13,1.23
	c-0.04,0.33-0.08,0.66-0.12,0.98c-0.05,0.4-0.1,0.81-0.15,1.21c-0.04,0.32-0.08,0.62-0.12,0.93c-0.05,0.39-0.1,0.79-0.16,1.17
	c-0.04,0.3-0.09,0.6-0.13,0.9c-0.06,0.38-0.11,0.76-0.17,1.13c-0.04,0.28-0.09,0.56-0.13,0.84c-0.06,0.37-0.12,0.74-0.18,1.1
	c-0.04,0.26-0.09,0.52-0.13,0.77c-0.06,0.36-0.13,0.73-0.19,1.08c-0.04,0.24-0.09,0.47-0.13,0.71c-0.07,0.36-0.13,0.71-0.2,1.05
	c-0.04,0.22-0.09,0.43-0.13,0.64c-0.03,0.13-0.05,0.26-0.08,0.39c0,0-0.01,0-0.01,0c-1.38,0-2.5,1.12-2.5,2.5
	c0,0.18,0.02,0.36,0.06,0.54c-5.11,3.13-10.94,5.53-17.33,7.16l17.47-81.09c0.03,0.13,0.07,0.25,0.1,0.38
	C264.34,133.18,264.57,134.12,264.8,135.06z M263.76,127.34c-0.18-0.6-0.35-1.2-0.54-1.81c-0.17-0.55-0.35-1.11-0.52-1.66
	c-0.19-0.6-0.39-1.21-0.59-1.82c-0.19-0.56-0.38-1.12-0.57-1.68c-0.14-0.41-0.27-0.81-0.42-1.22c0.78,0.42,1.54,0.84,2.27,1.28
	c-0.1,0.27-0.17,0.56-0.17,0.87c0,1.06,0.67,1.97,1.61,2.33l-0.91,4.24C263.87,127.69,263.81,127.51,263.76,127.34z M183.94,203.88
	c-0.02-0.07-0.03-0.14-0.05-0.21c-0.06-0.27-0.11-0.55-0.17-0.83c-0.05-0.25-0.1-0.49-0.15-0.75c-0.06-0.3-0.12-0.62-0.18-0.93
	c-0.05-0.25-0.1-0.5-0.14-0.76c-0.06-0.34-0.12-0.7-0.19-1.05c-0.04-0.25-0.09-0.5-0.13-0.76c-0.06-0.37-0.13-0.76-0.19-1.15
	c-0.04-0.26-0.08-0.51-0.13-0.78c-0.06-0.4-0.12-0.82-0.19-1.24c-0.04-0.27-0.08-0.53-0.12-0.8c-0.06-0.44-0.12-0.9-0.18-1.35
	c-0.04-0.27-0.07-0.52-0.11-0.79c-0.06-0.48-0.12-0.97-0.18-1.47c-0.03-0.26-0.06-0.52-0.09-0.78c-0.06-0.52-0.11-1.05-0.17-1.59
	c-0.03-0.26-0.05-0.51-0.08-0.77c-0.05-0.56-0.1-1.14-0.15-1.71c-0.02-0.25-0.04-0.49-0.06-0.74c-0.05-0.6-0.09-1.21-0.13-1.82
	c-0.02-0.24-0.04-0.48-0.05-0.73c-0.04-0.63-0.08-1.28-0.11-1.93c-0.01-0.24-0.03-0.47-0.04-0.71c-0.03-0.68-0.06-1.38-0.08-2.08
	c-0.01-0.22-0.02-0.43-0.02-0.64c-0.02-0.74-0.04-1.49-0.05-2.24c0-0.19-0.01-0.38-0.01-0.57c-0.01-0.79-0.01-1.59-0.01-2.4
	c0-0.17,0-0.33,0-0.5c0-0.83,0.02-1.68,0.04-2.53c0-0.15,0-0.3,0.01-0.45c0.02-0.92,0.05-1.85,0.09-2.79c0-0.09,0-0.17,0.01-0.26
	c0.04-1,0.09-2.01,0.16-3.03c0-0.03,0-0.07,0.01-0.1c0.52-8.45,1.76-17.66,4.08-27.35c0.05-0.2,0.1-0.4,0.15-0.6
	c0.18-0.74,0.37-1.48,0.56-2.22l18.21,81.23c-7.06-1.38-13.12-3.54-18.16-6.46c0.1-0.27,0.17-0.56,0.17-0.87
	C186.09,205.09,185.15,204.06,183.94,203.88z M219.07,291.75l-34.18-83.28c0.19-0.11,0.36-0.25,0.51-0.4
	c5.24,3.04,11.56,5.27,18.93,6.67l17.18,76.65L219.07,291.75z M222.4,291.27c0-0.02,0-0.03,0-0.05l-17.1-76.3
	c5.93,1.05,12.5,1.59,19.71,1.59c7.19,0,14-0.76,20.3-2.24l-16.38,76.05L222.4,291.27z M246.28,214.02
	c6.63-1.65,12.68-4.1,17.98-7.33c0.21,0.29,0.47,0.52,0.78,0.7l-32.31,82.3c-0.01,0.02,0,0.03-0.01,0.05l-2.85,0.42L246.28,214.02z
	 M268.74,204.73c-0.17-0.8-0.72-1.47-1.46-1.79c0.02-0.09,0.04-0.18,0.05-0.27c0.06-0.31,0.13-0.62,0.19-0.94
	c0.05-0.26,0.1-0.52,0.15-0.78c0.06-0.32,0.12-0.64,0.18-0.98c0.05-0.27,0.1-0.55,0.15-0.83c0.06-0.34,0.12-0.67,0.18-1.02
	c0.05-0.29,0.1-0.59,0.14-0.88c0.06-0.35,0.11-0.7,0.17-1.05c0.05-0.3,0.09-0.61,0.14-0.92c0.05-0.36,0.11-0.73,0.16-1.1
	c0.04-0.32,0.09-0.64,0.13-0.96c0.05-0.38,0.1-0.75,0.15-1.14c0.04-0.33,0.08-0.67,0.12-1.01c0.05-0.39,0.09-0.78,0.14-1.18
	c0.04-0.35,0.07-0.7,0.11-1.06c0.04-0.4,0.08-0.79,0.12-1.2c0.04-0.37,0.07-0.75,0.1-1.12c0.04-0.41,0.07-0.81,0.11-1.22
	c0.03-0.38,0.06-0.77,0.09-1.16c0.03-0.42,0.06-0.83,0.09-1.26c0.03-0.4,0.05-0.81,0.07-1.21c0.02-0.42,0.05-0.85,0.07-1.28
	c0.02-0.42,0.04-0.85,0.05-1.27c0.02-0.43,0.04-0.85,0.05-1.29c0.01-0.44,0.02-0.89,0.04-1.34c0.01-0.43,0.02-0.85,0.03-1.28
	c0.01-0.47,0.01-0.96,0.01-1.44c0-0.42,0.01-0.83,0.01-1.26c0-0.53-0.01-1.06-0.01-1.6c0-0.39,0-0.77-0.01-1.16
	c-0.01-0.76-0.04-1.54-0.06-2.31c-0.01-0.31-0.02-0.61-0.03-0.92c-0.03-0.81-0.06-1.63-0.11-2.46c-0.02-0.37-0.05-0.75-0.07-1.13
	c-0.04-0.6-0.07-1.2-0.11-1.82c-0.03-0.42-0.07-0.84-0.1-1.26c-0.05-0.58-0.09-1.15-0.14-1.74c-0.04-0.44-0.09-0.89-0.13-1.34
	c-0.06-0.57-0.11-1.14-0.17-1.71c-0.05-0.46-0.11-0.93-0.17-1.4c-0.07-0.57-0.13-1.13-0.21-1.71c-0.06-0.47-0.13-0.95-0.2-1.43
	c-0.08-0.57-0.16-1.15-0.24-1.73c-0.07-0.48-0.15-0.97-0.23-1.46c-0.09-0.58-0.18-1.16-0.28-1.74c-0.08-0.49-0.18-0.99-0.27-1.49
	c-0.11-0.58-0.21-1.17-0.32-1.76c-0.1-0.51-0.2-1.02-0.31-1.52c-0.12-0.59-0.24-1.17-0.36-1.76c-0.11-0.52-0.23-1.04-0.35-1.56
	c-0.13-0.59-0.26-1.18-0.4-1.77c-0.13-0.53-0.26-1.06-0.39-1.59c-0.15-0.59-0.29-1.18-0.45-1.78c-0.14-0.54-0.29-1.08-0.43-1.61
	c-0.09-0.35-0.18-0.7-0.28-1.05l1.28-5.92c1.22,0,2.24-0.89,2.45-2.05c0.06,0,0.13,0,0.19,0c0,0,0,0,0.01,0
	c0.81,0,1.62,0.02,2.42,0.05c0.3,0.01,0.59,0.02,0.89,0.04c0.47,0.02,0.93,0.06,1.4,0.09c13.48,1.03,25.76,6.44,33.9,14.64
	c0.2,0.6,0.4,1.2,0.6,1.79c0.01,0.03,0.02,0.06,0.03,0.09c0.43,1.34,0.84,2.65,1.21,3.95c0.05,0.16,0.09,0.32,0.14,0.49
	c0.14,0.48,0.27,0.95,0.4,1.42c0.06,0.23,0.12,0.45,0.18,0.68c0.11,0.4,0.22,0.81,0.32,1.21c0.06,0.24,0.12,0.48,0.18,0.72
	c0.1,0.38,0.2,0.76,0.29,1.14c0.06,0.25,0.12,0.49,0.18,0.74c0.09,0.36,0.17,0.72,0.26,1.07c0.06,0.26,0.12,0.51,0.17,0.77
	c0.05,0.21,0.09,0.41,0.14,0.62L282.85,203C278.34,204.1,273.6,204.7,268.74,204.73z M311.7,149.48c-0.06-0.28-0.13-0.55-0.2-0.83
	c-0.08-0.33-0.16-0.65-0.24-0.98c-0.07-0.28-0.14-0.55-0.21-0.83c-0.09-0.34-0.17-0.67-0.26-1.01c-0.07-0.28-0.15-0.56-0.23-0.84
	c-0.09-0.34-0.18-0.68-0.28-1.03c-0.08-0.27-0.16-0.55-0.23-0.82c-0.1-0.36-0.2-0.72-0.31-1.08c-0.06-0.2-0.12-0.4-0.18-0.6
	c-0.25-0.85-0.52-1.72-0.79-2.59c-0.06-0.19-0.12-0.37-0.18-0.56c0.07,0.08,0.14,0.15,0.2,0.23c0.39,0.45,0.77,0.92,1.14,1.38
	c0.17,0.21,0.32,0.42,0.49,0.64c0.32,0.43,0.63,0.86,0.93,1.29c0.09,0.13,0.19,0.26,0.27,0.39c0.37,0.56,0.72,1.13,1.06,1.71
	c0.04,0.06,0.07,0.13,0.11,0.19c-0.55,0.46-0.91,1.14-0.91,1.91c0,0.79,0.38,1.5,0.96,1.95l-1.05,1.93
	C311.77,149.78,311.74,149.63,311.7,149.48z M240.02,29.62c11.18-1.97,22.91,1.51,33.96,10.06l0.32,0.26
	c0.07,0.05,0.13,0.1,0.2,0.15c0.05,0.04,0.11,0.08,0.19,0.15l0.41,0.31c0.58,0.48,1.16,0.96,1.74,1.46c0.46,0.4,0.93,0.81,1.39,1.24
	c0.53,0.48,1.05,0.96,1.57,1.47l0.56,0.53c0.33,0.33,0.67,0.66,1.01,1.01c0.48,0.49,0.96,1,1.45,1.52l0.11,0.12
	c0.49,0.54,0.98,1.08,1.46,1.62l0.33,0.38c0.48,0.55,0.95,1.1,1.42,1.66c0.4,0.49,0.8,0.98,1.2,1.47c0.89,1.12,1.77,2.28,2.67,3.51
	c0.05,0.1,0.12,0.19,0.17,0.25l0.39,0.55c0.33,0.46,0.66,0.94,0.98,1.41l0.41,0.61c0.31,0.46,0.63,0.93,0.93,1.41
	c0.32,0.48,0.64,0.98,0.95,1.48l0.42,0.68c0.05,0.08,0.09,0.15,0.15,0.25c0.37,0.58,0.72,1.18,1.08,1.79
	c0.43,0.71,0.84,1.43,1.26,2.16l0.22,0.4c0.33,0.6,0.66,1.2,0.99,1.81c0.76,1.42,1.52,2.93,2.34,4.62c0.85,1.77,1.56,3.34,2.17,4.8
	c0.36,0.81,0.71,1.63,1.04,2.47c0.32,0.78,0.63,1.55,0.95,2.37c0.03,0.07,0.06,0.15,0.09,0.22l0.92,2.46
	c0.31,0.86,0.62,1.72,0.91,2.6c0.21,0.61,0.41,1.22,0.61,1.83l0.15,0.47c0.08,0.22,0.16,0.46,0.22,0.7l1.44,4.82
	c0.04,0.13,0.07,0.25,0.11,0.43c0.17,0.57,0.33,1.15,0.47,1.74c0.11,0.4,0.21,0.79,0.34,1.28c0.48,1.9,0.9,3.7,1.28,5.48
	c0.08,0.39,0.16,0.77,0.24,1.16l0.17,0.8c0.22,1.11,0.43,2.22,0.63,3.36c1.64,9.31,2.4,18.61,2.26,27.64
	c-0.02,1.13-0.06,2.23-0.1,3.33c-0.02,0.56-0.06,1.11-0.09,1.66c-0.12,0.02-0.24,0.04-0.36,0.08c-1.58-2.75-3.57-5.35-5.94-7.76
	l-1.54-1.56l0.04,0.13c-7.87-7.27-18.65-11.93-30.55-13.3c-0.03,0-0.06-0.01-0.09-0.01c-0.77-0.09-1.55-0.16-2.34-0.22
	c-0.53-0.04-1.07-0.08-1.6-0.11c-0.28-0.01-0.56-0.03-0.85-0.04c-0.82-0.03-1.64-0.05-2.47-0.05c0,0,0,0,0,0c0,0,0,0,0,0
	c0,0,0,0,0,0c-0.07,0-0.14,0-0.2,0c-0.17-0.74-0.66-1.35-1.32-1.68l0-0.02c0.12-0.58,0.23-1.15,0.33-1.73
	c0.01-0.06,0.02-0.12,0.03-0.17c0.34-1.84,0.64-3.8,0.88-5.83c0.05-0.38,0.1-0.76,0.14-1.13c0.04-0.29,0.07-0.58,0.09-0.87
	c0.08-0.74,0.16-1.5,0.22-2.25c0.29-3.21,0.43-6.57,0.43-9.98c0-0.73-0.01-1.47-0.02-2.19l-0.02-0.89
	c-0.01-0.47-0.02-0.94-0.05-1.39c-0.01-0.31-0.02-0.62-0.04-0.93l-0.02-0.41c0,0,0,0,0-0.01c0-0.16-0.01-0.32-0.02-0.48l-0.02-0.35
	c0-0.12-0.01-0.23-0.02-0.31c-0.01-0.32-0.03-0.64-0.06-0.9c0-0.15-0.01-0.27-0.02-0.39c-0.05-0.67-0.1-1.35-0.16-2
	c-0.08-0.9-0.17-1.79-0.27-2.65c-0.02-0.24-0.05-0.48-0.09-0.72l-0.03-0.18c-0.08-0.72-0.17-1.45-0.27-2.09l-0.01-0.15
	c-0.12-0.82-0.25-1.63-0.38-2.47c-0.1-0.62-0.21-1.23-0.33-1.83c-0.04-0.27-0.09-0.52-0.14-0.76c-0.03-0.2-0.07-0.41-0.11-0.6
	l-0.37-1.82c-0.01-0.07-0.03-0.14-0.04-0.19l-0.37-1.6c-0.05-0.21-0.1-0.41-0.15-0.62l-0.02-0.1c-0.17-0.72-0.35-1.42-0.54-2.11
	c-0.23-0.89-0.48-1.77-0.74-2.64c-0.01-0.03-0.02-0.05-0.02-0.07c-0.12-0.4-0.25-0.81-0.38-1.23c-0.06-0.18-0.11-0.36-0.17-0.54
	l-0.02-0.04c-0.02-0.09-0.05-0.19-0.08-0.28l-0.05-0.14c-0.05-0.16-0.11-0.32-0.16-0.47l-0.04-0.11c-0.16-0.52-0.33-1.02-0.52-1.53
	c-0.13-0.38-0.26-0.75-0.4-1.09c-0.07-0.23-0.16-0.46-0.24-0.67c-0.05-0.15-0.12-0.31-0.17-0.43c-0.27-0.74-0.56-1.45-0.85-2.15
	c-0.13-0.32-0.27-0.65-0.45-1.06l-0.46-1.05c-0.08-0.17-0.16-0.34-0.23-0.5c-0.23-0.51-0.47-1.03-0.72-1.53l-0.71-1.43
	c-0.1-0.21-0.21-0.41-0.31-0.6l-0.18-0.35c-0.07-0.14-0.15-0.28-0.22-0.43l-0.07-0.14c-0.1-0.19-0.2-0.36-0.3-0.53l-0.11-0.2
	c-0.04-0.08-0.08-0.16-0.12-0.22l-0.12-0.22c-0.08-0.14-0.16-0.27-0.24-0.41l-0.17-0.3c-0.18-0.31-0.36-0.62-0.54-0.93
	c-0.36-0.6-0.72-1.21-1.11-1.81l-0.54-0.81l-0.09-0.14c-0.05-0.08-0.1-0.16-0.16-0.24l-0.09-0.14c-0.23-0.35-0.46-0.69-0.71-1.03
	c-0.31-0.44-0.64-0.88-0.95-1.31c-0.01-0.01-0.01-0.02-0.02-0.02l-0.12-0.16c-0.06-0.08-0.11-0.15-0.17-0.23
	c0,0-0.01-0.01-0.01-0.01l-0.18-0.23c-0.21-0.28-0.42-0.54-0.62-0.81l-0.09-0.11c0,0,0,0-0.01-0.01c-0.05-0.07-0.11-0.14-0.16-0.2
	l-0.08-0.1c-0.27-0.33-0.55-0.66-0.83-0.98l-0.44-0.51c-0.51-0.58-1.02-1.14-1.57-1.7c-0.26-0.27-0.53-0.55-0.8-0.81l-0.26-0.26
	c-0.11-0.11-0.22-0.21-0.31-0.3c-0.04-0.03-0.07-0.07-0.11-0.1c-0.01,0-0.01-0.01-0.01-0.01c-0.06-0.07-0.13-0.14-0.19-0.19
	c-0.16-0.15-0.34-0.31-0.49-0.44c-0.54-0.5-1.12-0.98-1.72-1.47c-0.14-0.12-0.29-0.24-0.43-0.36l-0.21-0.16
	c-0.32-0.25-0.66-0.5-0.98-0.75c-0.09-0.07-0.17-0.13-0.23-0.16c-0.01-0.01-0.03-0.02-0.04-0.03c-0.13-0.1-0.25-0.19-0.39-0.29
	l-0.34-0.23c-0.06-0.04-0.12-0.09-0.18-0.13l-0.1-0.06c0,0,0,0,0,0c-0.65-0.45-1.33-0.87-2.03-1.27H240l-0.62-0.32
	C239.59,29.7,239.8,29.66,240.02,29.62z M236.39,29.39l1.24,0.62c1.28,0.64,2.49,1.34,3.7,2.15c0.04,0.03,0.08,0.05,0.09,0.05
	c0,0,0.01,0.01,0.01,0.01l0.01,0c0.3,0.2,0.6,0.42,0.93,0.66c0.07,0.04,0.13,0.09,0.2,0.14c0.29,0.22,0.59,0.44,0.94,0.71l0,0
	l0.12,0.1c0.76,0.59,1.49,1.21,2.18,1.85c0.01,0.01,0.02,0.02,0.04,0.03c0.22,0.19,0.45,0.41,0.68,0.63
	c0.13,0.12,0.27,0.25,0.4,0.38l0.27,0.27c0.27,0.26,0.52,0.52,0.78,0.79c0.53,0.54,1.04,1.1,1.53,1.66l0.44,0.51
	c0.36,0.42,0.71,0.83,1.06,1.26l0.09,0.11c0.2,0.25,0.41,0.51,0.61,0.78l0.06,0.07c0.06,0.08,0.12,0.16,0.18,0.23
	c0.08,0.11,0.16,0.21,0.25,0.33c0.32,0.43,0.64,0.85,0.94,1.29c0.33,0.47,0.65,0.94,1,1.47l0.57,0.87c0.38,0.59,0.74,1.18,1.09,1.78
	c0.01,0.02,0.02,0.04,0.03,0.06c0.23,0.36,0.44,0.74,0.65,1.12l0.38,0.67c0.03,0.05,0.06,0.11,0.09,0.16l0.08,0.16
	c0.01,0.02,0.02,0.04,0.03,0.06l0.77,1.45c0.1,0.19,0.2,0.39,0.3,0.59l0.7,1.42c0.16,0.32,0.32,0.66,0.47,1.01l0.23,0.5
	c0.07,0.16,0.15,0.35,0.23,0.51l0.49,1.11c0.14,0.32,0.27,0.63,0.4,0.96c0.29,0.69,0.58,1.4,0.84,2.12l0.11,0.29
	c0.1,0.26,0.2,0.52,0.29,0.8c0.14,0.36,0.27,0.72,0.4,1.09c0.18,0.49,0.35,0.99,0.51,1.5l0.09,0.26c0.07,0.21,0.14,0.43,0.22,0.67
	c0,0.01,0.01,0.02,0.01,0.02l0.03,0.09c0.19,0.61,0.38,1.21,0.56,1.82c0.26,0.86,0.51,1.74,0.74,2.62c0.19,0.68,0.37,1.38,0.54,2.1
	l0.02,0.1c0.05,0.2,0.1,0.4,0.14,0.6l0.77,3.59c0.04,0.18,0.08,0.37,0.11,0.57c0.05,0.24,0.1,0.49,0.14,0.76
	c0.12,0.6,0.23,1.21,0.33,1.83c0.13,0.81,0.26,1.62,0.37,2.36l0.01,0.15c0.1,0.71,0.19,1.42,0.27,2.15l0.03,0.2
	c0.03,0.22,0.06,0.43,0.08,0.67c0.1,0.88,0.19,1.75,0.27,2.65c0.06,0.65,0.11,1.31,0.16,1.99c0,0.05,0.01,0.1,0.01,0.15
	c0,0.05,0.01,0.11,0.01,0.19l0,0.01c0,0,0,0,0,0c0.03,0.3,0.05,0.6,0.06,0.91c0.01,0.14,0.02,0.29,0.02,0.45l0.04,0.67
	c0.03,0.44,0.05,0.89,0.06,1.35c0.03,0.45,0.04,0.92,0.05,1.38l0.02,0.87c0.01,0.72,0.02,1.45,0.02,2.18c0,3.39-0.14,6.72-0.43,9.9
	c-0.06,0.75-0.14,1.49-0.22,2.25c-0.02,0.28-0.05,0.54-0.09,0.83c-0.04,0.38-0.09,0.75-0.14,1.12c-0.25,2.02-0.54,3.96-0.88,5.78
	c-0.12,0.61-0.23,1.22-0.36,1.85c-0.05,0-0.09-0.01-0.14-0.01c-0.71,0-1.35,0.3-1.81,0.78c0,0-0.01-0.01-0.01-0.01
	c-1.18-0.7-2.39-1.37-3.64-2l-0.94-0.48l0,0.01c-7.14-3.44-15.38-5.67-24.38-6.61c-0.11-0.01-0.21-0.02-0.32-0.03
	c-0.63-0.06-1.27-0.12-1.91-0.17c-0.29-0.02-0.58-0.04-0.87-0.06c-0.52-0.04-1.05-0.07-1.58-0.1c-0.47-0.03-0.94-0.04-1.41-0.06
	c-0.39-0.02-0.78-0.03-1.17-0.04c-0.89-0.02-1.79-0.04-2.69-0.04c0,0,0,0,0,0c0,0,0,0,0,0c0,0,0,0,0,0c-0.97,0-1.93,0.01-2.88,0.03
	c-0.49,0.01-0.98,0.03-1.46,0.04c-0.39,0.01-0.78,0.02-1.17,0.04c-0.7,0.03-1.39,0.06-2.08,0.1c-0.05,0-0.1,0.01-0.15,0.01
	c-10.23,0.57-18.82,2.32-25.96,5.28l0-0.01l-0.39,0.17c-1.39,0.59-2.72,1.23-4,1.91c-0.12,0.06-0.24,0.12-0.35,0.19
	c-0.37,0.2-0.74,0.41-1.11,0.63c-0.01,0.01-0.02,0.01-0.03,0.02c-0.38-0.41-0.9-0.69-1.49-0.77c-0.41-2.14-0.76-4.29-1.02-6.43
	c-0.05-0.37-0.1-0.74-0.14-1.12l-0.03-0.27c-0.02-0.19-0.04-0.37-0.06-0.58c-0.08-0.74-0.16-1.48-0.22-2.23
	c-0.28-3.17-0.43-6.5-0.43-9.9c0-0.79,0.01-1.58,0.02-2.34l0.02-0.72c0.01-0.43,0.03-0.88,0.05-1.39c0.02-0.66,0.05-1.33,0.1-2.01
	c0.01-0.34,0.03-0.67,0.05-1l0.04-0.71c0.05-0.67,0.1-1.33,0.16-1.98c0.08-0.9,0.17-1.77,0.27-2.65c0.03-0.28,0.07-0.58,0.11-0.88
	c0.08-0.71,0.17-1.43,0.28-2.21c0.11-0.75,0.23-1.5,0.35-2.25l0.03-0.2c0.1-0.6,0.21-1.21,0.33-1.83c0.04-0.25,0.09-0.5,0.14-0.76
	c0.03-0.18,0.07-0.37,0.11-0.56l0.33-1.62l0.09-0.38c0.16-0.74,0.32-1.46,0.5-2.2l0.03-0.15c0.16-0.69,0.34-1.36,0.52-2.03
	c0.24-0.88,0.48-1.75,0.74-2.62c0.21-0.72,0.44-1.43,0.67-2.14c0.24-0.75,0.49-1.49,0.75-2.23c0.26-0.73,0.53-1.46,0.81-2.18
	c0.26-0.72,0.54-1.42,0.83-2.12c0.13-0.32,0.26-0.63,0.43-1.04c0.15-0.35,0.3-0.69,0.45-1.02l0.1-0.21
	c0.12-0.27,0.24-0.53,0.38-0.81c0.08-0.18,0.17-0.37,0.25-0.55l0.31-0.65c0.12-0.26,0.25-0.52,0.39-0.78
	c0.11-0.23,0.23-0.46,0.34-0.68l0.17-0.33c0.11-0.2,0.22-0.4,0.32-0.6l0.16-0.31c0.11-0.21,0.23-0.43,0.35-0.64l0.16-0.3
	c0.18-0.31,0.34-0.61,0.52-0.93l0.08-0.14c0.15-0.26,0.31-0.52,0.5-0.86c0.34-0.57,0.68-1.14,1.04-1.69l0.57-0.87
	c1.34-2.02,2.75-3.88,4.18-5.55l0.44-0.51c0.49-0.56,1.01-1.12,1.57-1.7c0.24-0.25,0.49-0.5,0.75-0.75c0.87-0.87,1.79-1.71,2.75-2.5
	c0.29-0.25,0.6-0.5,0.9-0.73c0.32-0.25,0.65-0.5,0.96-0.73c0.44-0.33,0.89-0.63,1.33-0.93c1.18-0.79,2.36-1.47,3.6-2.09l1.22-0.61
	C221,26.07,229.02,26.08,236.39,29.39z M209.98,29.62c0.23,0.04,0.46,0.08,0.69,0.13c-0.84,0.47-1.66,0.97-2.47,1.52
	c-0.46,0.3-0.91,0.62-1.37,0.96c-0.32,0.24-0.65,0.49-0.98,0.74c-0.32,0.25-0.63,0.5-0.93,0.76c-0.98,0.8-1.92,1.66-2.81,2.55
	c-0.26,0.25-0.51,0.51-0.8,0.81c-0.53,0.56-1.06,1.12-1.56,1.7l-0.44,0.52c-1.46,1.7-2.89,3.6-4.26,5.65l-0.57,0.87
	c-0.37,0.57-0.71,1.15-1.11,1.8c-0.15,0.26-0.31,0.52-0.46,0.79l-0.1,0.17c-0.16,0.3-0.33,0.6-0.51,0.91l-0.17,0.3
	c-0.12,0.22-0.24,0.43-0.35,0.65l-0.17,0.32c-0.1,0.19-0.2,0.38-0.32,0.6l-0.18,0.35c-0.12,0.23-0.23,0.46-0.34,0.68
	c-0.14,0.26-0.27,0.53-0.4,0.8l-0.31,0.66c-0.09,0.19-0.18,0.38-0.26,0.56c-0.13,0.27-0.25,0.54-0.38,0.81l-0.1,0.22
	c-0.15,0.34-0.3,0.68-0.49,1.12c-0.14,0.32-0.28,0.65-0.4,0.97c-0.29,0.71-0.59,1.42-0.84,2.15c-0.28,0.72-0.55,1.45-0.82,2.2
	c-0.26,0.74-0.51,1.5-0.75,2.25c-0.23,0.71-0.46,1.44-0.67,2.16c-0.26,0.87-0.5,1.76-0.74,2.64c-0.19,0.7-0.37,1.4-0.54,2.12
	l-0.02,0.11c-0.18,0.73-0.34,1.47-0.5,2.2l-0.42,2.03c-0.04,0.2-0.08,0.41-0.11,0.59c-0.05,0.26-0.1,0.51-0.14,0.76
	c-0.12,0.62-0.23,1.23-0.33,1.85l-0.03,0.2c-0.12,0.75-0.24,1.51-0.35,2.34c-0.11,0.72-0.2,1.44-0.28,2.16
	c-0.04,0.3-0.08,0.6-0.11,0.89c-0.1,0.88-0.19,1.77-0.27,2.67c-0.06,0.65-0.11,1.33-0.16,1.99l-0.05,0.72
	c-0.02,0.35-0.05,0.7-0.06,1.02c-0.05,0.68-0.08,1.35-0.1,2.09c-0.02,0.44-0.04,0.89-0.05,1.32l-0.02,0.72
	c-0.01,0.78-0.02,1.57-0.02,2.37c0,3.43,0.15,6.79,0.43,9.98c0.06,0.75,0.14,1.51,0.22,2.23c0.01,0.21,0.04,0.41,0.06,0.61
	l0.03,0.25c0.04,0.39,0.09,0.77,0.14,1.14c0.16,1.28,0.34,2.56,0.55,3.84c0.07,0.43,0.16,0.86,0.23,1.29
	c0.07,0.42,0.15,0.83,0.23,1.24c-0.91,0.26-1.62,1.01-1.79,1.96c-0.32,0.01-0.64,0.04-0.96,0.05c-0.13,0.01-0.25,0.01-0.38,0.02
	c-13.79,0.89-27.09,6.52-36.09,14.86l0.01-0.04l-0.4,0.41c-2.81,2.66-5.18,5.59-7,8.72c-0.12-0.03-0.23-0.06-0.36-0.08
	c-0.03-0.55-0.07-1.1-0.1-1.66c-0.04-1.1-0.07-2.21-0.1-3.33c-0.14-9.04,0.62-18.34,2.26-27.64l0.14-0.77
	c0.16-0.88,0.32-1.74,0.49-2.59l0.14-0.7c0.09-0.43,0.18-0.85,0.27-1.27c0.43-2,0.85-3.79,1.28-5.48c0.11-0.43,0.22-0.85,0.34-1.29
	c0.15-0.58,0.31-1.16,0.48-1.78c0.03-0.14,0.06-0.26,0.1-0.39c0.16-0.57,0.33-1.14,0.49-1.7l0.95-3.12
	c0.07-0.23,0.15-0.47,0.23-0.71c0.25-0.77,0.5-1.53,0.76-2.3c0.29-0.87,0.6-1.73,0.9-2.58l1.02-2.71c0.31-0.79,0.62-1.57,0.94-2.35
	c0.27-0.68,0.55-1.34,0.84-2l0.2-0.46c0.61-1.44,1.32-3.01,2.17-4.79c0.83-1.73,1.6-3.24,2.35-4.63c0.39-0.75,0.79-1.48,1.2-2.21
	c0.41-0.73,0.82-1.46,1.26-2.17c0.35-0.6,0.7-1.2,1.09-1.81c0.06-0.11,0.12-0.21,0.19-0.32l0.11-0.18c0.39-0.63,0.78-1.26,1.2-1.88
	c0.44-0.68,0.9-1.35,1.34-2.01c0.46-0.67,0.92-1.32,1.38-1.96l0.15-0.21c0.87-1.2,1.77-2.4,2.69-3.55c0.19-0.24,0.38-0.47,0.57-0.71
	c0.21-0.26,0.42-0.52,0.62-0.77c0.46-0.56,0.93-1.1,1.4-1.63l0.35-0.41c0.46-0.52,0.93-1.05,1.4-1.56l0.09-0.1
	c0.51-0.54,1.02-1.08,1.54-1.6c0.37-0.39,0.74-0.75,1.11-1.12l0.44-0.42c0.52-0.51,1.04-0.99,1.57-1.47
	c0.45-0.42,0.92-0.84,1.39-1.24c0.55-0.48,1.11-0.94,1.67-1.41l0.49-0.38c0.05-0.04,0.11-0.09,0.16-0.13
	c0.07-0.05,0.13-0.1,0.2-0.15l0.24-0.21C187.02,31.14,198.78,27.64,209.98,29.62z M112.52,104.2
	c12.66-34.76,37.05-60.15,61.14-63.91c-0.38,0.31-0.75,0.63-1.13,0.96c-0.48,0.4-0.95,0.83-1.41,1.26c-0.5,0.45-0.99,0.91-1.49,1.39
	l-0.55,0.52c-0.38,0.37-0.75,0.75-1.12,1.13c-0.52,0.52-1.03,1.06-1.57,1.63l-0.09,0.1c-0.47,0.52-0.95,1.05-1.41,1.58l-0.35,0.41
	c-0.47,0.54-0.95,1.09-1.42,1.66c-0.2,0.25-0.41,0.51-0.62,0.76c-0.19,0.24-0.39,0.47-0.58,0.72c-0.93,1.17-1.84,2.37-2.72,3.59
	l-0.15,0.21c-0.46,0.64-0.92,1.31-1.39,1.98c-0.45,0.66-0.91,1.35-1.35,2.02c-0.42,0.62-0.82,1.26-1.26,1.97l-0.06,0.1
	c-0.08,0.13-0.17,0.26-0.22,0.36c-0.37,0.6-0.74,1.2-1.08,1.81c-0.43,0.72-0.86,1.45-1.27,2.19c-0.41,0.73-0.83,1.48-1.21,2.23
	c-0.75,1.4-1.53,2.92-2.37,4.66c-0.86,1.79-1.57,3.37-2.19,4.83l-0.2,0.46c-0.29,0.67-0.58,1.35-0.85,2.03
	c-0.32,0.78-0.63,1.56-0.95,2.36l-1.02,2.73c-0.31,0.86-0.62,1.74-0.91,2.61c-0.26,0.77-0.51,1.53-0.76,2.29
	c-0.08,0.24-0.17,0.5-0.24,0.74l-0.95,3.13c-0.17,0.57-0.33,1.14-0.49,1.71c-0.04,0.15-0.09,0.31-0.11,0.43
	c-0.16,0.58-0.32,1.18-0.47,1.75c-0.12,0.43-0.23,0.87-0.34,1.3c-0.43,1.7-0.85,3.51-1.28,5.52c-0.09,0.42-0.18,0.85-0.27,1.28
	l-0.14,0.7c-0.17,0.86-0.33,1.73-0.49,2.61l-0.14,0.77c-1.65,9.37-2.42,18.73-2.28,27.84c0.03,1.13,0.06,2.24,0.1,3.35
	c0.02,0.56,0.06,1.12,0.09,1.67c-0.86,0.23-1.54,0.91-1.76,1.77c-0.26-0.01-0.52-0.02-0.78-0.02c0,0,0,0,0,0s0,0,0,0
	c-0.81,0-1.61,0.03-2.41,0.08c-0.26,0.02-0.51,0.05-0.77,0.07c-0.53,0.05-1.06,0.1-1.59,0.17c-0.3,0.04-0.6,0.1-0.9,0.15
	c-0.47,0.08-0.94,0.15-1.4,0.24c-0.31,0.06-0.62,0.14-0.93,0.21c-0.44,0.1-0.87,0.2-1.3,0.32c-0.31,0.09-0.62,0.18-0.93,0.28
	c-0.41,0.13-0.83,0.26-1.23,0.4c-0.3,0.11-0.6,0.22-0.9,0.34c-0.39,0.15-0.79,0.31-1.17,0.47c-0.29,0.13-0.58,0.26-0.87,0.39
	c-0.38,0.18-0.75,0.36-1.11,0.55c-0.28,0.14-0.55,0.29-0.82,0.44c-0.36,0.2-0.71,0.41-1.05,0.62c-0.26,0.16-0.52,0.32-0.77,0.49
	c-0.34,0.22-0.66,0.45-0.99,0.69c-0.24,0.17-0.48,0.35-0.71,0.53c-0.32,0.25-0.62,0.51-0.93,0.76c-0.22,0.18-0.44,0.37-0.64,0.56
	c-0.3,0.28-0.59,0.56-0.87,0.85c-0.19,0.19-0.38,0.38-0.56,0.57c-0.29,0.31-0.56,0.64-0.82,0.96c-0.15,0.19-0.32,0.36-0.46,0.55
	c-0.29,0.38-0.56,0.77-0.83,1.17c-0.1,0.15-0.21,0.28-0.3,0.43c-0.35,0.55-0.67,1.11-0.96,1.69c-0.03,0.06-0.05,0.12-0.08,0.18
	c-0.24,0.49-0.47,0.99-0.67,1.49C102.98,143.66,105.48,123.56,112.52,104.2z M105.76,163.25c0.08-0.29,0.18-0.57,0.27-0.85
	c0.1-0.3,0.18-0.61,0.3-0.91c0.11-0.28,0.25-0.56,0.37-0.83c0.13-0.3,0.26-0.61,0.41-0.9c0.13-0.26,0.29-0.51,0.44-0.76
	c0.17-0.3,0.33-0.6,0.52-0.89c0.16-0.24,0.33-0.47,0.5-0.7c0.21-0.29,0.4-0.59,0.63-0.87c0.17-0.22,0.37-0.43,0.55-0.64
	c0.24-0.28,0.48-0.57,0.74-0.85c0.19-0.2,0.4-0.38,0.59-0.58c0.28-0.27,0.55-0.55,0.85-0.82c0.2-0.18,0.42-0.34,0.63-0.52
	c0.31-0.26,0.62-0.53,0.95-0.77c0.21-0.16,0.44-0.3,0.66-0.46c0.35-0.24,0.69-0.49,1.05-0.72c0.22-0.14,0.47-0.27,0.7-0.41
	c0.38-0.22,0.75-0.45,1.14-0.66c0.24-0.13,0.49-0.24,0.73-0.36c0.4-0.2,0.8-0.4,1.21-0.59c0.25-0.11,0.52-0.21,0.78-0.31
	c0.42-0.17,0.83-0.35,1.26-0.5c0.28-0.1,0.56-0.18,0.84-0.27c0.43-0.14,0.85-0.29,1.29-0.41c0.3-0.08,0.6-0.15,0.91-0.22
	c0.44-0.11,0.87-0.23,1.31-0.32c0.32-0.07,0.65-0.11,0.98-0.17c0.43-0.08,0.86-0.16,1.31-0.23c0.4-0.06,0.81-0.08,1.22-0.13
	c0.38-0.04,0.75-0.09,1.13-0.12c0.71-0.05,1.42-0.07,2.14-0.07c0.08,0,0.17-0.01,0.25-0.01c0.24,0,0.48,0.01,0.73,0.02
	c0.18,1.2,1.21,2.13,2.46,2.13c0.27,0,0.53-0.05,0.77-0.13l1.54,2.78c-0.02,0.08-0.03,0.15-0.05,0.22
	c-0.06,0.28-0.12,0.56-0.18,0.85c-0.06,0.3-0.13,0.59-0.19,0.89c-0.06,0.28-0.11,0.56-0.17,0.83c-0.06,0.29-0.11,0.58-0.17,0.87
	c-0.05,0.27-0.1,0.54-0.15,0.81c-0.05,0.29-0.11,0.57-0.16,0.86c-0.05,0.26-0.09,0.52-0.14,0.78c-0.05,0.28-0.1,0.56-0.14,0.84
	c-0.04,0.26-0.09,0.51-0.13,0.76c-0.04,0.27-0.09,0.55-0.13,0.82c-0.04,0.25-0.08,0.49-0.11,0.74c-0.04,0.28-0.08,0.55-0.12,0.82
	c-0.03,0.23-0.07,0.46-0.1,0.69c-0.04,0.29-0.08,0.56-0.11,0.85c-0.03,0.21-0.06,0.42-0.08,0.62c-0.04,0.3-0.07,0.6-0.11,0.9
	c-0.02,0.17-0.04,0.35-0.06,0.52c-0.05,0.46-0.1,0.91-0.15,1.35c-0.02,0.18-0.03,0.35-0.05,0.52c-0.03,0.27-0.05,0.54-0.08,0.81
	c-0.02,0.2-0.03,0.39-0.05,0.58c-0.02,0.23-0.04,0.47-0.06,0.69c-0.02,0.2-0.03,0.38-0.04,0.58c-0.02,0.22-0.03,0.44-0.05,0.66
	c-0.01,0.19-0.03,0.37-0.04,0.55c-0.01,0.21-0.03,0.41-0.04,0.62c-0.01,0.18-0.02,0.36-0.03,0.54c-0.01,0.2-0.02,0.4-0.03,0.59
	c-0.01,0.17-0.02,0.33-0.02,0.5c-0.01,0.19-0.02,0.38-0.03,0.57c-0.01,0.16-0.01,0.32-0.02,0.48c-0.01,0.18-0.01,0.36-0.02,0.53
	c0,0.15-0.01,0.3-0.01,0.45c0,0.17-0.01,0.34-0.01,0.5c0,0.14-0.01,0.29-0.01,0.43c0,0.16-0.01,0.32-0.01,0.48c0,0.13,0,0.26,0,0.38
	c0,0.16,0,0.31,0,0.46c0,0.12,0,0.23,0,0.35c0,0.15,0,0.29,0,0.43c0,0.05,0,0.11,0,0.16c-0.99,0.23-1.75,1.04-1.91,2.06
	c-0.18,0-0.37,0.01-0.55,0.01C119.55,180.09,108.37,173.01,105.76,163.25z M144.56,192.68c6.18,5.44,14.21,9.66,22.98,12.04
	l48.43,87.5l-1.14,0.17L144.56,192.68z M206.74,294.66l12.7-1.87l-0.29,69.28c-2.18,0.21-4.4,0.42-6.63,0.63l-6.33,0.64
	L206.74,294.66z M183.22,298.03l22.52-3.3l-0.54,68.72l-15.34,1.54l-9.72,1.01L183.22,298.03z M209.96,378.37l-28.26-11.51
	l8.27-0.75c4.45-0.42,9.98-0.95,15.79-1.5l24.92,12.31L209.96,378.37z M238.8,376.34l-6.14,0.43l-25-12.35
	c1.65-0.16,3.32-0.32,4.99-0.48l7.07-0.71l22.9,12.83L238.8,376.34z M244.44,375.94l-22.98-12.88l13.86-1.39l10.14-1.06l0.16,0.09
	l13.02,7.14l9.22,4.9l2.64,1.37L244.44,375.94z M246.87,324.14l0.27-16.28l0.27-18.7l24.92,18.51l-0.53,65.98l-12.58-6.9
	l-13.15-6.94L246.87,324.14z M245.62,324.12l-0.29,17.18l-0.26,18.34l-9.87,0.9c-4.26,0.41-9.51,0.91-15.05,1.44l0.29-69.42
	l25.97-3.81L245.62,324.12z M236.86,289.14l46.51-85.24c8.67-2.17,16.45-6.16,22.43-11.5l-66.85,96.43L236.86,289.14z
	 M317.59,180.09c-0.18,0-0.37-0.01-0.55-0.01c-0.15-1.02-0.91-1.83-1.9-2.06c0-0.38,0-0.8,0-1.23c0-0.02,0-0.03,0-0.05
	c0-0.23,0-0.48-0.01-0.73c0-0.05,0-0.09,0-0.14c0-0.24-0.01-0.48-0.02-0.73c0-0.06,0-0.13,0-0.19c-0.01-0.24-0.01-0.48-0.02-0.73
	c0-0.08-0.01-0.17-0.01-0.25c-0.01-0.24-0.02-0.49-0.03-0.74c0-0.1-0.01-0.19-0.01-0.29c-0.01-0.25-0.02-0.5-0.04-0.76
	c-0.01-0.1-0.01-0.21-0.02-0.31c-0.01-0.26-0.03-0.52-0.05-0.8c-0.01-0.11-0.01-0.23-0.02-0.34c-0.02-0.27-0.04-0.54-0.06-0.83
	c-0.01-0.12-0.02-0.23-0.03-0.35c-0.02-0.29-0.04-0.57-0.07-0.87c-0.01-0.1-0.02-0.21-0.03-0.32c-0.03-0.32-0.05-0.64-0.09-0.96
	c0-0.01,0-0.03,0-0.04c-0.11-1.14-0.24-2.34-0.39-3.59c-0.02-0.14-0.03-0.27-0.05-0.4c-0.04-0.29-0.08-0.6-0.12-0.9
	c-0.03-0.19-0.05-0.38-0.08-0.58c-0.04-0.28-0.08-0.58-0.12-0.87c-0.03-0.22-0.06-0.43-0.09-0.65c-0.04-0.28-0.09-0.57-0.13-0.86
	c-0.04-0.23-0.07-0.46-0.11-0.7c-0.05-0.29-0.1-0.58-0.14-0.87c-0.04-0.24-0.08-0.49-0.12-0.73c-0.05-0.29-0.1-0.59-0.16-0.88
	c-0.05-0.25-0.09-0.5-0.14-0.76c-0.06-0.3-0.11-0.6-0.17-0.9c-0.05-0.26-0.1-0.52-0.15-0.78c-0.06-0.3-0.12-0.61-0.19-0.92
	c-0.05-0.27-0.11-0.53-0.17-0.8c-0.07-0.31-0.13-0.62-0.2-0.93c0-0.01,0-0.01,0-0.02l1.54-2.82c0.24,0.08,0.5,0.13,0.76,0.13
	c1.25,0,2.28-0.93,2.46-2.13c0.24-0.01,0.48-0.02,0.73-0.02c0.81,0,1.61,0.03,2.4,0.08c0.15,0.01,0.29,0.03,0.43,0.04
	c0.64,0.05,1.28,0.11,1.92,0.2c0.2,0.03,0.4,0.07,0.6,0.1c0.56,0.09,1.13,0.18,1.68,0.29c0.22,0.05,0.43,0.11,0.65,0.16
	c0.53,0.12,1.06,0.24,1.57,0.39c0.22,0.06,0.42,0.14,0.64,0.2c0.5,0.15,1.01,0.31,1.5,0.48c0.22,0.08,0.43,0.17,0.64,0.26
	c0.47,0.18,0.95,0.36,1.4,0.56c0.21,0.1,0.42,0.21,0.63,0.3c0.44,0.21,0.89,0.41,1.32,0.64c0.21,0.11,0.4,0.23,0.6,0.35
	c0.42,0.24,0.84,0.47,1.23,0.72c0.19,0.12,0.37,0.26,0.55,0.38c0.39,0.26,0.79,0.52,1.16,0.8c0.17,0.13,0.33,0.27,0.5,0.41
	c0.37,0.29,0.74,0.58,1.08,0.88c0.16,0.14,0.3,0.29,0.45,0.43c0.34,0.32,0.68,0.63,0.99,0.96c0.14,0.15,0.26,0.31,0.4,0.46
	c0.3,0.34,0.61,0.68,0.89,1.03c0.12,0.16,0.23,0.32,0.34,0.48c0.27,0.36,0.54,0.72,0.78,1.1c0.1,0.16,0.19,0.33,0.29,0.49
	c0.23,0.39,0.47,0.77,0.67,1.17c0.08,0.17,0.15,0.34,0.23,0.51c0.19,0.41,0.38,0.81,0.54,1.23c0.07,0.17,0.11,0.35,0.17,0.52
	c0.14,0.4,0.28,0.8,0.39,1.21C341.62,173.02,330.45,180.09,317.59,180.09z"/>
</svg>
