<?xml version="1.0" encoding="utf-8"?>
<!-- Generator: Adobe Illustrator 24.0.1, SVG Export Plug-In . SVG Version: 6.00 Build 0)  -->
<svg version="1.1" id="Слой_1" xmlns="http://www.w3.org/2000/svg" xmlns:xlink="http://www.w3.org/1999/xlink" x="0px" y="0px"
	 viewBox="0 0 69 59" style="enable-background:new 0 0 69 59;" xml:space="preserve">
<style type="text/css">
	.st0{fill:#FFFFFF;}
</style>
<path class="st0" d="M6.5,0C2.9,0,0,2.9,0,6.5v46.4c0,3.1,2.6,5.7,5.7,5.7h56.9c3.1,0,5.7-2.6,5.7-5.7V15.5c0-3.1-2.6-5.7-5.7-5.7
	h-4.1V1.6c0-0.9-0.8-1.6-1.6-1.6H6.5z M6.5,3.3h48.8v6.5H6.5c-1.8,0-3.3-1.4-3.3-3.3C3.3,4.7,4.7,3.3,6.5,3.3z M3.3,12.1
	c1,0.6,2.1,0.9,3.3,0.9c18.3,0,40.4,0,56.1,0c1.4,0,2.4,1.1,2.4,2.4v8.1H41.5c-2.2,0-4.1,1.8-4.1,4.1v13c0,2.2,1.8,4.1,4.1,4.1h23.6
	v8.1c0,1.4-1.1,2.4-2.4,2.4H5.7c-1.4,0-2.4-1.1-2.4-2.4V12.1z M41.5,26.8h23.6v14.6H41.5c-0.5,0-0.8-0.3-0.8-0.8v-13
	C40.7,27.2,41,26.8,41.5,26.8z M49.6,30.1c-2.2,0-4.1,1.8-4.1,4.1c0,2.2,1.8,4.1,4.1,4.1s4.1-1.8,4.1-4.1
	C53.7,31.9,51.9,30.1,49.6,30.1z M49.6,33.3c0.5,0,0.8,0.3,0.8,0.8c0,0.5-0.3,0.8-0.8,0.8c-0.5,0-0.8-0.3-0.8-0.8
	C48.8,33.7,49.2,33.3,49.6,33.3z"/>
</svg>
