<?xml version="1.0" encoding="utf-8"?>
<!-- Generator: Adobe Illustrator 24.0.1, SVG Export Plug-In . SVG Version: 6.00 Build 0)  -->
<svg version="1.1" id="Слой_1" xmlns="http://www.w3.org/2000/svg" xmlns:xlink="http://www.w3.org/1999/xlink" x="0px" y="0px"
	 viewBox="0 0 69 50" style="enable-background:new 0 0 69 50;" xml:space="preserve">
<style type="text/css">
	.st0{fill:#FFFFFF;}
</style>
<path class="st0" d="M32.8,50c-0.2,0-0.5-0.1-0.7-0.2c-0.5-0.3-0.8-0.9-0.7-1.4l1.2-10.3l-0.9-1l-4,5.7c-0.2,0.4-0.7,0.6-1.2,0.6
	c-0.4,0-1-0.2-1.2-0.6c-3.4-5.1-8.7-12.9-9.2-13.4c-0.4-0.3-0.4-0.8-0.3-1.2c0.2-0.8,0.2-1.1,6.3-3l-0.6-0.8L11.1,22
	c-0.6-0.2-1-0.5-1.1-1c-0.2-0.5,0.1-1.1,0.5-1.4l11.3-9.2c0.2-0.2,0.6-0.3,0.9-0.3l12-0.4c0,0,0,0,0.1,0c4.5-3.7,9.2-7,12.6-7.7
	c8.4-2,19.9-2,20.3-2c0.5,0,0.9,0.2,1.1,0.5c0.2,0.3,0.4,0.8,0.2,1.2c-0.2,0.6-4.4,15.9-13.4,22.3c-2.1,1.6-4.6,3.3-7,5l-3,11.1
	c-0.1,0.3-0.2,0.5-0.5,0.8l-11.3,8.7C33.5,49.8,33.2,50,32.8,50z M35.5,38.4l-0.8,6.9l8.4-6.6l2-7.3C40.7,34.7,36.8,37.5,35.5,38.4z
	 M19.5,28.9c1,1.5,3.1,4.5,7.2,10.5l3.2-4.5c0.1-0.1,0.1-0.1,0.2-0.2l-5.9-7.3c-0.2,0.1-0.3,0.2-0.5,0.2
	C22.2,28,20.6,28.5,19.5,28.9z M24.3,23l10.2,12.7c2.1-1.6,6.9-5.1,11.9-8.7c0.2-0.3,0.5-0.5,0.9-0.6c2.4-1.7,4.8-3.4,6.8-4.9
	c2.4-1.7,4.5-4.1,6.1-6.8c-2.6-2-5.9-5.3-8.1-10.9c-1.4,0.2-2.7,0.5-3.9,0.8C42,5.9,29.6,17.7,24.3,23z M14.6,19.8l7.2,1.6
	c1.4-1.4,5.1-5.2,9.4-9l-8,0.3L14.6,19.8z M55,3.3c1.9,4.5,4.5,7.3,6.7,8.9c2.1-3.7,3.4-7.5,4.1-9.6C63.5,2.7,59.3,2.8,55,3.3z
	 M1.4,49.3c-0.5,0-1-0.2-1.2-0.6c-0.2-0.4-0.3-0.9-0.2-1.3c0.6-1.7,4-10.2,6.9-12.2c3.3-2.3,8-1.5,10.3,1.8c1.1,1.6,1.6,3.5,1.2,5.5
	c-0.3,2-1.4,3.6-3,4.7C12.6,49.1,3.3,49.3,1.4,49.3z M11.2,36.7c-0.9,0-1.8,0.2-2.6,0.8c-1.4,0.9-3.5,5.2-5,8.9
	c4-0.2,8.9-0.6,10.3-1.6c1-0.7,1.7-1.7,1.8-2.9c0.2-1.2-0.1-2.3-0.7-3.4C14.1,37.4,12.6,36.7,11.2,36.7z M43.8,22.9
	c-0.2,0-0.5,0-0.7-0.1c-1.4-0.2-2.7-0.9-3.7-2c-0.9-1.2-1.3-2.6-1.1-4c0.2-1.4,1-2.7,2.1-3.5c1.2-0.9,2.6-1.2,4.1-1.1
	c3,0.4,5.1,3.1,4.7,6c-0.2,1.4-1,2.7-2.1,3.6C46.1,22.5,45,22.9,43.8,22.9z M43.8,14.9c-0.6,0-1.1,0.2-1.6,0.5c-0.6,0.4-0.9,1-1,1.6
	c-0.1,0.7,0.1,1.3,0.5,1.9c0.4,0.5,1,0.9,1.7,0.9c0.6,0.1,1.4-0.1,1.9-0.5c0.6-0.4,0.9-1,1-1.6c0.2-1.4-0.8-2.7-2.2-2.8
	C44,15,43.9,14.9,43.8,14.9z"/>
</svg>
