<?xml version="1.0" encoding="utf-8"?>
<!-- Generator: Adobe Illustrator 24.0.1, SVG Export Plug-In . SVG Version: 6.00 Build 0)  -->
<svg version="1.1" id="Слой_1" xmlns="http://www.w3.org/2000/svg" xmlns:xlink="http://www.w3.org/1999/xlink" x="0px" y="0px"
	 viewBox="0 0 62 70" style="enable-background:new 0 0 62 70;" xml:space="preserve">
<style type="text/css">
	.st0{fill:none;stroke:#FFFFFF;stroke-width:1.2;stroke-linecap:round;stroke-linejoin:round;stroke-miterlimit:10;}
	.st1{fill:none;stroke:#FFFFFF;stroke-width:1.1;stroke-linecap:round;stroke-linejoin:round;stroke-miterlimit:10;}
	.st2{fill:#FFFFFF;}
</style>
<path class="st0" d="M38.4,12.9l-3.8,2.7l22.5,32l3.8-2.7L38.4,12.9z"/>
<path class="st0" d="M32.1,4l-3.8,2.7l1.8,2.6L34,6.6L32.1,4z"/>
<path class="st0" d="M36.7,4.7l-9.3,6.5l4.4,6.3l9.3-6.5L36.7,4.7z"/>
<path class="st0" d="M31,16.3C25.5,20.7,21,25.4,17.7,30c1-5.9,4.7-12.2,10.5-17.6"/>
<path class="st0" d="M37.4,5.7c7.3-4,14.9-5.5,21.1-4.4c-5.7,1.7-12,4.5-18.3,8.4"/>
<path class="st1" d="M14,31l-5-9"/>
<path class="st1" d="M23,34l7-2"/>
<path class="st1" d="M22,32l5-6"/>
<path class="st1" d="M2,26H1"/>
<path class="st1" d="M11,33l-6-4"/>
<path class="st2" d="M16.9,36.1C7.6,36.1,0,43.7,0,53.1C0,62.4,7.6,70,16.9,70c9.3,0,16.9-7.6,16.9-16.9
	C33.9,43.7,26.3,36.1,16.9,36.1z M16.9,68.1c-8.3,0-15-6.7-15-15s6.7-15,15-15c8.3,0,15,6.7,15,15S25.2,68.1,16.9,68.1z"/>
<path class="st2" d="M22.7,57.8c0-0.3,0-0.6-0.2-0.9c-0.2-0.3-0.5-0.4-0.8-0.5c-0.4,0-0.6,0-0.9,0.2c-1,0.7-2.2,1.1-3.5,1.1
	c-1.3,0-2.5-0.5-3.5-1.5c-1-1-1.5-2.2-1.5-3.5c0-1.4,0.5-2.6,1.5-3.6c1-1,2.2-1.5,3.5-1.5c1.3,0,2.4,0.4,3.4,1.1
	c0.3,0.2,0.6,0.3,0.9,0.3c0.3,0,0.6-0.2,0.8-0.5c0.2-0.3,0.3-0.6,0.2-0.9c0-0.4-0.2-0.6-0.5-0.8c-1-0.7-2-1.2-3.1-1.5v-2.2
	c0-0.4-0.4-0.8-0.8-0.8c-0.4,0-0.8,0.4-0.8,0.8v2c0,0,0,0-0.1,0c-0.6,0-1.2,0.1-1.8,0.2v-2.2c0-0.4-0.4-0.8-0.8-0.8
	c-0.4,0-0.8,0.4-0.8,0.8v2.8c-0.7,0.4-1.4,0.8-2,1.4c-1.5,1.5-2.3,3.2-2.3,5.3c0,2.1,0.8,3.9,2.3,5.3c0.6,0.6,1.3,1,2,1.4v2.7
	c0,0.4,0.4,0.8,0.8,0.8c0.4,0,0.8-0.4,0.8-0.8v-2.1c0.6,0.1,1.2,0.2,1.8,0.2c0,0,0,0,0.1,0v1.9c0,0.4,0.4,0.8,0.8,0.8
	c0.4,0,0.8-0.4,0.8-0.8v-2.1c1.1-0.2,2.2-0.7,3.2-1.4C22.5,58.5,22.6,58.2,22.7,57.8z"/>
</svg>
