<?xml version="1.0" encoding="utf-8"?>
<!-- Generator: Adobe Illustrator 24.0.1, SVG Export Plug-In . SVG Version: 6.00 Build 0)  -->
<svg version="1.1" id="Слой_1" xmlns="http://www.w3.org/2000/svg" xmlns:xlink="http://www.w3.org/1999/xlink" x="0px" y="0px"
	 viewBox="0 0 61 69" style="enable-background:new 0 0 61 69;" xml:space="preserve">
<style type="text/css">
	.st0{fill:#FFFFFF;}
</style>
<path class="st0" d="M30.5,53.2c-0.2,0-0.4,0-0.5-0.1C23.3,49.2,19.3,42.4,19.3,35c0-3.8,1-7.7,2.9-11.1c1.9-3.4,4.6-6.2,7.7-8
	c0.3-0.2,0.7-0.2,1,0c3.1,1.8,5.8,4.6,7.7,8c1.9,3.4,2.9,7.3,2.9,11.1c0,7.5-4,14.3-10.7,18.1C30.9,53.2,30.7,53.2,30.5,53.2z
	 M30.5,17.9c-5.5,3.4-9.1,10.2-9.1,17c0,6.5,3.4,12.5,9.1,16c5.7-3.5,9.1-9.5,9.1-16C39.6,28.1,36,21.4,30.5,17.9z"/>
<path class="st0" d="M44.7,46.1c-0.1,0-0.3,0-0.4-0.1c-4.1-1.9-8.9-2.9-13.8-2.9c-4.9,0-9.7,1-13.8,2.9c-0.4,0.2-1,0.1-1.3-0.3
	c-2.4-3.3-3.7-7.1-3.7-11.2c0-4.1,1.3-7.9,3.7-11.2c0.3-0.4,0.8-0.5,1.3-0.3c4.1,1.9,8.9,2.9,13.8,2.9s9.7-1,13.8-2.9
	c0.4-0.2,1-0.1,1.3,0.3c2.4,3.3,3.7,7.1,3.7,11.2c0,4.1-1.3,7.9-3.7,11.2C45.4,45.9,45.1,46.1,44.7,46.1z M16.6,25.2
	c-1.8,2.8-2.8,5.9-2.8,9.3c0,3.3,1,6.5,2.8,9.3c4.2-1.8,9-2.7,13.9-2.7c4.9,0,9.7,0.9,13.9,2.7c1.8-2.8,2.8-5.9,2.8-9.3
	c0-3.3-1-6.5-2.8-9.3c-4.2,1.8-9,2.7-13.9,2.7C25.6,27.9,20.8,26.9,16.6,25.2z"/>
<path class="st0" d="M30.5,27.9c-5.2,0-10.3-1.1-14.7-3.1c-0.3-0.1-0.5-0.4-0.6-0.7c-0.1-0.3,0-0.6,0.2-0.9
	c3.5-4.7,9.2-7.6,15.1-7.6s11.5,2.8,15.1,7.6c0.2,0.3,0.2,0.6,0.2,0.9c-0.1,0.3-0.3,0.6-0.6,0.7C40.8,26.8,35.7,27.9,30.5,27.9z
	 M17.9,23.5c3.8,1.5,8.1,2.4,12.6,2.4c4.5,0,8.8-0.8,12.6-2.4c-3.2-3.6-7.7-5.7-12.6-5.7S21.1,19.8,17.9,23.5z"/>
<path class="st0" d="M30.5,53.2c-5.9,0-11.5-2.8-15.1-7.6c-0.2-0.3-0.2-0.6-0.2-0.9c0.1-0.3,0.3-0.6,0.6-0.7c4.4-2,9.4-3.1,14.7-3.1
	c5.2,0,10.3,1.1,14.7,3.1c0.3,0.1,0.5,0.4,0.6,0.7c0.1,0.3,0,0.6-0.2,0.9C42,50.4,36.4,53.2,30.5,53.2z M17.9,45.4
	c3.2,3.6,7.7,5.7,12.6,5.7s9.4-2.1,12.6-5.7c-3.8-1.5-8.1-2.4-12.6-2.4S21.7,43.9,17.9,45.4z"/>
<path class="st0" d="M48.2,35.5H12.8c-0.6,0-1-0.5-1-1c0-0.6,0.5-1,1-1h35.5c0.6,0,1,0.5,1,1C49.3,35,48.8,35.5,48.2,35.5z"/>
<path class="st0" d="M30.5,53.2c-0.6,0-1-0.5-1-1V16.7c0-0.6,0.5-1,1-1c0.6,0,1,0.5,1,1v35.5C31.5,52.8,31.1,53.2,30.5,53.2z"/>
<path class="st0" d="M27.1,63c-0.2,0-0.4,0-0.5-0.1l-9.3-5.4L7.9,52c-0.2-0.1-0.4-0.4-0.5-0.6c-0.1-0.3,0-0.5,0.1-0.8
	c0.5-0.9,0.5-2,0-2.9C7,46.8,6,46.3,5,46.3c-0.3,0-0.5-0.1-0.7-0.3C4.1,45.8,4,45.5,4,45.2V23.7c0-0.6,0.5-1,1-1
	c1.1,0,2-0.5,2.5-1.5c0.5-0.9,0.5-2,0-2.9c-0.1-0.2-0.2-0.5-0.1-0.8c0.1-0.3,0.2-0.5,0.5-0.6l9.3-5.4l9.3-5.4
	c0.2-0.1,0.5-0.2,0.8-0.1C27.6,6,27.8,6.2,28,6.4c0.5,0.9,1.5,1.5,2.5,1.5h0c1,0,2-0.6,2.5-1.5C33.3,6,34,5.8,34.4,6.1l18.7,10.8
	c0.2,0.1,0.4,0.4,0.5,0.6c0.1,0.3,0,0.5-0.1,0.8c-0.5,0.9-0.5,2,0,2.9c0.5,0.9,1.5,1.5,2.5,1.5c0.6,0,1,0.5,1,1v21.5
	c0,0.3-0.1,0.5-0.3,0.7c-0.2,0.2-0.5,0.3-0.7,0.3c-1,0-2,0.6-2.5,1.5c-0.5,0.9-0.5,2,0,2.9c0.3,0.5,0.1,1.1-0.4,1.4L34.4,62.8
	c-0.5,0.3-1.1,0.1-1.4-0.4c-0.5-0.9-1.5-1.5-2.5-1.5c-1,0-2,0.6-2.5,1.5C27.8,62.8,27.4,63,27.1,63z M30.5,58.9
	c1.4,0,2.8,0.6,3.7,1.7l17.1-9.8c-0.4-1.3-0.3-2.8,0.4-4c0.7-1.2,1.9-2.1,3.3-2.4V24.6c-1.4-0.3-2.6-1.1-3.3-2.4
	c-0.7-1.2-0.9-2.7-0.4-4L34.2,8.3c-0.9,1-2.3,1.7-3.7,1.7c0,0,0,0,0,0c-1.4,0-2.8-0.6-3.7-1.7l-8.5,4.9l-8.5,4.9
	c0.4,1.3,0.3,2.8-0.4,4c-0.7,1.2-1.9,2.1-3.3,2.4v19.7c1.4,0.3,2.6,1.1,3.3,2.4c0.7,1.2,0.9,2.7,0.4,4l17.1,9.8
	C27.7,59.5,29.1,58.9,30.5,58.9z"/>
<path class="st0" d="M30.5,10c-2.8,0-5-2.2-5-5c0-2.7,2.2-5,5-5c2.8,0,5,2.2,5,5C35.5,7.7,33.3,10,30.5,10z M30.5,2.1
	c-1.6,0-2.9,1.3-2.9,2.9c0,1.6,1.3,2.9,2.9,2.9c1.6,0,2.9-1.3,2.9-2.9C33.4,3.4,32.1,2.1,30.5,2.1z"/>
<path class="st0" d="M56,24.7c-1.7,0-3.4-0.9-4.3-2.5c-1.4-2.4-0.6-5.4,1.8-6.8c2.4-1.4,5.4-0.6,6.8,1.8c0,0,0,0,0,0
	c1.4,2.4,0.6,5.4-1.8,6.8C57.7,24.5,56.9,24.7,56,24.7z M56,16.8c-0.5,0-1,0.1-1.5,0.4c-1.4,0.8-1.9,2.6-1.1,4
	c0.8,1.4,2.6,1.9,4,1.1c1.4-0.8,1.9-2.6,1.1-4C58,17.3,57,16.8,56,16.8z"/>
<path class="st0" d="M56,54.2c-0.9,0-1.7-0.2-2.5-0.7c-1.2-0.7-2-1.7-2.3-3c-0.3-1.3-0.2-2.6,0.5-3.8c1.4-2.4,4.4-3.2,6.8-1.8
	c2.4,1.4,3.2,4.4,1.8,6.8c0,0,0,0,0,0c-0.7,1.2-1.7,2-3,2.3C56.9,54.1,56.4,54.2,56,54.2z M56,46.3c-1,0-2,0.5-2.5,1.5
	c-0.4,0.7-0.5,1.5-0.3,2.2c0.2,0.8,0.7,1.4,1.4,1.8c0.7,0.4,1.5,0.5,2.2,0.3c0.8-0.2,1.4-0.7,1.8-1.4c0.8-1.4,0.3-3.2-1.1-4
	C57,46.4,56.5,46.3,56,46.3z"/>
<path class="st0" d="M30.5,68.9c-2.8,0-5-2.2-5-5c0-2.8,2.2-5,5-5c2.8,0,5,2.2,5,5C35.5,66.7,33.3,68.9,30.5,68.9z M30.5,61
	c-1.6,0-2.9,1.3-2.9,2.9c0,1.6,1.3,2.9,2.9,2.9c1.6,0,2.9-1.3,2.9-2.9C33.4,62.3,32.1,61,30.5,61z"/>
<path class="st0" d="M5,54.2c-0.4,0-0.9-0.1-1.3-0.2c-1.3-0.3-2.4-1.2-3-2.3c-0.7-1.2-0.8-2.5-0.5-3.8c0.3-1.3,1.2-2.4,2.3-3
	C3.6,44.2,5,44,6.3,44.4c1.3,0.3,2.4,1.2,3,2.3c0.7,1.2,0.8,2.5,0.5,3.8c-0.3,1.3-1.2,2.4-2.3,3C6.7,53.9,5.9,54.2,5,54.2z M5,46.3
	c-0.5,0-1,0.1-1.5,0.4c-0.7,0.4-1.2,1-1.4,1.8C2,49.2,2.1,50,2.5,50.6c0,0,0,0,0,0c0.4,0.7,1,1.2,1.8,1.4c0.8,0.2,1.5,0.1,2.2-0.3
	c0.7-0.4,1.2-1,1.4-1.8c0.2-0.8,0.1-1.5-0.3-2.2c-0.4-0.7-1-1.2-1.8-1.4C5.5,46.3,5.2,46.3,5,46.3z"/>
<path class="st0" d="M5,24.7c-0.8,0-1.7-0.2-2.5-0.7c-1.2-0.7-2-1.7-2.3-3c-0.3-1.3-0.2-2.6,0.5-3.8c0.7-1.2,1.7-2,3-2.3
	c1.3-0.3,2.6-0.2,3.8,0.5c2.4,1.4,3.2,4.4,1.8,6.8C8.4,23.8,6.7,24.7,5,24.7z M5,16.8c-0.3,0-0.5,0-0.8,0.1
	c-0.8,0.2-1.4,0.7-1.8,1.4c0,0,0,0,0,0c-0.4,0.7-0.5,1.5-0.3,2.2c0.2,0.8,0.7,1.4,1.4,1.8c1.4,0.8,3.2,0.3,4-1.1
	c0.8-1.4,0.3-3.2-1.1-4C6,16.9,5.5,16.8,5,16.8z"/>
</svg>
