<?xml version="1.0" encoding="utf-8"?>
<!-- Generator: Adobe Illustrator 24.0.1, SVG Export Plug-In . SVG Version: 6.00 Build 0)  -->
<svg version="1.1" id="Слой_1" xmlns="http://www.w3.org/2000/svg" xmlns:xlink="http://www.w3.org/1999/xlink" x="0px" y="0px"
	 viewBox="0 0 35 69" style="enable-background:new 0 0 35 69;" xml:space="preserve">
<style type="text/css">
	.st0{fill:#FFFFFF;}
</style>
<path class="st0" d="M9.5,69c-0.2,0-0.4,0-0.6-0.2c-0.8-0.2-1.3-1.1-1.3-1.9L11,41.6h-9c-0.6,0-1.1-0.2-1.5-0.7
	c-0.4-0.4-0.6-0.9-0.4-1.5L8.3,1.5C8.5,0.6,9.3,0,10.2,0l23.1,0.6c0.6,0,1.3,0.4,1.5,0.9c0.2,0.6,0.4,1.3,0,1.9L22.6,28.5h10.1
	c0.8,0,1.3,0.4,1.7,0.9c0.4,0.6,0.4,1.3,0,1.9L11.1,68.1C10.8,68.6,10.2,69,9.5,69z M4.4,37.9h8.8c0.6,0,1.1,0.2,1.5,0.6
	c0.4,0.4,0.6,0.9,0.4,1.5l-2.4,19l16.9-26.7h-9.8c-0.6,0-1.3-0.4-1.5-0.9c-0.2-0.6-0.4-1.3-0.2-1.9L30.3,4.3L11.9,3.9L4.4,37.9z"/>
</svg>
