<?xml version="1.0" encoding="utf-8"?>
<!-- Generator: Adobe Illustrator 24.0.1, SVG Export Plug-In . SVG Version: 6.00 Build 0)  -->
<svg version="1.1" id="Слой_1" xmlns="http://www.w3.org/2000/svg" xmlns:xlink="http://www.w3.org/1999/xlink" x="0px" y="0px"
	 viewBox="0 0 57 70" style="enable-background:new 0 0 57 70;" xml:space="preserve">
<style type="text/css">
	.st0{fill:#FFFFFF;}
</style>
<path class="st0" d="M27.8,69.8c0.2,0.1,0.4,0.2,0.6,0.2s0.4-0.1,0.6-0.2l8.2-4.3c12-6.3,19.5-18.6,19.5-32.2V11.1
	c0-0.5-0.3-1-0.8-1.2L28.8,0.1C28.6,0,28.2,0,28,0.1L0.8,9.9C0.3,10.1,0,10.6,0,11.1v22.2c0,13.5,7.5,25.9,19.5,32.2L27.8,69.8z
	 M2.6,33.4V12l25.8-9.4L54.2,12v21.4c0,12.6-7,24.1-18.2,29.9l-7.6,4l-7.6-4C9.5,57.4,2.6,46,2.6,33.4z"/>
<path class="st0" d="M27.8,64.1c0.2,0.1,0.4,0.2,0.6,0.2s0.4-0.1,0.6-0.2l6-3.1C45.3,55.6,51.8,45,51.8,33.3V14.6
	c0-0.5-0.3-1-0.8-1.2l-22-8.1c-0.3-0.1-0.6-0.1-0.8,0l-22,8.1c-0.5,0.2-0.8,0.7-0.8,1.2v18.7C5.2,45,11.7,55.5,22,61L27.8,64.1z
	 M7.6,33.4V15.5L28.4,8l20.8,7.6v17.8c0,10.8-5.9,20.5-15.5,25.5l-5.3,2.8L23,58.8C13.5,53.9,7.6,44,7.6,33.4z"/>
<path class="st0" d="M26.7,41.2c0.3,0,0.7-0.2,0.9-0.4l15.6-16.6c0.5-0.5,0.4-1.3-0.1-1.8c-0.5-0.5-1.3-0.4-1.8,0.1L26.6,38.1
	l-9.4-8.7c-0.5-0.5-1.3-0.4-1.8,0.1c-0.5,0.5-0.4,1.3,0.1,1.8l10.3,9.5C26.1,41,26.4,41.2,26.7,41.2z"/>
</svg>
