<?xml version="1.0" encoding="utf-8"?>
<!-- Generator: Adobe Illustrator 24.0.1, SVG Export Plug-In . SVG Version: 6.00 Build 0)  -->
<svg version="1.1" id="Слой_1" xmlns="http://www.w3.org/2000/svg" xmlns:xlink="http://www.w3.org/1999/xlink" x="0px" y="0px"
	 viewBox="0 0 100 125" style="enable-background:new 0 0 100 125;" xml:space="preserve">
<style type="text/css">
	.st0{fill:#FFFFFF;}
</style>
<title>Artboard 2</title>
<path class="st0" d="M6.3,57.8h0.3C8,57.7,9,56.4,8.8,55c0,0,0,0,0,0C6.1,32.2,22.5,11.5,45.3,8.8c11-1.3,22,1.8,30.6,8.6
	c8.7,6.8,14.3,16.8,15.6,27.8c0.2,1.4,1.4,2.4,2.8,2.2c1.4-0.2,2.4-1.4,2.2-2.8c-3-25.6-26.2-43.8-51.8-40.8S0.9,30.1,3.9,55.6
	c0,0,0,0,0,0C4.1,56.9,5.1,57.8,6.3,57.8z"/>
<path class="st0" d="M41.5,95.8c1.2,0.6,2.7,0.1,3.3-1.1c6.9-13.9,9.6-29.5,7.8-44.9c-0.2-1.4-1.4-2.4-2.8-2.2
	c-1.4,0.2-2.4,1.4-2.2,2.8c1.7,14.4-0.8,29.1-7.3,42.1C39.7,93.7,40.3,95.2,41.5,95.8C41.5,95.8,41.5,95.8,41.5,95.8z"/>
<path class="st0" d="M81.1,83.5c1.4,0.3,2.7-0.6,2.9-2c0,0,0,0,0,0c2.4-11.7,2.8-23.7,1.4-35.6c-0.7-6.1-3-11.9-6.7-16.9
	c-0.8-1.1-2.4-1.3-3.5-0.5S74,30.9,74.8,32c3.2,4.3,5.1,9.3,5.8,14.6c1.4,11.3,0.9,22.8-1.3,34C78.9,81.9,79.8,83.2,81.1,83.5z"/>
<path class="st0" d="M13.4,78.2c1.3,0.5,2.7-0.1,3.3-1.4c0,0,0,0,0,0c3-7.3,4.1-15.3,3.1-23.1c-2-16.8,10-32,26.8-34
	c6.2-0.7,12.4,0.4,17.9,3.3c1.2,0.6,2.7,0.2,3.4-1c0.6-1.2,0.2-2.7-1-3.4c-17.4-9.2-38.9-2.6-48.1,14.8c-3.4,6.4-4.8,13.7-3.9,20.9
	c0.8,7-0.1,14.1-2.8,20.6C11.5,76.2,12.1,77.7,13.4,78.2C13.4,78.2,13.4,78.2,13.4,78.2z"/>
<path class="st0" d="M53.6,96.3c1.3,0.5,2.7,0,3.3-1.3c6.3-14.6,8.6-30.7,6.7-46.5c-0.8-7.4-7.5-12.8-14.9-12s-12.8,7.5-12,14.9
	c0,0.1,0,0.2,0,0.3c0.4,3.2,0.5,6.4,0.4,9.6c0,1.4,1,2.5,2.4,2.6c1.4,0,2.5-1,2.6-2.4c0.1-3.5,0-6.9-0.4-10.4
	c-0.6-4.7,2.6-9,7.3-9.6c4.7-0.6,9,2.6,9.6,7.3c0,0.1,0,0.2,0,0.3c1.8,14.9-0.4,30.1-6.3,43.9C51.7,94.3,52.3,95.7,53.6,96.3
	C53.6,96.3,53.6,96.3,53.6,96.3z"/>
<path class="st0" d="M30.7,92.5c1.2,0.7,2.7,0.2,3.4-1c2.5-4.7,4.4-9.7,5.8-14.8c0.4-1.3-0.4-2.7-1.8-3.1c-1.3-0.4-2.7,0.4-3.1,1.8
	l0,0c-1.3,4.8-3.1,9.4-5.4,13.7C29.1,90.4,29.5,91.8,30.7,92.5z"/>
<path class="st0" d="M69.6,47.9c0.2,1.2,1.2,2.1,2.5,2.1h0.3c1.4-0.2,2.3-1.4,2.2-2.8c-1.6-13.5-13.8-23.1-27.3-21.5
	c-1.6,0.2-3.2,0.6-4.8,1.1c-1.3,0.4-2,1.9-1.6,3.2s1.9,2,3.2,1.6c10.3-3.4,21.3,2.2,24.7,12.4C69.2,45.2,69.4,46.5,69.6,47.9
	L69.6,47.9z"/>
<path class="st0" d="M66.9,93c1.3,0.4,2.7-0.3,3.1-1.6c3.1-9.4,4.9-19.1,5.2-29c0-1.4-1-2.5-2.4-2.6c-1.4,0-2.5,1-2.6,2.4
	c-0.3,9.4-1.9,18.7-4.9,27.6C64.8,91.2,65.6,92.6,66.9,93C66.9,93,66.9,93,66.9,93z"/>
<path class="st0" d="M21.4,86.7c1.2,0.6,2.7,0.2,3.4-1.1c0,0,0,0,0,0c5.3-10.2,7.4-21.8,6-33.2c-0.5-4.5,0.5-9.1,3-13
	c0.7-1.2,0.3-2.7-0.9-3.4c-1.1-0.7-2.6-0.4-3.3,0.7c-3.1,4.8-4.5,10.6-3.8,16.2c1.3,10.4-0.6,21-5.5,30.3
	C19.7,84.5,20.1,86,21.4,86.7C21.4,86.7,21.4,86.7,21.4,86.7z"/>
</svg>
