<?xml version="1.0" encoding="utf-8"?>
<!-- Generator: Adobe Illustrator 24.0.1, SVG Export Plug-In . SVG Version: 6.00 Build 0)  -->
<svg version="1.1" id="Слой_1" xmlns="http://www.w3.org/2000/svg" xmlns:xlink="http://www.w3.org/1999/xlink" x="0px" y="0px"
	 viewBox="0 0 160 200" style="enable-background:new 0 0 160 200;" xml:space="preserve">
<style type="text/css">
	.st0{fill:#FFFFFF;}
</style>
<circle class="st0" cx="75.7" cy="106.8" r="2.9"/>
<path class="st0" d="M15.6,112.2c2.1,0,4.1-0.7,5.7-2.2l53.3-49c1.3,0.7,2.9,0.5,4-0.5l3.9-3.7c7.5,8.8,19.8,26.6,25,39
	c0.5,1.3,1.8,2.1,3.2,2.1c0.1,0,0.1,0,0.2,0c1.5-0.1,2.7-1.1,3.2-2.5c4.3-13.8-8.6-41.2-17.1-52.4l1.3-1.2c0.7-0.6,1.1-1.5,1.1-2.4
	c0-0.5-0.1-1-0.3-1.5l0.7-0.6c3.9-3.7,4-9.8,0.4-13.7c-3.7-3.9-9.8-4-13.7-0.4l-0.7,0.6c-1.3-0.6-2.9-0.5-4,0.6l-1.3,1.2
	C69.8,16.5,43.1,2.2,29.1,5.8c-1.4,0.4-2.5,1.6-2.6,3c-0.1,1.5,0.6,2.9,2,3.5c12.1,5.8,29.2,19,37.6,27L62.1,43
	c-0.7,0.6-1.1,1.5-1.1,2.4c0,0.5,0.1,1.1,0.3,1.5L9.6,97.7c-3.3,3.2-3.4,8.5-0.2,11.9C11.1,111.3,13.3,112.2,15.6,112.2z M76.4,53
	l-3.5-3.7l-3.5-3.6l4-3.8l9.5-9c0,0,0,0,0,0l1.1-1l6.9,7.3l-1.1,1c0,0,0,0,0,0l-9.5,9c0,0,0,0,0,0L76.4,53z M106.3,78.2
	c-6-10-13.4-20.2-18.7-26.3l4.3-4.1C97,54.6,103.4,67.3,106.3,78.2z M95,28.3c1,1.1,1,2.8-0.1,3.8l-0.5,0.5l-1.9-2l-1.9-2l0.5-0.5
	C92.3,27.2,94,27.2,95,28.3z M45.8,14.5C56.5,18,68.9,25,75.4,30.4l-4.3,4.1C65.2,28.9,55.5,21,45.8,14.5z M14.6,102.7L66,52.2
	l1.8,1.9l1.8,1.9l-53.1,48.8c-0.6,0.5-1.5,0.5-2.1-0.1C14,104.2,14,103.3,14.6,102.7z"/>
<path class="st0" d="M152.5,5.5c-1.3-0.5-2.8-0.2-3.8,0.8l-28.5,28.5c-0.8,0.8-1.1,1.9-1,2.9l6.4,46.9l-13.9,22.2l-5.6,0.5
	c0-0.2,0-0.4,0-0.6c0-16.8-13.7-30.5-30.5-30.5S45.2,90,45.2,106.8c0,2,0.2,4,0.6,6l-2.4,0.2c-0.8,0.1-1.6,0.4-2.2,1L6.4,148.8
	c-1,1-1.3,2.5-0.8,3.8c0.5,1.3,1.8,2.2,3.2,2.2h142.3c1.9,0,3.5-1.6,3.5-3.5V8.7C154.6,7.3,153.8,6,152.5,5.5z M147.6,147.8H17.3
	l27.9-28l68.9-6.2c1.1-0.1,2.1-0.7,2.7-1.6l15.5-24.8c0.4-0.7,0.6-1.5,0.5-2.3l-6.4-46.4l21.3-21.3L147.6,147.8L147.6,147.8z
	 M52.2,106.8c0-13,10.6-23.5,23.5-23.5s23.5,10.6,23.5,23.5c0,0.4,0,0.8,0,1.2l-34,3c-0.5-1.3-0.8-2.8-0.8-4.2
	c0-3.1,1.2-6.1,3.4-8.3c2.2-2.2,5.2-3.4,8.3-3.4s6.1,1.2,8.3,3.4c1,1,2.6,1,3.5,0c1-1,1-2.6,0-3.5c-1.9-1.9-4.1-3.2-6.6-4v-3
	c0-1.4-1.1-2.5-2.5-2.5s-2.5,1.1-2.5,2.5V90c-0.1,0-0.2,0-0.3,0c-0.1,0-0.2,0-0.3,0v-2.1c0-1.4-1.1-2.5-2.5-2.5s-2.5,1.1-2.5,2.5v3
	c-2.4,0.8-4.7,2.2-6.6,4c-3.2,3.2-4.9,7.4-4.9,11.9c0,1.6,0.2,3.2,0.7,4.7l-7.3,0.6C52.4,110.4,52.2,108.6,52.2,106.8z"/>
</svg>
