<?xml version="1.0" encoding="utf-8"?>
<!-- Generator: Adobe Illustrator 24.0.1, SVG Export Plug-In . SVG Version: 6.00 Build 0)  -->
<svg version="1.1" id="Слой_1" xmlns="http://www.w3.org/2000/svg" xmlns:xlink="http://www.w3.org/1999/xlink" x="0px" y="0px"
	 viewBox="0 0 160 200" style="enable-background:new 0 0 160 200;" xml:space="preserve">
<style type="text/css">
	.st0{fill:#FFFFFF;}
</style>
<path class="st0" d="M49,115.9c1.4-1.4,1.4-3.6,0-4.9c-1.4-1.4-3.6-1.4-5,0l-20.5,20.5c-1.4,1.4-1.4,3.6,0,4.9c0.7,0.7,1.6,1,2.5,1
	s1.8-0.3,2.5-1L49,115.9z"/>
<path class="st0" d="M54.1,121l-10.3,10.3c-1.4,1.4-1.4,3.6,0,4.9c0.7,0.7,1.6,1,2.5,1s1.8-0.3,2.5-1L59,126c1.4-1.4,1.4-3.6,0-4.9
	C57.7,119.6,55.5,119.6,54.1,121z"/>
<path class="st0" d="M14.1,141l-7.8,7.8c-1.4,1.4-1.4,3.6,0,4.9c0.7,0.7,1.6,1,2.5,1s1.8-0.3,2.5-1l7.8-7.8c1.4-1.4,1.4-3.6,0-4.9
	C17.6,139.6,15.4,139.6,14.1,141z"/>
<path class="st0" d="M35.3,139.8l-8.1,8.1c-1.4,1.4-1.4,3.6,0,4.9c0.7,0.7,1.6,1,2.5,1s1.8-0.3,2.5-1l8.1-8.1c1.4-1.4,1.4-3.6,0-4.9
	C38.9,138.4,36.7,138.4,35.3,139.8z"/>
<path class="st0" d="M26.3,117.2c0.9,0,1.8-0.3,2.5-1L39,105.9c1.4-1.4,1.4-3.6,0-4.9c-1.4-1.4-3.6-1.4-5,0l-10.3,10.3
	c-1.4,1.4-1.4,3.6,0,4.9C24.5,116.8,25.4,117.2,26.3,117.2z"/>
<path class="st0" d="M15.3,119.7l-8.1,8.1c-1.4,1.4-1.4,3.6,0,4.9c0.7,0.7,1.6,1,2.5,1s1.8-0.3,2.5-1l8.1-8.1c1.4-1.4,1.4-3.6,0-4.9
	C18.8,118.4,16.6,118.4,15.3,119.7z"/>
<path class="st0" d="M154.5,8.7C154.5,8.7,154.5,8.7,154.5,8.7C154.4,8.7,154.4,8.7,154.5,8.7c0-0.1,0-0.2-0.1-0.3
	c0-0.1,0-0.3-0.1-0.4c0-0.1-0.1-0.3-0.2-0.4c0-0.1-0.1-0.2-0.1-0.2c-0.1-0.2-0.2-0.3-0.3-0.4c0,0-0.1-0.1-0.1-0.1
	c-0.1-0.1-0.3-0.3-0.4-0.4c0,0,0-0.1-0.1-0.1c-0.1-0.1-0.3-0.2-0.5-0.3c0,0-0.1,0-0.1-0.1c-0.2-0.1-0.4-0.2-0.6-0.2c0,0,0,0-0.1,0
	c-0.2-0.1-0.4-0.1-0.6-0.1c0,0,0,0,0,0c0,0,0,0,0,0c0,0,0,0-0.1,0c-17.5-1.8-46.7,4.8-71.7,29.8c-3.6,3.6-6.9,7.6-10,11.8
	c-13.7-7.5-31.5-1-42.1,9.6c-6.9,6.9-12.5,14.7-15.5,21.5c-1.1,2.6-0.4,5.5,1.8,7.2c2.2,1.8,5.2,1.8,7.5,0.2c10.9-7.9,20.6-7,23.7-4
	l2.7,2.7c-1.4,2.7-2.6,4.9-3.8,6.9c-0.8,1.4-0.5,3.1,0.6,4.2l10,10l10,10c0.7,0.7,1.6,1,2.5,1c0.6,0,1.2-0.1,1.7-0.5
	c2-1.1,4.3-2.4,6.9-3.8l2.7,2.7c3.1,3.1,4,12.7-4,23.7c-1.7,2.3-1.6,5.3,0.2,7.5c1.2,1.5,2.9,2.3,4.7,2.3c0.8,0,1.7-0.2,2.5-0.5
	c6.8-3,14.7-8.6,21.5-15.5c10.6-10.6,17.1-28.4,9.6-42.1c4.2-3.1,8.2-6.4,11.8-10C149.6,55.4,156.3,26.2,154.5,8.7z M147.7,12.3
	c0.3,6-0.5,13.2-2.7,21L126.7,15C134.5,12.8,141.7,12,147.7,12.3z M19.7,78.2c2.9-5.3,7.4-11.3,12.6-16.5C41,53.1,55.1,48,65.5,52.9
	C59.8,61.4,55,70.3,51,77.9l-1.2-1.2C44.4,71.4,32.3,70.3,19.7,78.2z M67.5,108.8l-8.2-8.2l-8.2-8.2c1.1-2.1,2.4-4.4,3.8-7.1
	l0.4-0.7c0.4-0.8,0.9-1.7,1.3-2.5l21.2,21.2c-0.9,0.4-1.7,0.9-2.5,1.3l-0.7,0.4C71.9,106.5,69.6,107.7,67.5,108.8z M98.3,127.6
	c-5.2,5.2-11.2,9.8-16.5,12.6c7.9-12.6,6.8-24.7,1.4-30L82,109c7.7-4.1,16.5-8.9,25-14.5C112,104.9,106.9,119,98.3,127.6z
	 M82.4,100.9L59.1,77.6c6.6-12.3,15-26.9,25.5-37.3c12-12,24.9-19.4,36.8-23.6l21.9,22c-4.2,11.9-11.6,24.9-23.6,36.8
	C109.3,85.9,94.7,94.3,82.4,100.9z"/>
<path class="st0" d="M123.5,36.5c-2.6-2.7-6.2-4.1-9.9-4.1c-3.7,0-7.3,1.5-9.9,4.1c-5.5,5.5-5.5,14.4,0,19.8
	c2.7,2.7,6.3,4.1,9.9,4.1c3.6,0,7.2-1.4,9.9-4.1C129,50.8,129,41.9,123.5,36.5z M120,52.8c-3.5,3.5-9.2,3.5-12.8,0
	c-3.5-3.5-3.5-9.2,0-12.8c1.7-1.7,4-2.6,6.4-2.6c2.4,0,4.7,0.9,6.4,2.6C123.5,43.5,123.5,49.2,120,52.8z"/>
</svg>
