<?xml version="1.0" encoding="utf-8"?>
<!-- Generator: Adobe Illustrator 24.0.1, SVG Export Plug-In . SVG Version: 6.00 Build 0)  -->
<svg version="1.1" id="Слой_1" xmlns="http://www.w3.org/2000/svg" xmlns:xlink="http://www.w3.org/1999/xlink" x="0px" y="0px"
	 viewBox="0 0 63 70" style="enable-background:new 0 0 63 70;" xml:space="preserve">
<style type="text/css">
	.st0{fill:#FFFFFF;}
</style>
<path class="st0" d="M21.2,70c-1,0-1.8-0.8-1.8-1.8c0-0.5,0.3-1.1,0.7-1.4c7.2-5.1,16-14.9,19.1-23.4c2.4-6.8,1.1-15.7-7.4-19
	c-2.4-0.9-5-1.2-7.6-0.7c-4.8,0.9-8.8,4.1-10.7,8.6C11.1,37.9,7.4,42,2.6,44.5c-0.9,0.4-2,0.2-2.4-0.7c-0.5-0.9-0.2-2,0.7-2.4
	c0,0,0.1,0,0.1-0.1c4.1-2.1,7.1-5.5,9.3-10.6c2.3-5.5,7.4-9.6,13.3-10.7c3.2-0.6,6.5-0.3,9.6,0.9c7.5,2.9,13.7,11.5,9.5,23.4
	C39.4,53.6,30,64,22.3,69.5C21.9,69.9,21.6,70,21.2,70z M34.6,67c-1,0-1.8-0.8-1.8-1.8c0-0.4,0.2-0.9,0.5-1.3
	c5.9-6.1,10.2-12.7,12.2-18.5c4.7-13.3-2.2-23.8-11.3-27.4c-3.6-1.3-7.5-1.7-11.3-1.1c-6.9,1.3-12.3,5.1-15,10.7l-0.1,0.2
	c-1.2,2.4-2.4,5-5,5.8c-1,0.2-1.9-0.4-2.2-1.3c-0.2-0.9,0.3-1.7,1.1-2.1c1.1-0.4,2.1-2.2,2.9-3.9l0.1-0.2
	c3.3-6.7,9.6-11.2,17.7-12.7c4.4-0.8,9-0.4,13.2,1.3c10.7,4.1,18.7,16.5,13.3,31.9c-2.2,6.3-6.8,13.3-13,19.8
	C35.6,66.9,35.1,67,34.6,67z M14.3,66.5c-1,0-1.8-0.7-1.9-1.7c0-0.7,0.4-1.3,1-1.6c6.6-3.6,16.7-14.1,19.5-22
	c2.1-6-0.5-9.4-3.4-10.6c-3.9-1.4-8.1,0.5-9.6,4.3c-1.8,4.2-7.2,13.2-14.2,17c-0.9,0.4-2,0.2-2.4-0.7c-0.5-0.9-0.2-2,0.7-2.4
	c5.7-3,10.8-11,12.6-15.3c2.2-5.6,8.6-8.4,14.2-6.3c6.6,2.5,7.5,9.6,5.6,15c-3.2,9-13.8,20-21.3,24.1C14.9,66.4,14.5,66.5,14.3,66.5
	z M9,60.2c-1,0-1.8-0.8-1.8-1.8c0-0.6,0.4-1.3,0.9-1.6c1.3-0.7,2.3-1.4,3.4-2.3c0.8-0.5,1.9-0.4,2.5,0.4c0.5,0.7,0.5,1.8-0.3,2.4
	c-1.3,1-2.5,1.9-4,2.6C9.6,60.2,9.2,60.2,9,60.2z M50.1,57.8c-1,0-1.8-0.8-1.8-1.8c0-0.4,0.1-0.6,0.3-0.9c1.4-2.3,2.5-4.8,3.4-7.4
	c6-17.1-3.3-31.2-15.1-35.8C32,10,26.9,9.6,21.9,10.6c-7.3,1.3-13.8,5.7-17.8,12.1c-0.5,0.8-1.7,1.1-2.5,0.5
	c-0.8-0.5-1.1-1.7-0.5-2.5c4.5-7.1,11.8-12,20.1-13.5c5.7-1.1,11.5-0.5,16.9,1.6c13.4,5.2,24.1,21,17.3,40.3c-1,2.8-2.3,5.5-3.7,8.1
	C51.3,57.5,50.7,57.8,50.1,57.8z M17.2,53.6c-1,0-1.8-0.8-1.8-1.8c0-0.4,0.2-0.9,0.5-1.3c5-5.2,8.7-11.2,9.9-14.7
	c0.4-0.9,1.4-1.3,2.3-1c0.9,0.4,1.4,1.3,1,2.2C27.7,41,23.8,47.4,18.5,53C18.1,53.4,17.7,53.5,17.2,53.6z M61.1,29.7
	c-0.8,0-1.5-0.5-1.7-1.3C56.8,18,50.2,10.1,40.7,6.2C30.7,2.1,19.3,2.9,10,8.4C9.2,9.1,8.1,8.9,7.5,8.1C6.9,7.3,7.1,6.2,7.9,5.6
	C8,5.5,8.1,5.5,8.1,5.4c10.3-6.2,22.9-7.1,34-2.5c10.6,4.4,18,13.2,20.8,24.6c0.3,1-0.4,2-1.4,2.1C61.4,29.7,61.2,29.7,61.1,29.7z"
	/>
</svg>
