<?xml version="1.0" encoding="utf-8"?>
<!-- Generator: Adobe Illustrator 24.0.1, SVG Export Plug-In . SVG Version: 6.00 Build 0)  -->
<svg version="1.1" id="Слой_1" xmlns="http://www.w3.org/2000/svg" xmlns:xlink="http://www.w3.org/1999/xlink" x="0px" y="0px"
	 viewBox="0 0 160 200" style="enable-background:new 0 0 160 200;" xml:space="preserve">
<style type="text/css">
	.st0{fill:#FFFFFF;}
</style>
<path class="st0" d="M75.8,82.3c1.4-1.4,1.4-3.6,0-4.9c-3.4-3.4-7.4-5.8-11.8-7.1v-5.8c0-1.9-1.6-3.5-3.5-3.5s-3.5,1.6-3.5,3.5V69
	c-0.5,0-0.9,0-1.4,0s-0.9,0-1.4,0v-4.6c0-1.9-1.6-3.5-3.5-3.5s-3.5,1.6-3.5,3.5v5.8c-4.4,1.4-8.5,3.8-11.8,7.1
	c-5.4,5.4-8.4,12.6-8.4,20.2c0,7.6,3,14.8,8.4,20.2c3.4,3.4,7.4,5.8,11.8,7.1v5.8c0,1.9,1.6,3.5,3.5,3.5s3.5-1.6,3.5-3.5v-4.6
	c0.5,0,0.9,0,1.4,0s0.9,0,1.4,0v4.6c0,1.9,1.6,3.5,3.5,3.5s3.5-1.6,3.5-3.5V125c4.4-1.4,8.5-3.8,11.8-7.1c1.4-1.4,1.4-3.6,0-4.9
	c-1.4-1.4-3.6-1.4-4.9,0c-4.1,4.1-9.5,6.3-15.3,6.3c-5.8,0-11.2-2.3-15.3-6.3c-4.1-4.1-6.3-9.5-6.3-15.3s2.2-11.2,6.3-15.3
	c4.1-4.1,9.5-6.3,15.3-6.3s11.2,2.2,15.3,6.3C72.2,83.7,74.4,83.7,75.8,82.3z"/>
<circle class="st0" cx="55.5" cy="97.6" r="5.1"/>
<path class="st0" d="M151.7,77h-7.9V44.7c0-1.9-1.6-3.5-3.5-3.5h-7.7c0.7-2.4,1-4.8,1-7.4c0-15.3-12.5-27.8-27.8-27.8
	S77.9,18.5,77.9,33.8c0,2.5,0.3,5,1,7.4h-2.7c-1.7-13.7-13.4-24.3-27.6-24.3S22.7,27.5,21,41.2h-4.8c-6.3,0-11.4,5.1-11.4,11.4v90.1
	c0,6.3,5.1,11.4,11.4,11.4h124.1c1.9,0,3.5-1.6,3.5-3.5v-32.9h7.9c1.9,0,3.5-1.6,3.5-3.5V80.5C155.2,78.6,153.6,77,151.7,77z
	 M84.9,33.8c0-11.5,9.3-20.8,20.8-20.8s20.8,9.3,20.8,20.8c0,2.5-0.5,5-1.4,7.4H86.2C85.3,38.9,84.9,36.4,84.9,33.8z M48.6,23.9
	c10.3,0,18.8,7.5,20.5,17.3H28C29.7,31.4,38.3,23.9,48.6,23.9z M136.7,147H16.2c-2.4,0-4.4-2-4.4-4.4V52.6c0-2.4,2-4.4,4.4-4.4h67.7
	c0,0,0,0,0,0c0,0,0,0,0,0h52.8V77h-20c-9.4,0-17,7.6-17,17v6.7c0,9.4,7.6,17,17,17h20L136.7,147L136.7,147z M148.2,110.6h-31.4
	c-5.5,0-10-4.5-10-10V94c0-5.5,4.5-10,10-10h31.4V110.6z"/>
<path class="st0" d="M120.9,88.5c-5,0-9.1,4.1-9.1,9.1s4.1,9.1,9.1,9.1s9.1-4.1,9.1-9.1S125.9,88.5,120.9,88.5z M120.9,101.7
	c-2.3,0-4.1-1.9-4.1-4.1s1.9-4.1,4.1-4.1c2.3,0,4.1,1.9,4.1,4.1C125,99.9,123.1,101.7,120.9,101.7z"/>
</svg>
