<?xml version="1.0" encoding="utf-8"?>
<!-- Generator: Adobe Illustrator 24.0.1, SVG Export Plug-In . SVG Version: 6.00 Build 0)  -->
<svg version="1.1" id="Слой_1" xmlns="http://www.w3.org/2000/svg" xmlns:xlink="http://www.w3.org/1999/xlink" x="0px" y="0px"
	 viewBox="0 0 52 52.2" style="enable-background:new 0 0 52 52.2;" xml:space="preserve">
<style type="text/css">
	.st0{fill:#FFFFFF;}
</style>
<g>
	<g>
		<path class="st0" d="M26,41.4c-8.5,0-15.4-6.9-15.4-15.4S17.5,10.6,26,10.6S41.4,17.5,41.4,26S34.5,41.4,26,41.4z M26,12.6
			c-7.4,0-13.4,6-13.4,13.4s6,13.4,13.4,13.4s13.4-6,13.4-13.4S33.4,12.6,26,12.6z"/>
	</g>
	<g>
		<path class="st0" d="M28.5,47.3c-0.2,0-0.5-0.1-0.6-0.2c-0.2-0.2-0.3-0.4-0.4-0.7c0-0.8-0.7-1.5-1.5-1.5s-1.5,0.6-1.6,1.5
			c0,0.3-0.1,0.5-0.4,0.7c-0.2,0.2-0.5,0.3-0.8,0.2c-9.8-1.2-17.4-8.8-18.6-18.6c0-0.3,0-0.5,0.2-0.8s0.4-0.3,0.7-0.4
			c0.8,0,1.5-0.7,1.5-1.6c0-0.8-0.6-1.5-1.5-1.5c-0.3,0-0.5-0.1-0.7-0.4c-0.2-0.2-0.3-0.5-0.2-0.8c1.2-9.8,8.8-17.4,18.6-18.6
			c0.3,0,0.5,0,0.8,0.2c0.2,0.2,0.3,0.4,0.4,0.7c0,0.8,0.7,1.4,1.6,1.4c0.8,0,1.5-0.6,1.5-1.4c0-0.3,0.1-0.5,0.4-0.7
			c0.2-0.2,0.5-0.3,0.8-0.2c9.8,1.2,17.4,8.8,18.6,18.6c0,0.3,0,0.5-0.2,0.8c-0.2,0.2-0.4,0.3-0.7,0.4c-0.8,0-1.4,0.7-1.4,1.5
			s0.6,1.5,1.4,1.6c0.3,0,0.5,0.1,0.7,0.4s0.3,0.5,0.2,0.8c-1.2,9.8-8.9,17.4-18.6,18.6C28.6,47.3,28.6,47.3,28.5,47.3z M26,42.9
			c1.5,0,2.8,0.9,3.3,2.3c8.1-1.4,14.5-7.7,15.8-15.8c-1.3-0.5-2.3-1.8-2.3-3.3s0.9-2.8,2.3-3.3C43.7,14.7,37.4,8.3,29.3,7
			c-0.5,1.3-1.8,2.3-3.3,2.3S23.2,8.4,22.7,7C14.6,8.2,8.2,14.6,6.8,22.7c1.3,0.5,2.3,1.8,2.3,3.3s-0.9,2.8-2.3,3.3
			c1.4,8.1,7.7,14.5,15.8,15.8C23.2,43.8,24.5,42.9,26,42.9z"/>
	</g>
	<g>
		<path class="st0" d="M26,9.1c-1.9,0-3.4-1.4-3.5-3.3c0-0.1,0-0.2,0-0.3C22.4,3.6,24,2,26,2s3.5,1.6,3.5,3.6c0,0.1,0,0.2,0,0.3
			C29.4,7.7,27.9,9.1,26,9.1z M26,4c-0.9,0-1.6,0.7-1.6,1.6v0.1c0,0.8,0.7,1.4,1.6,1.4c0.8,0,1.5-0.6,1.5-1.4V5.6l0,0
			C27.5,4.7,26.9,4,26,4z"/>
	</g>
	<g>
		<path class="st0" d="M26,50c-2,0-3.6-1.6-3.6-3.6c0-0.1,0-0.2,0-0.3c0.1-1.8,1.7-3.2,3.5-3.2c1.9,0,3.4,1.5,3.5,3.3
			c0,0,0,0.1,0,0.2C29.5,48.4,28,50,26,50z M26,44.9c-0.8,0-1.5,0.6-1.6,1.5v0.1c0,0.9,0.7,1.6,1.6,1.6s1.5-0.7,1.5-1.6h1h-1
			C27.5,45.5,26.8,44.9,26,44.9z"/>
	</g>
	<g>
		<path class="st0" d="M46.4,29.6c-0.1,0-0.2,0-0.3,0c-1.8-0.1-3.3-1.7-3.3-3.5c0-1.9,1.4-3.4,3.3-3.5c0.1,0,0.2,0,0.3,0
			c2,0,3.6,1.6,3.6,3.6C50,28,48.4,29.6,46.4,29.6z M46.4,24.4L46.4,24.4c-0.9,0-1.5,0.7-1.5,1.5s0.6,1.5,1.4,1.6h0.1
			c0.8,0,1.5-0.7,1.5-1.6C48,25.1,47.3,24.4,46.4,24.4z"/>
	</g>
	<g>
		<path class="st0" d="M5.5,29.6C3.6,29.6,2,28,2,26s1.6-3.6,3.5-3.6c0.1,0,0.2,0,0.3,0c1.8,0.1,3.3,1.7,3.3,3.5
			c0,1.9-1.4,3.4-3.3,3.5C5.7,29.6,5.6,29.6,5.5,29.6z M5.5,24.4C4.7,24.4,4,25.1,4,26s0.7,1.6,1.5,1.6h0.1c0.8,0,1.5-0.7,1.5-1.6
			c0-0.8-0.6-1.5-1.5-1.5C5.6,24.5,5.6,24.5,5.5,24.4z"/>
	</g>
	<g>
		<g>
			<path class="st0" d="M26,41.4c-4.1,0-7.2-6.6-7.2-15.4s3.1-15.4,7.2-15.4s7.2,6.6,7.2,15.4S30.1,41.4,26,41.4z M26,12.6
				c-2.4,0-5.2,5.5-5.2,13.4s2.7,13.4,5.2,13.4c2.4,0,5.2-5.5,5.2-13.4S28.4,12.6,26,12.6z"/>
		</g>
		<g>
			<path class="st0" d="M26,41.4c-0.6,0-1-0.4-1-1V11.6c0-0.6,0.4-1,1-1s1,0.4,1,1v28.9C27,41,26.5,41.4,26,41.4z"/>
		</g>
		<g>
			<g>
				<path class="st0" d="M39.1,21H12.9c-0.3,0-0.7-0.2-0.8-0.5c-0.2-0.3-0.2-0.6-0.1-1c2.5-5.5,8-9,14-9s11.5,3.5,14,9
					c0.1,0.3,0.1,0.7-0.1,1C39.8,20.8,39.5,21,39.1,21z M14.5,19h22.9c-2.4-4-6.8-6.4-11.5-6.4C21.3,12.6,17,15,14.5,19z"/>
			</g>
			<g>
				<path class="st0" d="M26,41.4c-6,0-11.5-3.5-14-9c-0.1-0.3-0.1-0.7,0.1-1c0.2-0.3,0.5-0.5,0.8-0.5h26.2c0.3,0,0.7,0.2,0.8,0.5
					c0.2,0.3,0.2,0.6,0.1,1C37.5,37.9,32,41.4,26,41.4z M14.5,33c2.4,4,6.8,6.4,11.5,6.4s9-2.5,11.5-6.4H14.5z"/>
			</g>
			<g>
				<path class="st0" d="M40.4,27H11.6c-0.6,0-1-0.4-1-1c0-2.2,0.5-4.4,1.4-6.4c0.2-0.4,0.5-0.6,0.9-0.6h26.2c0.4,0,0.7,0.2,0.9,0.6
					c0.9,2,1.4,4.2,1.4,6.4C41.4,26.6,41,27,40.4,27z M12.6,25h26.8c-0.1-1.4-0.4-2.7-0.9-4h-25C13,22.3,12.7,23.6,12.6,25z"/>
			</g>
			<g>
				<path class="st0" d="M39.1,33H12.9c-0.4,0-0.7-0.2-0.9-0.6c-0.9-2-1.4-4.2-1.4-6.4c0-0.6,0.4-1,1-1h28.9c0.6,0,1,0.4,1,1
					c0,2.2-0.5,4.4-1.4,6.4C39.9,32.8,39.5,33,39.1,33z M13.5,31h24.9c0.5-1.3,0.8-2.6,0.9-4H12.6C12.7,28.4,13,29.7,13.5,31z"/>
			</g>
		</g>
	</g>
</g>
</svg>
