<?xml version="1.0" encoding="utf-8"?>
<!-- Generator: Adobe Illustrator 24.0.1, SVG Export Plug-In . SVG Version: 6.00 Build 0)  -->
<svg version="1.1" id="Слой_1" xmlns="http://www.w3.org/2000/svg" xmlns:xlink="http://www.w3.org/1999/xlink" x="0px" y="0px"
	 viewBox="0 0 24.3 37.3" style="enable-background:new 0 0 24.3 37.3;" xml:space="preserve">
<style type="text/css">
	.st0{fill:#FFFFFF;}
</style>
<path class="st0" d="M20.1,17.6c-0.2-0.3-0.5-0.6-0.9-0.6H15l3.1-11.7c0.1-0.5-0.1-0.9-0.5-1.2c-0.4-0.2-0.9-0.1-1.2,0.3l-12,15
	c-0.2,0.3-0.3,0.7-0.1,1.1c0.2,0.3,0.5,0.6,0.9,0.6h4.2L6.3,32.8c-0.1,0.5,0.1,0.9,0.5,1.2c0.1,0.1,0.3,0.1,0.5,0.1
	c0.3,0,0.6-0.1,0.8-0.4l12-15C20.2,18.3,20.2,17.9,20.1,17.6z M9.4,28.7l2.1-7.7l0.2-0.7c0.1-0.3,0-0.6-0.2-0.9
	C11.3,19.1,11,19,10.7,19H9.9H7.3L15,9.3L13,17l-0.2,0.7c-0.1,0.3,0,0.6,0.2,0.9c0.2,0.3,0.5,0.4,0.8,0.4h0.8h2.6L9.4,28.7z"/>
</svg>
