<?xml version="1.0" encoding="utf-8"?>
<!-- Generator: Adobe Illustrator 24.0.1, SVG Export Plug-In . SVG Version: 6.00 Build 0)  -->
<svg version="1.1" id="Слой_1" xmlns="http://www.w3.org/2000/svg" xmlns:xlink="http://www.w3.org/1999/xlink" x="0px" y="0px"
	 viewBox="0 0 160 163" style="enable-background:new 0 0 160 163;" xml:space="preserve">
<style type="text/css">
	.st0{fill:#FFFFFF;}
</style>
<path class="st0" d="M151.6,67.9h-42.9v-7.3c0-9.7-7.9-17.5-17.6-17.5H68.3c-9.7,0-17.6,7.9-17.6,17.5v7.3H8.4
	c-1.9,0-3.5,1.6-3.5,3.5v16.7c0,1.9,1.6,3.5,3.5,3.5H18l5.7,59.2c0.2,1.8,1.7,3.2,3.5,3.2H133c1.8,0,3.3-1.4,3.5-3.2l5.7-59.2h9.6
	c1.9,0,3.5-1.6,3.5-3.5V71.4C155.1,69.4,153.6,67.9,151.6,67.9z M57.8,60.5c0-5.8,4.7-10.5,10.6-10.5h22.9c5.8,0,10.6,4.7,10.6,10.5
	v7.3h-1.5h-0.6h-42V60.5z M129.7,146.9H30.3L25,91.6h110L129.7,146.9z M148.1,84.6H11.9v-9.7h88.2h0.2h5h2.7h40.2L148.1,84.6
	L148.1,84.6z"/>
<path class="st0" d="M76.3,105.6c0.1,0.2,0.2,0.5,0.4,0.7c0.1,0.2,0.3,0.4,0.5,0.6c0.8,0.8,1.8,1.2,2.8,1.2c0.3,0,0.5,0,0.8-0.1
	s0.5-0.1,0.8-0.2c0.2-0.1,0.5-0.2,0.7-0.4c0.2-0.2,0.4-0.3,0.6-0.5c0.7-0.7,1.2-1.8,1.2-2.8c0-0.3,0-0.5-0.1-0.8
	c-0.1-0.2-0.1-0.5-0.2-0.8c-0.1-0.2-0.2-0.5-0.4-0.7c-0.1-0.2-0.3-0.4-0.5-0.6s-0.4-0.3-0.6-0.5c-0.2-0.1-0.4-0.3-0.7-0.4
	c-0.2-0.1-0.5-0.2-0.8-0.2c-1.3-0.3-2.7,0.2-3.6,1.1c-0.2,0.2-0.4,0.4-0.5,0.6s-0.3,0.4-0.4,0.7c-0.1,0.2-0.2,0.5-0.2,0.8
	c-0.1,0.3-0.1,0.5-0.1,0.8s0,0.5,0.1,0.8C76.1,105.1,76.2,105.3,76.3,105.6z"/>
<path class="st0" d="M73.3,131.3c-1.9,0-3.5,1.6-3.5,3.5s1.6,3.5,3.5,3.5h13.3c1.9,0,3.5-1.6,3.5-3.5s-1.6-3.5-3.5-3.5h-3.2v-10.8
	h3.2c1.9,0,3.5-1.6,3.5-3.5s-1.6-3.5-3.5-3.5H73.3c-1.9,0-3.5,1.6-3.5,3.5s1.6,3.5,3.5,3.5h3.2v10.8H73.3z"/>
<path class="st0" d="M79.1,41.2c9.7,0,17.6-7.9,17.6-17.6S88.8,6.1,79.1,6.1S61.5,14,61.5,23.7S69.4,41.2,79.1,41.2z M79.1,13.1
	c5.8,0,10.6,4.7,10.6,10.6S85,34.2,79.1,34.2c-5.8,0-10.6-4.7-10.6-10.6S73.3,13.1,79.1,13.1z"/>
</svg>
