<svg xmlns="http://www.w3.org/2000/svg" width="46" height="60.017" viewBox="0 0 46 60.017">
  <g id="noun_Skull_1847622" transform="translate(0 -0.005)">
    <g id="Group_3" data-name="Group 3">
      <g id="Group_2" data-name="Group 2">
        <path id="Path_12" data-name="Path 12" d="M23.548,33.164a1,1,0,0,0-1.1,0,8.391,8.391,0,0,0-2.87,2.868c-.84,1.655-.766,3.332.19,4.273a2.467,2.467,0,0,0,2.125.662A2.524,2.524,0,0,0,23,40.5a2.542,2.542,0,0,0,1.507.5,2.458,2.458,0,0,0,1.721-.7c.956-.941,1.03-2.618.2-4.248A8.39,8.39,0,0,0,23.548,33.164Zm1.277,5.715a.478.478,0,0,1-.4.115.809.809,0,0,1-.533-.476,1,1,0,0,0-1.784,0,.809.809,0,0,1-.533.476.468.468,0,0,1-.4-.115c-.22-.217-.307-.962.2-1.965A5.369,5.369,0,0,1,23,35.219a5.4,5.4,0,0,1,1.635,1.719C25.132,37.917,25.045,38.662,24.825,38.879Z" fill="red"/>
        <path id="Path_13" data-name="Path 13" d="M19.862,29.953a4.493,4.493,0,0,0-.641-3.678,5.553,5.553,0,0,0-3.907-2.2c-2.328-.3-5.45.275-7.22,2.778A6.2,6.2,0,0,0,7,30.547a4.942,4.942,0,0,0,2.151,4.084,6.466,6.466,0,0,0,3.562,1,7.984,7.984,0,0,0,1.114-.079A7.313,7.313,0,0,0,19.862,29.953Zm-9.611,3.006A2.993,2.993,0,0,1,9,30.488,4.17,4.17,0,0,1,9.725,28,5.4,5.4,0,0,1,14.2,26a6.75,6.75,0,0,1,.862.054,3.568,3.568,0,0,1,2.518,1.36,2.509,2.509,0,0,1,.336,2.083,5.3,5.3,0,0,1-4.36,4.071A4.88,4.88,0,0,1,10.251,32.959Z" fill="red"/>
        <path id="Path_14" data-name="Path 14" d="M30.685,24.073a5.553,5.553,0,0,0-3.906,2.2,4.493,4.493,0,0,0-.641,3.678,7.313,7.313,0,0,0,6.032,5.6,7.985,7.985,0,0,0,1.114.079,6.466,6.466,0,0,0,3.562-1A4.942,4.942,0,0,0,39,30.547a6.2,6.2,0,0,0-1.091-3.7A7.59,7.59,0,0,0,30.685,24.073ZM37,30.488a2.993,2.993,0,0,1-1.249,2.471,4.873,4.873,0,0,1-3.3.611,5.3,5.3,0,0,1-4.36-4.071,2.509,2.509,0,0,1,.336-2.083,3.568,3.568,0,0,1,2.517-1.36A6.788,6.788,0,0,1,31.8,26a5.4,5.4,0,0,1,4.471,2A4.17,4.17,0,0,1,37,30.488Z" fill="red"/>
        <path id="Path_15" data-name="Path 15" d="M10.412,11.487c.269.1.545.212.824.326a1,1,0,0,0,.753-1.853c-.292-.119-.579-.232-.859-.34a1,1,0,0,0-.718,1.867Z" fill="red"/>
        <path id="Path_16" data-name="Path 16" d="M20.026,17.262A1,1,0,1,0,21.5,15.907q-.327-.354-.683-.692a1,1,0,0,0-1.376,1.451Q19.746,16.957,20.026,17.262Z" fill="red"/>
        <path id="Path_17" data-name="Path 17" d="M15.22,13.691c.256.141.509.285.761.434A1,1,0,1,0,17,12.4q-.4-.237-.812-.463a1,1,0,1,0-.967,1.751Z" fill="red"/>
        <path id="Path_18" data-name="Path 18" d="M22.008,21.125a.6.6,0,0,0,.024.075,1,1,0,0,0,.052.164.91.91,0,0,0,.192.307,1,1,0,0,0,.155.135.941.941,0,0,0,.137.083.979.979,0,0,0,.208.07.818.818,0,0,0,.1.033.95.95,0,0,0,.246,0,.818.818,0,0,0,.1-.033.979.979,0,0,0,.208-.07.941.941,0,0,0,.137-.083,1,1,0,0,0,.155-.135.91.91,0,0,0,.192-.307,1,1,0,0,0,.052-.164.6.6,0,0,0,.024-.075c.018-.14.04-.279.069-.417a1,1,0,0,0-.777-1.181.942.942,0,0,0-.168,0,1,1,0,0,0-.145,0,.8.8,0,0,0-.085,0,.965.965,0,0,0-.17,0,1,1,0,0,0-.777,1.181C21.968,20.846,21.99,20.985,22.008,21.125Z" fill="red"/>
        <path id="Path_19" data-name="Path 19" d="M25.238,17.584a1,1,0,0,0,.736-.322q.281-.3.589-.6a1,1,0,1,0-1.377-1.451q-.357.337-.683.692a1,1,0,0,0,.735,1.677Z" fill="red"/>
        <path id="Path_20" data-name="Path 20" d="M29.511,14.264a1,1,0,0,0,.508-.139c.252-.149.505-.293.761-.434a1,1,0,1,0-.967-1.751q-.408.225-.812.463a1,1,0,0,0,.51,1.861Z" fill="red"/>
        <path id="Path_21" data-name="Path 21" d="M34.388,11.887a1,1,0,0,0,.376-.074c.279-.114.555-.223.824-.326A1,1,0,0,0,34.87,9.62c-.28.108-.567.221-.859.34a1,1,0,0,0,.377,1.927Z" fill="red"/>
        <path id="Path_22" data-name="Path 22" d="M.119,23.029A19.606,19.606,0,0,0,2.57,30.618a5.894,5.894,0,0,0-.192,4.534,5.555,5.555,0,0,0,2.85,2.723,4.215,4.215,0,0,0,.617,3.2,4.093,4.093,0,0,0,1.855,1.4V47.1a5.557,5.557,0,0,0,.461,2.222c1.112,2.571,4.212,8.722,8.96,10.311a7.27,7.27,0,0,0,2.319.385,7.963,7.963,0,0,0,3.56-.9,7.959,7.959,0,0,0,3.56.907,7.27,7.27,0,0,0,2.319-.385c4.748-1.589,7.848-7.74,8.959-10.31A5.55,5.55,0,0,0,38.3,47.1V42.472a4.093,4.093,0,0,0,1.855-1.4,4.215,4.215,0,0,0,.617-3.2,5.555,5.555,0,0,0,2.85-2.723,5.894,5.894,0,0,0-.192-4.534,19.606,19.606,0,0,0,2.451-7.589c0-.032.008-.061.009-.093A18.942,18.942,0,0,0,46,21c0-7.487-4.316-14.067-10.793-17.786H35.2a24.789,24.789,0,0,0-24.4,0l-.014.008C4.315,6.936,0,13.515,0,21a18.951,18.951,0,0,0,.11,1.936A.889.889,0,0,0,.119,23.029ZM5.9,10.008l.31.084a1,1,0,0,0,1.231-.7.98.98,0,0,0-.214-.9,20.682,20.682,0,0,1,4.2-3.335C13.593,5.8,22,8.578,22,13a1,1,0,0,0,2,0c0-4.422,8.407-7.2,10.572-7.84a20.682,20.682,0,0,1,4.2,3.335.98.98,0,0,0-.214.9,1,1,0,0,0,1.231.7l.31-.084a17.716,17.716,0,0,1,3.877,10.541,12.542,12.542,0,0,0-7.848-3.091c-4.4-.06-8.776,2.3-13.127,7.043-4.355-4.741-8.766-7.1-13.127-7.043a12.542,12.542,0,0,0-7.848,3.091A17.716,17.716,0,0,1,5.9,10.008ZM28.244,57.74a5.6,5.6,0,0,1-4.75-.61.912.912,0,0,0-.112-.036.952.952,0,0,0-.194-.063A.912.912,0,0,0,23,57.016a.926.926,0,0,0-.188.015,1.027,1.027,0,0,0-.192.062,1.082,1.082,0,0,0-.114.037,5.6,5.6,0,0,1-4.75.61c-4.1-1.37-6.975-7.394-7.759-9.208a3.689,3.689,0,0,1-.115-.361,39.279,39.279,0,0,0,4.118,1V51a3,3,0,0,0,3,3,2.929,2.929,0,0,0,2-.782A2.976,2.976,0,0,0,21,54a2.929,2.929,0,0,0,2-.782A2.976,2.976,0,0,0,25,54a2.929,2.929,0,0,0,2-.782A2.976,2.976,0,0,0,29,54a3.015,3.015,0,0,0,3-3V49.174a39.073,39.073,0,0,0,4.118-1,3.513,3.513,0,0,1-.115.361C35.219,50.346,32.34,56.37,28.244,57.74ZM20,46a1,1,0,0,1,1-1,.974.974,0,0,1,.712.306A.957.957,0,0,1,22,46v1.981q-1.008-.02-2-.08Zm8,0a1,1,0,0,1,1-1,.974.974,0,0,1,.712.306A.957.957,0,0,1,30,46v1.488c-.657.1-1.325.18-2,.25Zm-2,5a.974.974,0,0,1-.306.712A.957.957,0,0,1,25,52a1,1,0,0,1-1-1V49.981q1.008-.02,2-.077Zm-4,0a.974.974,0,0,1-.306.712A.957.957,0,0,1,21,52a1,1,0,0,1-1-1V49.9q.992.057,2,.077Zm-4,0a.974.974,0,0,1-.306.712A.957.957,0,0,1,17,52a1,1,0,0,1-1-1V49.505q.988.142,2,.242Zm10-1.253q1.012-.1,2-.242V51a.974.974,0,0,1-.306.712A.957.957,0,0,1,29,52a1,1,0,0,1-1-1ZM26,47.9q-.992.06-2,.08V46a1,1,0,0,1,1-1,.974.974,0,0,1,.712.306A.957.957,0,0,1,26,46Zm-8-.163c-.675-.07-1.343-.152-2-.25V46a1,1,0,0,1,1-1,.974.974,0,0,1,.712.306A.957.957,0,0,1,18,46Zm24.018-19.75a1,1,0,1,0-1.653,1.125c1.028,1.512,2.109,3.649,1.42,5.25a4.01,4.01,0,0,1-2.3,1.9.725.725,0,0,0-.519.2,14.131,14.131,0,0,1-2.264.546A1,1,0,0,0,36.864,39a.976.976,0,0,0,.161-.013,16.7,16.7,0,0,0,1.822-.4,2.068,2.068,0,0,1-.32,1.33C38.02,40.625,36.835,41,35.1,41a1,1,0,0,0,0,2,11.619,11.619,0,0,0,1.2-.066v3.072A35.871,35.871,0,0,1,32,47.144V46a3.015,3.015,0,0,0-3-3,2.977,2.977,0,0,0-2,.783A2.936,2.936,0,0,0,25,43a2.977,2.977,0,0,0-2,.783A2.936,2.936,0,0,0,21,43a2.977,2.977,0,0,0-2,.783A2.936,2.936,0,0,0,17,43a3,3,0,0,0-3,3v1.144a35.872,35.872,0,0,1-4.3-1.138V42.934A11.619,11.619,0,0,0,10.9,43a1,1,0,1,0,0-2c-1.735,0-2.92-.375-3.427-1.086a2.068,2.068,0,0,1-.32-1.33,16.7,16.7,0,0,0,1.822.4A.976.976,0,0,0,9.136,39,1,1,0,0,0,9.3,37.01a14.13,14.13,0,0,1-2.264-.546.964.964,0,0,0-.293-.172.98.98,0,0,0-.226-.031,4.01,4.01,0,0,1-2.3-1.9c-.689-1.6.392-3.738,1.42-5.25a1,1,0,1,0-1.653-1.125c-.1.155-.191.305-.288.458A17.561,17.561,0,0,1,2.146,23.2,11.011,11.011,0,0,1,9.9,19.462c3.983-.09,8.144,2.356,12.339,7.2.016.018.038.024.054.04s.027.043.047.061a.953.953,0,0,0,.168.1,1.135,1.135,0,0,0,.11.065.973.973,0,0,0,.754-.008.869.869,0,0,0,.109-.065.965.965,0,0,0,.169-.1c.02-.018.028-.042.047-.061s.038-.022.054-.04c4.14-4.778,8.238-7.2,12.182-7.2H36.1A11.011,11.011,0,0,1,43.854,23.2a17.561,17.561,0,0,1-1.548,5.249C42.209,28.292,42.123,28.142,42.018,27.987ZM32.041,3.877C29.078,4.928,24.892,6.856,23,9.793c-1.892-2.937-6.078-4.865-9.041-5.916A22.713,22.713,0,0,1,32.041,3.877Z" fill="red"/>
        <path id="Path_23" data-name="Path 23" d="M32,38a1,1,0,0,0-1,1,.581.581,0,0,1-.019.165,2.733,2.733,0,0,1-1.667-.115,1,1,0,0,0-.63,1.9,6.11,6.11,0,0,0,1.8.3,2.829,2.829,0,0,0,1.668-.461A2.087,2.087,0,0,0,33,39,1,1,0,0,0,32,38Z" fill="red"/>
        <path id="Path_24" data-name="Path 24" d="M16.686,39.05a2.767,2.767,0,0,1-1.662.121A.392.392,0,0,1,15,39a1,1,0,0,0-2,0,2.087,2.087,0,0,0,.852,1.789,2.829,2.829,0,0,0,1.668.461,6.11,6.11,0,0,0,1.8-.3,1,1,0,0,0-.63-1.9Z" fill="red"/>
        <path id="Path_25" data-name="Path 25" d="M22.08,30.38a.758.758,0,0,0,.09.18l.12.15a1.154,1.154,0,0,0,.33.21A1,1,0,0,0,23,31a1.052,1.052,0,0,0,.71-.29l.12-.15a.758.758,0,0,0,.09-.18.636.636,0,0,0,.06-.18A1.355,1.355,0,0,0,24,30a1,1,0,0,0-.08-.38,1.154,1.154,0,0,0-.21-.33,1.017,1.017,0,0,0-1.09-.21.9.9,0,0,0-.54.54A1,1,0,0,0,22,30a1.355,1.355,0,0,0,.02.2A.636.636,0,0,0,22.08,30.38Z" fill="red"/>
        <path id="Path_26" data-name="Path 26" d="M23,6a1,1,0,0,0,1-1V4a1,1,0,0,0-2,0V5A1,1,0,0,0,23,6Z" fill="red"/>
      </g>
    </g>
  </g>
</svg>
