<svg xmlns="http://www.w3.org/2000/svg" width="57.274" height="60.517" viewBox="0 0 57.274 60.517">
  <g id="noun_Light_3237958" transform="translate(-11.75 -9.58)">
    <path id="Path_27" data-name="Path 27" d="M50.308,63.994h-10.5a2.936,2.936,0,0,1-2.988-2.928v-3.78A4.833,4.833,0,0,0,35.2,53.73a14.679,14.679,0,0,1-4.8-10.862,14.507,14.507,0,0,1,1.24-5.894h0A14.642,14.642,0,1,1,54.9,53.692a4.923,4.923,0,0,0-1.636,3.593v3.78a2.936,2.936,0,0,1-2.951,2.928ZM45.042,29.877a12.976,12.976,0,0,0-11.893,7.762h0a13.028,13.028,0,0,0,3.19,14.873,6.492,6.492,0,0,1,2.166,4.774v3.78a1.285,1.285,0,0,0,1.307,1.277H50.346a1.285,1.285,0,0,0,1.277-1.277v-3.78a6.566,6.566,0,0,1,2.241-4.811,13,13,0,0,0-7.425-22.538C45.923,29.9,45.49,29.877,45.042,29.877Z" transform="translate(-4.655 -4.651)" fill="#02f" stroke="#02f" stroke-width="0.5"/>
    <rect id="Rectangle_1" data-name="Rectangle 1" width="1.643" height="8.046" transform="translate(39.565 9.83)" fill="#02f" stroke="#02f" stroke-width="0.5"/>
    <rect id="Rectangle_2" data-name="Rectangle 2" width="1.651" height="8.046" transform="translate(25.479 14.045) rotate(-30)" fill="#02f" stroke="#02f" stroke-width="0.5"/>
    <rect id="Rectangle_3" data-name="Rectangle 3" width="1.651" height="8.046" transform="translate(15.394 24.738) rotate(-60)" fill="#02f" stroke="#02f" stroke-width="0.5"/>
    <rect id="Rectangle_4" data-name="Rectangle 4" width="8.046" height="1.643" transform="translate(12 37.395)" fill="#02f" stroke="#02f" stroke-width="0.5"/>
    <rect id="Rectangle_5" data-name="Rectangle 5" width="8.046" height="1.651" transform="matrix(0.866, -0.5, 0.5, 0.866, 15.391, 51.699)" fill="#02f" stroke="#02f" stroke-width="0.5"/>
    <rect id="Rectangle_6" data-name="Rectangle 6" width="1.651" height="8.046" transform="translate(57.597 49.105) rotate(-60)" fill="#02f" stroke="#02f" stroke-width="0.5"/>
    <rect id="Rectangle_7" data-name="Rectangle 7" width="8.046" height="1.643" transform="translate(60.729 37.395)" fill="#02f" stroke="#02f" stroke-width="0.5"/>
    <rect id="Rectangle_8" data-name="Rectangle 8" width="8.046" height="1.651" transform="matrix(0.866, -0.5, 0.5, 0.866, 57.592, 27.339)" fill="#02f" stroke="#02f" stroke-width="0.5"/>
    <rect id="Rectangle_9" data-name="Rectangle 9" width="8.046" height="1.651" transform="matrix(0.5, -0.866, 0.866, 0.5, 49.846, 20.18)" fill="#02f" stroke="#02f" stroke-width="0.5"/>
    <path id="Path_28" data-name="Path 28" d="M51.684,79.032H44.177a2.57,2.57,0,0,1,0-5.132h7.545a2.57,2.57,0,0,1,0,5.132Zm-7.508-3.481a.919.919,0,1,0,0,1.83h7.545a.919.919,0,1,0,0-1.83Z" transform="translate(-7.525 -16.208)" fill="#02f" stroke="#02f" stroke-width="0.5"/>
    <path id="Path_29" data-name="Path 29" d="M51.684,83.692H44.177a2.57,2.57,0,0,1,0-5.132h7.545a2.57,2.57,0,0,1,0,5.132Zm-7.508-3.481a.919.919,0,1,0,0,1.83h7.545a.919.919,0,1,0,0-1.83Z" transform="translate(-7.525 -17.386)" fill="#02f" stroke="#02f" stroke-width="0.5"/>
    <path id="Path_30" data-name="Path 30" d="M48.624,88.693H48.34A4.37,4.37,0,0,1,44,84.33h1.643a2.719,2.719,0,0,0,2.7,2.742h.284a2.719,2.719,0,0,0,2.719-2.712h1.621A4.37,4.37,0,0,1,48.624,88.693Z" transform="translate(-8.095 -18.846)" fill="#02f" stroke="#02f" stroke-width="0.5"/>
    <path id="Path_31" data-name="Path 31" d="M49.942,69.384h-6.32V53.434L37.28,49.52h19l-6.342,3.914Zm-4.654-1.651h2.988V52.516l2.241-1.352h-7.4l2.166,1.352Z" transform="translate(-6.395 -10.04)" fill="#02f" stroke="#02f" stroke-width="0.5"/>
  </g>
</svg>
